SplineFontDB: 3.0
FontName: Heuristica-Bold
FullName: Heuristica Bold
FamilyName: Heuristica
Weight: Bold
Copyright: Copyright (c) 1989, 1991 Adobe Systems Incorporated.  All Rights Reserved. Utopia is either a registered trademark or trademark of Adobe Systems Incorporated in the United States and/or other countries. Used under license. The Utopia fonts are freely available; see http://tug.org/fonts/utopia.\n\nCopyright (c) 2008, 2009, 2010 Andrey V. Panov (panov@canopus.iacp.dvo.ru).\n
Version: 0.4
ItalicAngle: 0
UnderlinePosition: -100
UnderlineWidth: 50
Ascent: 750
Descent: 250
LayerCount: 2
Layer: 0 0 "Back"  1
Layer: 1 0 "Fore"  0
NeedsXUIDChange: 1
UniqueID: 36543
FSType: 8
OS2Version: 0
OS2_WeightWidthSlopeOnly: 0
OS2_UseTypoMetrics: 1
CreationTime: 1164221255
ModificationTime: 1310975028
PfmFamily: 17
TTFWeight: 700
TTFWidth: 5
LineGap: 0
VLineGap: 0
Panose: 2 2 8 3 6 6 5 2 2 4
OS2TypoAscent: 750
OS2TypoAOffset: 0
OS2TypoDescent: -250
OS2TypoDOffset: 0
OS2TypoLinegap: 200
OS2WinAscent: 950
OS2WinAOffset: 0
OS2WinDescent: 250
OS2WinDOffset: 0
HheadAscent: 950
HheadAOffset: 0
HheadDescent: -250
HheadDOffset: 0
OS2Vendor: 'PfEd'
Lookup: 258 0 0 "LGC kerning"  {"LGC kerning subtable" [150,15,0] } ['kern' ('cyrl' <'dflt' > 'grek' <'dflt' > 'latn' <'dflt' > ) ]
MarkAttachClasses: 1
DEI: 91125
LangName: 1049 "" "+BC0EMgRABDgEQQRCBDgEOgQw" 

StartChar: exclam
Encoding: 33 33 1
Width: 278
Flags: HW
HStem: -12 21G<111.5 167> -12 186<111.5 167> 687 20G<96 182.5>
VStem: 47 184<81 108 81 108> 53 173
LayerCount: 2
Fore
SplineSet
57 592 m 2
 46 671 53 707 139 707 c 0xb8
 226 707 233 671 222 592 c 2
 171 219 l 1
 107 219 l 1
 57 592 l 2
EndSplineSet
Refer: 14 46 S 1 0 0 1 -1 0 2
EndChar

StartChar: numbersign
Encoding: 35 35 3
Width: 560
Flags: HMW
HStem: 0 21G<44 121 44 44 233 309 233 233> 219 72<14 110 14 131 208 299 14 187 395 494> 398 72<67 163 67 185 261 352 67 240 449 547> 648 20G<244 320 320 320 433 508 508 508>
VStem: 14 533<219 398 291 398>
LayerCount: 2
Fore
SplineSet
14 219 m 1
 14 291 l 1
 131 291 l 1
 163 398 l 1
 67 398 l 1
 67 470 l 1
 185 470 l 1
 244 668 l 1
 320 668 l 1
 261 470 l 1
 374 470 l 1
 433 668 l 1
 508 668 l 1
 449 470 l 1
 547 470 l 1
 547 398 l 1
 427 398 l 1
 395 291 l 1
 494 291 l 1
 494 219 l 1
 374 219 l 1
 309 0 l 1
 233 0 l 1
 299 219 l 1
 187 219 l 1
 121 0 l 1
 44 0 l 1
 110 219 l 1
 14 219 l 1
208 291 m 1
 320 291 l 1
 352 398 l 1
 240 398 l 1
 208 291 l 1
EndSplineSet
EndChar

StartChar: dollar
Encoding: 36 36 4
Width: 560
Flags: HMW
HStem: 0 46<248 248 304 330.5> 622 46<248 248>
VStem: 39 122<506 541> 248 56<-104 0 -104 0 46 262 438 622 668 748> 395 129
LayerCount: 2
Fore
SplineSet
38 122 m 0
 38 165 84 194 110 194 c 0
 134 194 145 184 154 162 c 0
 191 69 228 50 248 46 c 1
 248 281 l 1
 196 300 l 2
 106 334 39 385 39 478 c 0
 39 604 133 664 248 668 c 1
 248 748 l 1
 304 748 l 1
 304 668 l 1
 436 665 496 600 496 558 c 0
 496 510 441 497 422 497 c 0
 400 497 391 506 384 524 c 0
 358 595 330 617 304 622 c 1
 304 416 l 1
 350 399 l 2
 456 359 523 307 524 197 c 0
 523 53 396 0 304 0 c 1
 304 -104 l 1
 248 -104 l 1
 248 0 l 1
 80 6 38 88 38 122 c 0
161 530 m 0
 161 482 199 451 248 438 c 1
 248 622 l 1
 197 619 161 580 161 530 c 0
304 46 m 1
 357 46 395 80 395 139 c 0
 395 200 358 241 304 262 c 1
 304 46 l 1
EndSplineSet
EndChar

StartChar: percent
Encoding: 37 37 5
Width: 887
Flags: MW
HStem: -12 21G<613.5 729.5> -12 40<651.5 691.5 651.5 729.5> 308 40<196.5 236 196.5 268> 320 40<653 690> 590 43<382 526 526 555 382 564 378 526> 640 40<197.5 235> 648 20G<682 682> 681 20G<635 635>
VStem: 40 114<442 550 442 555.5> 278 114<442 516.5 432.5 550> 495 114<122 230 122 235.5> 733 114<122 230>
DStem2: 205 6 252 -31 0.523961 0.851742<0 685.519 725.792 813.783>
LayerCount: 2
Fore
SplineSet
40 494 m 0
 40 617 100 680 216 680 c 0x64f0
 273 680 303 666 337 646 c 0
 348 640 362 633 382 633 c 2
 526 633 l 2
 584 633 595 642 614 670 c 2
 635 701 l 1x69f0
 682 668 l 1
 252 -31 l 1
 205 6 l 1
 564 590 l 1
 378 590 l 1xaaf0
 385 567 392 539 392 494 c 0
 392 371 326 308 210 308 c 0
 100 308 40 371 40 494 c 0
154 494 m 0
 154 390 177 348 216 348 c 0
 256 348 278 390 278 494 c 0
 278 606 254 640 216 640 c 0x64f0
 179 640 154 606 154 494 c 0
EndSplineSet
Refer: 236 61698 N 1 0 0 1 455 0 2
EndChar

StartChar: ampersand
Encoding: 38 38 6
Width: 748
Flags: HW
HStem: -12 74<304.5 317> -7 31<730 734> 634 46<296.5 328.5>
VStem: 45 146<172 233.5> 129 124<523.5 552.5> 373 119<512 571> 571 131
LayerCount: 2
Fore
SplineSet
45 186 m 0xb6
 45 281 129 333 186 359 c 1
 155 400 129 451 129 500 c 0
 129 605 203 680 318 680 c 0
 417 680 492 622 492 531 c 0
 492 446 424 404 358 373 c 1
 402 322 467 254 536 187 c 1
 585 248 573 340 560 400 c 1
 589 430 641 446 671 443 c 1
 695 420 702 387 702 355 c 0
 702 285 629 194 580 150 c 1
 634 97 698 40 734 24 c 1
 730 -7 l 1
 684 -6 l 2x76
 602 -3 548 14 489 57 c 1
 428 13 360 -12 274 -12 c 0
 151 -12 45 56 45 186 c 0xb6
191 218 m 0
 191 126 262 62 347 62 c 0
 386 62 426 73 444 91 c 1
 351 166 267 257 223 310 c 1xb6
 208 297 191 263 191 218 c 0
253 549 m 0
 253 498 278 454 317 414 c 1xbe
 348 438 373 482 373 542 c 0
 373 600 344 634 313 634 c 0
 280 634 253 600 253 549 c 0
EndSplineSet
EndChar

StartChar: quoteright
Encoding: 8217 8217 7
Width: 252
Flags: HMW
HStem: 687 20G<104.5 127>
VStem: 96 116<511.5 634>
LayerCount: 2
Back
SplineSet
40 414 m 1
 73 450 96 489 96 534 c 0
 96 578 59 597 59 640 c 0
 59 675 82 707 127 707 c 0
 174 708 212 667 212 601 c 0
 212 516 130 437 68 387 c 1
 40 414 l 1
EndSplineSet
Fore
SplineSet
40 414 m 1
 73 450 96 489 96 534 c 0
 96 578 59 597 59 640 c 0
 59 675 82 707 127 707 c 0
 175 707 212 667 212 601 c 0
 212 516 130 437 68 387 c 1
 40 414 l 1
EndSplineSet
EndChar

StartChar: parenleft
Encoding: 40 40 8
Width: 365
Flags: HMW
HStem: -135 34<339 344> 665 34<339 344>
VStem: 99 101<220.5 343.5 220.5 361.5>
LayerCount: 2
Fore
SplineSet
99 282 m 0
 99 441 132 694 339 699 c 1
 344 665 l 1
 228 630 200 405 200 282 c 0
 200 159 228 -66 344 -101 c 1
 339 -135 l 1
 132 -130 99 123 99 282 c 0
EndSplineSet
EndChar

StartChar: parenright
Encoding: 41 41 9
Width: 365
Flags: HMW
HStem: 665 34<21 26>
VStem: 165 101<220.5 343.5>
LayerCount: 2
Fore
SplineSet
21 -101 m 1
 137 -68 165 159 165 282 c 0
 165 405 137 632 21 665 c 1
 26 699 l 1
 233 694 266 441 266 282 c 0
 266 123 233 -130 26 -135 c 1
 21 -101 l 1
EndSplineSet
EndChar

StartChar: asterisk
Encoding: 42 42 10
Width: 442
Flags: HW
HStem: 467 36 467 96 483 20G<167 167 276 276> 687 20G<205 237>
VStem: 41 203 176 91 198 46<582 582>
LayerCount: 2
Fore
SplineSet
51 408 m 0
 33 435 39 463 69 473 c 2x98
 167 503 l 2
 179 506 180 520 166 525 c 2
 69 558 l 2x34
 39 568 30 590 52 622 c 0
 68 646 90 651 110 633 c 2
 180 568 l 2
 194 556 203 565 198 582 c 2
 177 665 l 2
 170 692 189 707 221 707 c 0x76
 253 707 272 692 265 665 c 2
 244 582 l 2
 240 565 249 556 262 568 c 2
 332 633 l 2
 353 651 374 646 390 622 c 0
 412 590 404 568 373 558 c 2x52
 277 525 l 2
 262 520 265 506 276 503 c 2
 373 473 l 2x34
 404 463 409 435 391 408 c 0
 370 376 348 374 324 399 c 2
 262 462 l 2
 251 474 240 463 244 449 c 2
 266 364 l 2
 273 337 260 315 221 315 c 0
 182 315 169 337 176 364 c 2
 199 449 l 2
 203 463 192 473 181 462 c 2
 119 399 l 2
 95 374 72 376 51 408 c 0
EndSplineSet
EndChar

StartChar: plus
Encoding: 43 43 11
Width: 600
Flags: MW
HStem: 0 21G<252 348 252 252> 210 80<58 252 58 252 348 542> 470 20G<252 348 348 348>
VStem: 252 96<0 210 0 210 290 490>
LayerCount: 2
Fore
SplineSet
58 210 m 1
 58 290 l 1
 252 290 l 1
 252 490 l 1
 348 490 l 1
 348 290 l 1
 542 290 l 1
 542 210 l 1
 348 210 l 1
 348 0 l 1
 252 0 l 1
 252 210 l 1
 58 210 l 1
EndSplineSet
EndChar

StartChar: comma
Encoding: 44 44 12
Width: 280
Flags: HMW
HStem: -167 347<70 134>
VStem: 100 126<-32 101>
LayerCount: 2
Back
SplineSet
40 -138 m 1
 75 -99 100 -56 100 -8 c 0
 100 40 60 61 60 107 c 0
 61 145 85 180 134 180 c 0
 185 181 226 137 226 65 c 0
 226 -27 137 -113 70 -167 c 1
 40 -138 l 1
EndSplineSet
Fore
SplineSet
40 -138 m 1
 75 -99 100 -56 100 -8 c 0
 100 40 60 61 60 107 c 0
 60 144 85 180 134 180 c 0
 186 180 226 137 226 65 c 0
 226 -27 137 -113 70 -167 c 1
 40 -138 l 1
EndSplineSet
EndChar

StartChar: hyphen
Encoding: 45 45 13
Width: 392
Flags: HMW
HStem: 203 95<65 328 65 328>
VStem: 65 263<203 298 203 298>
LayerCount: 2
Fore
SplineSet
65 203 m 1
 65 298 l 1
 328 298 l 1
 328 203 l 1
 65 203 l 1
EndSplineSet
EndChar

StartChar: period
Encoding: 46 46 14
Width: 280
Flags: W
HStem: -12 186<77.6596 202.34>
VStem: 47 186<18.6596 143.34>
LayerCount: 2
Back
SplineSet
48 81 m 0
 48 135 85 174 140 174 c 0x60
 196 174 232 135 232 81 c 0
 230 26 196 -12 140 -12 c 0xa0
 85 -12 48 26 48 81 c 0
48 81 m 0
 48 135 85 174 140 174 c 0x60
 196 174 232 135 232 81 c 0
 230 26 196 -12 140 -12 c 0xa0
 85 -12 48 26 48 81 c 0
EndSplineSet
Fore
SplineSet
47 81 m 0
 47 136 85 174 140 174 c 0
 195 174 233 136 233 81 c 0
 233 26 195 -12 140 -12 c 0
 85 -12 47 26 47 81 c 0
EndSplineSet
EndChar

StartChar: slash
Encoding: 47 47 15
Width: 378
Flags: MW
HStem: -15 21G<34 134 34 34> 687 20G<244 344 344 344>
VStem: 34 310
DStem2: 34 -15 134 -15 0.279285 0.960208<27.9285 751.92>
LayerCount: 2
Fore
SplineSet
34 -15 m 1
 244 707 l 1
 344 707 l 1
 134 -15 l 1
 34 -15 l 1
EndSplineSet
EndChar

StartChar: zero
Encoding: 48 48 16
Width: 560
Flags: W
HStem: -12 46<238.481 321.519> 634 46<238.481 321.519>
VStem: 31 158<171.654 496.346> 371 158<171.654 496.346>
LayerCount: 2
Back
SplineSet
31 334 m 0
 31 519 91 680 281 680 c 0
 468 680 530 517 530 334 c 0
 530 150 471 -12 281 -12 c 0
 92 -12 31 153 31 334 c 0
189 334 m 0
 189 220 198 34 281 34 c 0
 363 34 372 220 372 334 c 0
 372 448 363 634 281 634 c 0
 198 634 189 448 189 334 c 0
EndSplineSet
Fore
SplineSet
31 334 m 0
 31 517 93 680 280 680 c 0
 467 680 529 517 529 334 c 0
 529 151 467 -12 280 -12 c 0
 93 -12 31 151 31 334 c 0
189 334 m 0
 189 220 198 34 280 34 c 0
 362 34 371 220 371 334 c 0
 371 448 362 634 280 634 c 0
 198 634 189 448 189 334 c 0
EndSplineSet
EndChar

StartChar: one
Encoding: 49 49 17
Width: 560
Flags: HW
HStem: 0 41 652 20G<356 356> 660 20G<347 347>
VStem: 205 151<85 547 547 565>
LayerCount: 2
Fore
SplineSet
102 0 m 1
 102 38 l 1
 170 44 l 2
 194 46 205 53 205 85 c 2
 205 547 l 2
 205 583 196 592 170 597 c 2
 108 610 l 1
 108 641 l 1
 347 680 l 1
 356 672 l 1xd0
 356 85 l 2
 356 53 367 46 391 44 c 2
 459 38 l 1
 459 0 l 1xb0
 102 0 l 1
EndSplineSet
EndChar

StartChar: two
Encoding: 50 50 18
Width: 560
Flags: HMW
HStem: 0 121<165 420 420 441 165 499> 634 46<249.5 299.5>
VStem: 348 159<483 550.5>
LayerCount: 2
Fore
SplineSet
30 18 m 1
 32 85 81 168 221 283 c 0
 332 375 348 450 348 516 c 0
 348 585 325 634 274 634 c 0
 225 634 194 581 177 502 c 0
 171 475 154 464 133 464 c 0
 99 464 48 486 48 529 c 0
 48 616 150 680 281 680 c 0
 409 680 507 628 507 490 c 0
 507 386 441 333 325 271 c 0
 214 212 181 156 165 121 c 1
 420 121 l 2
 462 121 475 128 504 180 c 1
 539 175 l 1
 499 0 l 1
 44 0 l 1
 30 18 l 1
EndSplineSet
EndChar

StartChar: three
Encoding: 51 51 19
Width: 560
Flags: HW
HStem: -12 46<241.5 294.5 241.5 341> 331 54<238 282> 634 46<241 295.5>
VStem: 336 155<499 537.5> 357 162<136 247.5>
LayerCount: 2
Fore
SplineSet
27 119 m 0
 27 165 75 192 111 192 c 0
 134 192 149 176 155 158 c 0
 183 67 219 34 264 34 c 0
 325 34 357 86 357 186 c 0xe8
 357 309 307 331 257 331 c 0xe8
 217 331 183 317 161 317 c 0
 140 317 132 335 132 358 c 0
 132 382 140 399 161 399 c 0
 183 399 219 385 257 385 c 0
 330 385 336 481 336 517 c 0
 336 558 326 634 265 634 c 0
 217 634 191 593 169 519 c 0
 162 497 149 484 127 484 c 0
 103 484 49 502 49 547 c 0
 49 622 148 680 265 680 c 0
 368 680 491 648 491 510 c 0xf0
 491 412 405 380 352 366 c 1
 352 362 l 1
 390 356 519 327 519 184 c 0
 519 57 422 -12 260 -12 c 0
 78 -12 27 81 27 119 c 0
EndSplineSet
EndChar

StartChar: four
Encoding: 52 52 20
Width: 560
Flags: HMW
HStem: 0 40.5 173 69<123 292 123 292 433 533> 648 20G<313 433 433 433>
VStem: 292 141<75 173 63.5 173 242 539 539 539>
LayerCount: 2
Fore
SplineSet
19 203 m 1
 108 355 206 512 313 668 c 1
 433 668 l 1
 433 242 l 1
 533 242 l 1
 533 173 l 1
 433 173 l 1
 433 75 l 2
 433 52 443 44 459 42 c 2
 506 38 l 1
 506 0 l 1
 199 0 l 1
 199 38 l 1
 266 43 l 2
 281 44 292 52 292 75 c 2
 292 173 l 1
 38 173 l 1
 19 203 l 1
123 242 m 1
 292 242 l 1
 292 539 l 1
 290 539 l 1
 227 435 170 335 123 242 c 1
EndSplineSet
EndChar

StartChar: five
Encoding: 53 53 21
Width: 560
Flags: HW
HStem: -12 46<249 302 249 360.5> 366 65<263 276.5> 547 121<176.5 190 190 456> 654 14<102 495>
VStem: 360 159<154 258>
LayerCount: 2
Fore
SplineSet
43 119 m 0
 43 163 87 192 119 192 c 0
 147 192 161 176 168 154 c 0
 197 66 227 34 271 34 c 0
 333 34 360 99 360 200 c 0
 360 316 311 366 242 366 c 0
 194 366 154 346 115 298 c 1
 74 328 l 1
 94 659 l 1
 102 668 l 1xe8
 485 668 l 1xe8
 495 654 l 1xd8
 456 547 l 1
 190 547 l 2
 163 547 160 542 155 508 c 2
 136 374 l 1
 175 401 229 431 297 431 c 0
 476 431 519 305 519 215 c 0
 519 93 454 -12 267 -12 c 0
 90 -12 43 84 43 119 c 0
EndSplineSet
EndChar

StartChar: six
Encoding: 54 54 22
Width: 560
Flags: HMW
HStem: -12 46<252 322.5 252 375> 348 82<307 309> 634 46<251 317>
VStem: 30 154<225 263.5 180 363> 383 154<160 250>
LayerCount: 2
Fore
SplineSet
30 326 m 0
 30 400 42 481 76 548 c 0
 118 628 193 680 309 680 c 0
 441 680 502 608 502 557 c 0
 502 516 453 497 427 497 c 0
 404 497 388 511 383 528 c 0
 365 594 338 634 296 634 c 0
 198 634 187 438 185 348 c 1
 187 348 l 1
 226 394 274 430 340 430 c 0
 444 430 537 361 537 220 c 0
 537 100 465 -12 285 -12 c 0
 97 -12 30 124 30 326 c 0
184 234 m 0
 184 126 216 34 288 34 c 0
 357 34 383 104 383 194 c 0
 383 306 337 348 281 348 c 0
 219 348 184 293 184 234 c 0
EndSplineSet
EndChar

StartChar: seven
Encoding: 55 55 23
Width: 560
Flags: HW
HStem: -12 21G<216 254.5> 479 20G<34 34> 547 121<124.5 146 146 408> 656 12
VStem: 153 160
LayerCount: 2
Fore
SplineSet
34 499 m 1
 77 668 l 1xe8
 517 668 l 1xe8
 530 656 l 1xd8
 514 559 475 492 380 353 c 0
 333 285 316 174 313 51 c 0
 312 -4 272 -12 237 -12 c 0
 195 -12 153 -4 153 54 c 0
 153 138 211 241 293 340 c 0
 374 438 398 514 408 547 c 1
 146 547 l 2
 103 547 91 531 79 508 c 2
 69 489 l 1
 34 499 l 1
EndSplineSet
EndChar

StartChar: eight
Encoding: 56 56 24
Width: 560
Flags: W
HStem: -12 46<225.666 334.49> 332 48<233.154 327.446> 634 46<234.345 326.574>
VStem: 27 158<93.8097 276.707> 52 148<424.729 586.791> 360 148<423.551 589.428> 375 158<93.5988 278.041>
LayerCount: 2
Fore
SplineSet
27 189 m 0xf2
 27 279 79 337 159 362 c 1
 159 364 l 1
 98 382 52 426 52 501 c 0
 52 615 140 680 280 680 c 0
 422 680 508 618 508 501 c 0xec
 508 426 462 382 401 363 c 1
 401 361 l 1
 482 337 533 279 533 189 c 0
 533 39 413 -12 280 -12 c 0
 148 -12 27 40 27 189 c 0xf2
185 186 m 0xf2
 185 97 217 34 280 34 c 0
 343 34 375 97 375 186 c 0
 375 268 342 332 280 332 c 0
 218 332 185 268 185 186 c 0xf2
200 506 m 0xec
 200 434 231 380 280 380 c 0
 332 380 360 434 360 506 c 0
 360 579 333 634 280 634 c 0
 230 634 200 579 200 506 c 0xec
EndSplineSet
EndChar

StartChar: nine
Encoding: 57 57 25
Width: 560
Flags: HMW
HStem: -12 48<243.5 288 243.5 291.5> 255 76<257.5 264> 634 46<250 308.5>
VStem: 34 154<435.5 517> 369 154<317 317>
LayerCount: 2
Fore
SplineSet
34 454 m 0
 34 580 119 680 272 680 c 0
 368 680 430 647 469 591 c 0
 507 535 523 454 523 352 c 0
 523 209 493 113 444 59 c 0
 398 8 331 -12 252 -12 c 0
 102 -12 50 70 50 107 c 0
 50 149 95 176 124 176 c 0
 148 176 163 165 170 144 c 0
 199 58 225 36 262 36 c 0
 314 36 364 79 369 317 c 1
 367 317 l 1
 338 287 292 255 236 255 c 0
 129 255 34 319 34 454 c 0
188 478 m 0
 188 393 225 331 290 331 c 0
 322 331 347 351 358 369 c 0
 368 385 370 405 370 433 c 0
 370 551 338 634 279 634 c 0
 221 634 188 573 188 478 c 0
EndSplineSet
EndChar

StartChar: less
Encoding: 60 60 28
Width: 600
Flags: HMW
HStem: 473 20G<539 539>
VStem: 61 478<5 289 5 289>
LayerCount: 2
Fore
SplineSet
61 206 m 1
 61 289 l 1
 539 493 l 1
 539 402 l 1
 158 248 l 1
 539 95 l 1
 539 5 l 1
 61 206 l 1
EndSplineSet
EndChar

StartChar: greater
Encoding: 62 62 30
Width: 600
Flags: MW
HStem: 473 20G<61 61>
VStem: 61 478<5 289 95 289 206 493 206 493>
LayerCount: 2
Fore
SplineSet
61 5 m 1
 61 95 l 1
 442 248 l 1
 61 402 l 1
 61 493 l 1
 539 289 l 1
 539 206 l 1
 61 5 l 1
EndSplineSet
EndChar

StartChar: question
Encoding: 63 63 31
Width: 456
Flags: W
HStem: -12 186<161.66 286.34> 224 70<188 325.091> 273 27<353.19 366.852> 661 46<191.52 252.911>
VStem: 20 139<538.116 619.989> 86 168<306.8 385.212> 131 186<18.6596 143.34> 266 167<507.554 634.212>
LayerCount: 2
Fore
SplineSet
20 582 m 0xd9
 20 632 88 707 229 707 c 0
 346 707 433 659 433 559 c 0
 433 488 370 457 328 435 c 0
 278 409 254 377 254 347 c 0xd5
 254 317 278 294 317 294 c 0xd2
 338 294 353 297 364 300 c 1
 375 273 l 1xb2
 335 246 281 224 224 224 c 0
 152 224 86 258 86 330 c 0xd4
 86 359 101 394 172 437 c 0
 237 477 266 529 266 584 c 0
 266 629 251 661 225 661 c 0
 199 661 179 634 159 551 c 0
 153 526 137 514 105 514 c 0
 72 514 20 537 20 582 c 0xd9
EndSplineSet
Refer: 14 46 S 1 0 0 1 84 0 2
EndChar

StartChar: at
Encoding: 64 64 32
Width: 833
Flags: HMW
HStem: -15 54<323.5 444.5> 161 52<278 388 592.5 643.5> 506 38<456 500 390.5 504> 647 60<376.5 534.5>
VStem: 45 109<252.5 397 252.5 432> 224 122<238.5 285.5 238.5 289> 476 103 722 75<375.5 487.5>
LayerCount: 2
Fore
SplineSet
45 307 m 0
 45 557 248 707 472 707 c 0
 673 707 797 574 797 414 c 0
 797 302 723 161 564 161 c 0
 478 161 468 211 479 255 c 2
 491 309 l 1
 488 311 l 1
 442 214 384 161 304 161 c 0
 252 161 224 199 224 251 c 0
 224 327 290 544 491 544 c 0
 509 544 526 540 538 534 c 1
 541 540 l 1
 651 540 l 1
 625 446 600 353 579 259 c 0
 574 237 575 213 610 213 c 0
 681 213 722 342 722 409 c 0
 722 566 605 647 464 647 c 0
 289 647 154 487 154 307 c 0
 154 198 217 39 430 39 c 0
 499 39 565 54 612 74 c 1
 623 39 l 1
 570 1 474 -15 415 -15 c 0
 215 -15 45 87 45 307 c 0
346 253 m 0
 346 224 355 213 369 213 c 0
 407 213 471 336 492 400 c 2
 528 498 l 1
 520 504 509 506 499 506 c 0
 413 506 346 318 346 253 c 0
EndSplineSet
EndChar

StartChar: A
Encoding: 65 65 33
Width: 644
Flags: W
HStem: 0 38<-28 35.4594 146 206 347 405 598.378 663> 246 48<192 354> 672 20G<255.116 394.502>
DStem2: 146 355 176 246 0.327973 0.944687<-294.398 -93.1317 -42.5392 0> 262 692 273 553 0.327973 0.944687<-639.329 -449.536 -398.944 -127.704> 388 692 276 553 0.309157 -0.951011<97.5649 367.991 418.586 622.032>
LayerCount: 2
Fore
SplineSet
-28 0 m 1
 -28 38 l 1
 26 41 37 48 53 90 c 0
 77 151 110 252 146 355 c 2
 262 692 l 1
 388 692 l 1
 585 86 l 2
 598 45 611 39 663 38 c 1
 663 0 l 1
 347 0 l 1
 347 38 l 1
 405 44 l 2
 426 46 429 59 422 80 c 2
 370 246 l 1
 176 246 l 1
 158 187 140 133 128 79 c 0
 123 57 124 45 146 43 c 2
 206 38 l 1
 206 0 l 1
 -28 0 l 1
192 294 m 1
 354 294 l 1
 276 553 l 1
 273 553 l 1
 192 294 l 1
EndSplineSet
EndChar

StartChar: B
Encoding: 66 66 34
Width: 683
Flags: W
HStem: 0 46<282.428 421.965> 0 38<33 105.725> 343 46<272 404.531> 646 46<273.925 405.799> 654 38<33 105.725>
VStem: 112 160<56.7109 343 389 642.958> 456 162<446.855 599.106> 470 175<96.5137 277.072>
LayerCount: 2
Fore
SplineSet
33 0 m 1x65
 33 38 l 1
 104 41 112 46 112 97 c 2
 112 595 l 2
 112 646 104 651 33 654 c 1
 33 692 l 1x6d
 363 692 l 2
 521 692 618 648 618 526 c 0x36
 618 444 568 392 470 371 c 1
 470 369 l 1
 563 355 645 300 645 189 c 0
 645 135 629 87 588 54 c 0
 546 20 477 0 363 0 c 2xb5
 33 0 l 1x65
272 111 m 2
 272 62 294 46 344 46 c 0xa5
 414 46 470 81 470 188 c 0
 470 272 423 343 323 343 c 2
 272 343 l 1
 272 111 l 2
272 389 m 1
 321 389 l 2
 417 389 456 444 456 518 c 0
 456 593 420 646 330 646 c 0x36
 290 646 272 643 272 609 c 2
 272 389 l 1
EndSplineSet
EndChar

StartChar: C
Encoding: 67 67 35
Width: 689
Flags: HMW
HStem: -15 46<333 443> 661 46<352.5 448 352.5 478>
VStem: 42 177<298.5 389> 600 38<484 663>
LayerCount: 2
Fore
SplineSet
42 339 m 0
 42 439 67 534 128 602 c 0
 187 668 282 707 423 707 c 0
 473 707 578 699 638 663 c 1
 638 484 l 1
 600 484 l 1
 577 556 542 661 414 661 c 0
 233 661 219 428 219 355 c 0
 219 242 244 31 422 31 c 0
 535 31 578 118 616 228 c 1
 654 228 l 1
 642 33 l 1
 582 -3 478 -15 408 -15 c 0
 151 -15 42 125 42 339 c 0
EndSplineSet
EndChar

StartChar: D
Encoding: 68 68 36
Width: 777
Flags: HW
HStem: 0 38<33 332 33 33> 0 46<320.5 332> 646 46<323.5 376 33 422> 654 38<33 376>
VStem: 112 160<97 595 595 618> 558 177<221 409 187 449.5>
LayerCount: 2
Fore
SplineSet
33 0 m 1x6c
 33 38 l 1
 104 41 112 46 112 97 c 2
 112 595 l 2
 112 646 104 651 33 654 c 1x9c
 33 692 l 1
 376 692 l 2
 506 691 590 663 648 606 c 0
 706 549 735 465 735 353 c 0
 735 21 488 0 332 0 c 2
 33 0 l 1x6c
272 90 m 2
 272 58 289 46 352 46 c 0
 450 46 558 89 558 353 c 0
 558 546 489 646 355 646 c 0
 292 646 272 641 272 618 c 2x6c
 272 90 l 2
EndSplineSet
EndChar

StartChar: E
Encoding: 69 69 37
Width: 629
Flags: W
HStem: 0 46<286.66 488.656> 0 38<33 105.725> 337 52<272 434.167> 646 46<272.831 472.017> 654 38<33 105.725>
VStem: 112 160<62.5895 337 389 645.163> 459 38<247 305.816 420.184 479> 534 38<507 560.184> 566 38<157.452 208>
LayerCount: 2
Fore
SplineSet
33 0 m 1x6680
 33 38 l 1
 104 41 112 46 112 97 c 2
 112 595 l 2
 112 646 104 651 33 654 c 1
 33 692 l 1
 572 692 l 1x6f
 572 507 l 1
 534 507 l 1
 503 606 485 646 382 646 c 2
 307 646 l 2
 279 646 272 639 272 610 c 2
 272 389 l 1
 367 389 l 2
 430 389 443 406 459 479 c 1
 497 479 l 1
 497 247 l 1
 459 247 l 1
 443 320 430 337 367 337 c 2
 272 337 l 1
 272 119 l 2
 272 55 303 46 395 46 c 0xb7
 513 46 530 101 566 208 c 1
 604 208 l 1
 592 0 l 1
 33 0 l 1x6680
EndSplineSet
EndChar

StartChar: F
Encoding: 70 70 38
Width: 593
Flags: HW
HStem: 0 38<37 372 37 37> 318 52<276 390 276 390> 646 46<297 311 311 378> 654 38<37 568>
VStem: 116 160<97 318 370 595 595 610> 482 38<228 460 228 460> 530 38<507 692>
LayerCount: 2
Fore
SplineSet
37 0 m 1
 37 38 l 1
 108 41 116 46 116 97 c 2
 116 595 l 2
 116 646 108 651 37 654 c 1xdc
 37 692 l 1xec
 568 692 l 1
 568 507 l 1
 530 507 l 1
 499 604 481 646 378 646 c 2
 311 646 l 2
 283 646 276 639 276 610 c 2xee
 276 370 l 1
 390 370 l 2
 453 370 466 387 482 460 c 1
 520 460 l 1
 520 228 l 1
 482 228 l 1
 466 301 453 318 390 318 c 2
 276 318 l 1
 276 97 l 2
 276 46 284 41 372 38 c 1
 372 0 l 1
 37 0 l 1
EndSplineSet
EndChar

StartChar: G
Encoding: 71 71 39
Width: 726
Flags: HW
HStem: -15 46<377 444.5 319.5 448> 276 38<407 709 407 709> 661 46<331.5 453.5 254 474.5>
VStem: 42 177<317.5 405 317.5 410> 493 160<76 217 217 219 33 241.5> 605 38<481 663>
LayerCount: 2
Fore
SplineSet
42 341 m 0
 42 479 94 707 414 707 c 0
 493 707 580 697 643 663 c 1xfc
 643 481 l 1
 605 481 l 1xf4
 577 567 530 661 419 661 c 0
 244 661 219 456 219 354 c 0
 219 281 229 31 410 31 c 0
 479 31 493 41 493 76 c 2
 493 217 l 2
 493 266 485 271 407 276 c 1
 407 314 l 1
 709 314 l 1
 709 276 l 1
 661 271 653 266 653 219 c 2
 653 33 l 1xf8
 583 2 486 -15 410 -15 c 0
 344 -15 250 -9 177 40 c 0
 101 91 42 183 42 341 c 0
EndSplineSet
EndChar

StartChar: H
Encoding: 72 72 40
Width: 807
Flags: HMW
HStem: 0 38<33 351 33 33> 341 48<272 535 272 535> 654 38<33 351 33 351>
VStem: 112 160<97 341 389 595> 535 160<97 341 341 341 389 595>
LayerCount: 2
Fore
SplineSet
33 0 m 1
 33 38 l 1
 104 41 112 46 112 97 c 2
 112 595 l 2
 112 646 104 651 33 654 c 1
 33 692 l 1
 351 692 l 1
 351 654 l 1
 280 651 272 646 272 595 c 2
 272 389 l 1
 535 389 l 1
 535 595 l 2
 535 646 527 651 456 654 c 1
 456 692 l 1
 774 692 l 1
 774 654 l 1
 703 651 695 646 695 595 c 2
 695 97 l 2
 695 46 703 41 774 38 c 1
 774 0 l 1
 456 0 l 1
 456 38 l 1
 527 41 535 46 535 97 c 2
 535 341 l 1
 272 341 l 1
 272 97 l 2
 272 46 280 41 351 38 c 1
 351 0 l 1
 33 0 l 1
EndSplineSet
EndChar

StartChar: I
Encoding: 73 73 41
Width: 384
Flags: HMW
HStem: 0 38<33 351 33 33> 654 38<33 351 33 351>
VStem: 112 160<97 595>
LayerCount: 2
Fore
SplineSet
33 0 m 1
 33 38 l 1
 104 41 112 46 112 97 c 2
 112 595 l 2
 112 646 104 651 33 654 c 1
 33 692 l 1
 351 692 l 1
 351 654 l 1
 280 651 272 646 272 595 c 2
 272 97 l 2
 272 46 280 41 351 38 c 1
 351 0 l 1
 33 0 l 1
EndSplineSet
EndChar

StartChar: J
Encoding: 74 74 42
Width: 386
Flags: HMW
HStem: 654 38<43 361 43 361>
VStem: 122 160<146 595>
LayerCount: 2
Fore
SplineSet
6 -83 m 1
 41 -72 62 -60 83 -36 c 0
 106 -10 122 50 122 146 c 2
 122 595 l 2
 122 646 114 651 43 654 c 1
 43 692 l 1
 361 692 l 1
 361 654 l 1
 290 651 282 646 282 595 c 2
 282 143 l 2
 282 30 255 -44 178 -81 c 0
 127 -105 68 -115 12 -114 c 1
 6 -83 l 1
EndSplineSet
EndChar

StartChar: K
Encoding: 75 75 43
Width: 707
Flags: HW
HStem: -6 39.5 0 38<33 351 33 33> 654 38<33 351 33 351>
VStem: 112 160<97 339 359 595> 501 216
LayerCount: 2
Fore
SplineSet
33 0 m 1
 33 38 l 1
 104 41 112 46 112 97 c 2x70
 112 595 l 2
 112 646 104 651 33 654 c 1
 33 692 l 1
 351 692 l 1
 351 654 l 1
 280 651 272 646 272 595 c 2
 272 359 l 1
 377 480 l 2
 428 538 467 589 493 622 c 0
 506 638 503 648 487 650 c 2
 445 656 l 1
 445 692 l 1
 717 692 l 1
 717 656 l 1
 656 651 637 641 602 615 c 0
 531 562 478 500 401 419 c 1
 456 327 552 189 637 92 c 0
 665 60 688 40 709 35 c 2
 719 32 l 1
 719 -6 l 1
 651 -4 l 2xb8
 525 0 478 25 411 119 c 0
 362 189 326 241 274 339 c 1
 272 339 l 1
 272 97 l 2
 272 46 280 41 351 38 c 1
 351 0 l 1
 33 0 l 1
EndSplineSet
EndChar

StartChar: L
Encoding: 76 76 44
Width: 585
Flags: W
HStem: 0 46<284.973 472.529> 0 38<33 105.725> 654 38<33 105.725 278.908 363>
VStem: 112 160<60.517 645.832> 546 38<149.562 201>
LayerCount: 2
Fore
SplineSet
33 0 m 1x78
 33 38 l 1x78
 104 41 112 46 112 97 c 2
 112 595 l 2
 112 646 104 651 33 654 c 1
 33 692 l 1
 363 692 l 1
 363 654 l 1
 280 651 272 646 272 595 c 2
 272 119 l 2
 272 55 299 46 383 46 c 0xb8
 497 46 510 101 546 201 c 1
 584 201 l 1
 572 0 l 1
 33 0 l 1x78
EndSplineSet
EndChar

StartChar: M
Encoding: 77 77 45
Width: 918
Flags: HMW
HStem: 0 38<26 265 26 26> 654 38<23 287>
VStem: 102 62<252 593> 654 152<97 593 593 593>
DStem2: 340 545 167 593 0.350231 -0.936663<-104.836 329.233> 462 238 442 18 0.341612 0.939841<0 398.208>
LayerCount: 2
Fore
SplineSet
26 0 m 1
 26 38 l 1
 61 43 l 2
 84 46 94 61 97 96 c 0
 101 131 102 170 102 252 c 2
 102 595 l 2
 102 646 94 651 23 654 c 1
 23 692 l 1
 287 692 l 1
 300 649 323 590 340 545 c 2
 459 238 l 1
 462 238 l 1
 547 472 l 2
 574 546 608 644 625 692 c 1
 885 692 l 1
 885 654 l 1
 814 651 806 646 806 595 c 2
 806 97 l 2
 806 46 814 41 885 38 c 1
 885 0 l 1
 575 0 l 1
 575 38 l 1
 646 41 654 46 654 97 c 2
 654 593 l 1
 651 593 l 1
 442 18 l 1
 382 18 l 1
 167 593 l 1
 164 593 l 1
 164 252 l 2
 164 171 165 132 169 96 c 0
 172 61 183 45 211 43 c 2
 265 38 l 1
 265 0 l 1
 26 0 l 1
EndSplineSet
EndChar

StartChar: N
Encoding: 78 78 46
Width: 739
Flags: HW
HStem: 0 38<28 63 213 269> 654 38<25 97.7246 478 534 684 719>
VStem: 104 62<52.0505 558> 581 62<216 639.95>
DStem2: 262 692 170 558 0.545305 -0.838238<62.1558 570.772>
LayerCount: 2
Fore
SplineSet
28 0 m 1
 28 38 l 1
 63 43 l 2
 86 46 96 61 99 96 c 0
 103 131 104 170 104 252 c 2
 104 595 l 2
 104 646 96 651 25 654 c 1
 25 692 l 1
 262 692 l 1
 365 533 471 375 577 216 c 1
 581 216 l 1
 581 440 l 2
 581 522 580 560 576 596 c 0
 573 631 562 647 534 649 c 2
 478 654 l 1
 478 692 l 1
 719 692 l 1
 719 654 l 1
 684 649 l 2
 661 646 651 631 648 596 c 0
 644 561 643 522 643 440 c 2
 643 0 l 1
 533 0 l 1
 414 186 293 372 170 558 c 1
 166 558 l 1
 166 252 l 2
 166 170 167 132 171 96 c 0
 174 61 185 45 213 43 c 2
 269 38 l 1
 269 0 l 1
 28 0 l 1
EndSplineSet
EndChar

StartChar: O
Encoding: 79 79 47
Width: 768
Flags: W
HStem: -15 46<311.496 456.891> 661 46<311.109 456.891>
VStem: 42 177<193.704 498.296> 549 177<193.704 498.296>
LayerCount: 2
Back
SplineSet
42 346 m 0
 42 572 154 707 384 707 c 0
 614 707 726 572 726 346 c 0
 726 120 614 -15 384 -15 c 0
 154 -15 42 120 42 346 c 0
219 346 m 0
 221 210 239 31 384 31 c 0
 529 31 547 210 549 346 c 0
 547 474 529 661 384 661 c 0
 239 661 221 474 219 346 c 0
EndSplineSet
Fore
SplineSet
42 346 m 0
 42 572 154 707 384 707 c 0
 614 707 726 572 726 346 c 0
 726 120 614 -15 384 -15 c 0
 154 -15 42 120 42 346 c 0
219 346 m 0
 219 225 239 31 384 31 c 0
 531 31 549 225 549 346 c 0
 549 467 531 661 384 661 c 0
 237 661 219 467 219 346 c 0
EndSplineSet
EndChar

StartChar: P
Encoding: 80 80 48
Width: 650
Flags: W
HStem: 0 38<33 105.725 279.172 368> 275 46<274.866 398.625> 646 46<273.515 399.678> 654 38<33 105.725>
VStem: 112 160<46.1685 275 324.586 642.5> 455 168<390.37 584.522>
LayerCount: 2
Fore
SplineSet
33 0 m 1xdc
 33 38 l 1
 104 41 112 46 112 97 c 2
 112 595 l 2
 112 646 104 651 33 654 c 1
 33 692 l 1xdc
 343 692 l 2xec
 424 692 489 684 538 654 c 0
 587 624 623 569 623 489 c 0
 623 415 596 361 546 325 c 0
 500 292 426 275 332 275 c 2
 272 275 l 1
 272 97 l 2
 272 46 280 41 368 36 c 1
 368 0 l 1
 33 0 l 1xdc
272 364 m 2
 272 326 289 321 328 321 c 0
 429 321 455 410 455 486 c 0
 455 601 398 646 331 646 c 0xec
 280 646 272 637 272 609 c 2
 272 364 l 2
EndSplineSet
EndChar

StartChar: Q
Encoding: 81 81 49
Width: 768
Flags: HW
HStem: -193 46 -2 21G -2 33 661 46<311.5 456.5>
VStem: 42 177<346 346> 549 177<346 346>
LayerCount: 2
Fore
SplineSet
42 346 m 0
 42 572 154 707 384 707 c 0
 614 707 726 572 726 346 c 0
 726 161 650 37 499 -2 c 1
 513 -28 535 -54 559 -79 c 0
 606 -128 655 -147 681 -147 c 2
 692 -147 l 1
 698 -171 l 1
 674 -185 635 -193 594 -193 c 0
 444 -193 352 -83 324 -11 c 1
 136 10 42 140 42 346 c 0
219 346 m 0
 221 210 239 31 384 31 c 0xbc
 529 31 547 210 549 346 c 0
 547 474 529 661 384 661 c 0xdc
 239 661 221 474 219 346 c 0
EndSplineSet
EndChar

StartChar: R
Encoding: 82 82 50
Width: 684
Flags: HW
HStem: 0 38<33 351 33 33> 318 46<272 322 272 318> 646 46<308.5 370> 654 38<33 380>
VStem: 112 160<97 318 364 595 595 607> 455 168<469.5 538.5 469.5 558>
LayerCount: 2
Fore
SplineSet
33 0 m 1
 33 38 l 1
 104 41 112 46 112 97 c 2
 112 595 l 2
 112 646 104 651 33 654 c 1xdc
 33 692 l 1
 380 692 l 2
 478 692 535 673 573 640 c 0
 609 607 623 564 623 513 c 0
 623 426 553 361 454 348 c 1
 454 346 l 1
 557 320 576 254 590 174 c 0
 599 122 614 85 639 60 c 0
 651 48 668 39 686 38 c 1
 686 0 l 1
 612 0 l 2
 507 0 464 26 440 100 c 0
 424 151 416 205 408 240 c 0
 396 294 368 318 318 318 c 2
 272 318 l 1xec
 272 97 l 2
 272 46 280 41 351 38 c 1
 351 0 l 1
 33 0 l 1
272 364 m 1
 322 364 l 2
 423 364 455 424 455 507 c 0
 455 609 404 646 336 646 c 0
 281 646 272 634 272 607 c 2xec
 272 364 l 1
EndSplineSet
EndChar

StartChar: S
Encoding: 83 83 51
Width: 561
Flags: W
HStem: -15 46<197.72 342.845> 499 21G<437 487> 661 46<233.026 368.507>
VStem: 42 37<176.57 226> 51 144<438.261 596.886> 383 150<101.693 207.263> 451 36<499 553.084>
LayerCount: 2
Fore
SplineSet
42 226 m 1xf4
 79 226 l 1
 117 101 193 31 269 31 c 0
 334 31 382 66 383 140 c 0xf4
 383 204 341 249 250 287 c 0
 162 324 51 378 51 502 c 0
 51 620 132 707 300 707 c 0
 361 707 435 695 487 663 c 1
 487 499 l 1
 451 499 l 1
 423 616 363 661 299 661 c 0
 239 661 195 621 195 559 c 0xea
 195 483 278 447 344 420 c 0
 435 382 533 331 533 199 c 0
 533 95 473 -13 273 -15 c 0
 207 -15 108 0 57 47 c 1
 42 226 l 1xf4
EndSplineSet
EndChar

StartChar: T
Encoding: 84 84 52
Width: 624
Flags: W
HStem: 0 38<136 193 431 488> 646 46<112.285 232 392 511.715>
VStem: 15 38<504 557.892> 232 160<45.2625 646> 571 38<504 557.892>
CounterMasks: 1 38
LayerCount: 2
Fore
SplineSet
15 504 m 1
 15 692 l 1
 609 692 l 1
 609 504 l 1
 571 504 l 1
 537 604 524 646 432 646 c 2
 392 646 l 1
 392 95 l 2
 392 59 399 44 431 42 c 2
 488 38 l 1
 488 0 l 1
 136 0 l 1
 136 38 l 1
 193 42 l 2
 225 44 232 59 232 95 c 2
 232 646 l 1
 192 646 l 2
 100 646 87 604 53 504 c 1
 15 504 l 1
EndSplineSet
EndChar

StartChar: U
Encoding: 85 85 53
Width: 786
Flags: HMW
HStem: -15 46<348 439 348 485.5> 654 38<29 341 29 341>
VStem: 105 160<225 595> 521 160<225 595 225 595 225 620.5>
LayerCount: 2
Fore
SplineSet
29 654 m 1
 29 692 l 1
 341 692 l 1
 341 654 l 1
 273 651 265 646 265 595 c 2
 265 211 l 2
 265 97 303 31 393 31 c 0
 485 31 521 97 521 211 c 2
 521 595 l 2
 521 646 513 651 445 654 c 1
 445 692 l 1
 757 692 l 1
 757 654 l 1
 689 651 681 646 681 595 c 2
 681 225 l 2
 679 52 578 -15 393 -15 c 0
 193 -15 105 52 105 225 c 2
 105 595 l 2
 105 646 97 651 29 654 c 1
EndSplineSet
EndChar

StartChar: V
Encoding: 86 86 54
Width: 645
Flags: MW
HStem: 0 21G<262 388 262 262> 0 149<372 377 372 388 262 377> 651.5 40.5
VStem: -16 695<654 692 654 692> 447 232<654 692 654 692>
DStem2: 222 613 60 603 0.317643 -0.94821<-29.7961 487.616> 377 149 388 0 0.322729 0.946491<0 495.625>
LayerCount: 2
Fore
SplineSet
-16 654 m 1xb0
 -16 692 l 1xb0
 287 692 l 1
 287 654 l 1
 239 649 l 2
 216 647 216 634 222 613 c 2
 372 149 l 1
 377 149 l 1
 395 200 440 346 460 407 c 0
 490 500 512 583 520 616 c 0
 525 637 523 647 503 649 c 2
 447 654 l 1
 447 692 l 1x68
 679 692 l 1
 679 654 l 1
 623 650 614 643 594 595 c 0
 579 556 544 459 507 349 c 2
 388 0 l 1
 262 0 l 1
 60 603 l 2
 46 646 35 652 -16 654 c 1xb0
EndSplineSet
EndChar

StartChar: W
Encoding: 87 87 55
Width: 933
Flags: MW
HStem: 0 21G<221 347 221 221 591 718 591 591> 0 159<327 329 327 347 221 329 696 700> 656 36<-10 277 -10 277> 657 20G<453 564 564 564>
VStem: -10 970<656 692 656 692> 807 153
DStem2: 213 611 58 608 0.244554 -0.969636<-26.4168 249.025> 329 159 347 0 0.232805 0.972523<0 332.171> 564 677 468 468 0.246935 -0.969032<178.822 534.554> 700 159 718 0 0.258875 0.965911<0 456.083>
LayerCount: 2
Fore
SplineSet
-10 656 m 1
 -10 692 l 1
 277 692 l 1
 277 656 l 1
 231 649 l 2
 220 648 214 644 211 638 c 1
 209 632 210 623 213 611 c 2xa4
 327 159 l 1
 329 159 l 1
 453 677 l 1
 564 677 l 1x58
 696 159 l 1
 700 159 l 1
 757 384 l 2
 788 509 803 583 807 608 c 0
 811 632 809 645 788 648 c 2
 731 656 l 1
 731 692 l 1xec
 960 692 l 1
 960 656 l 1
 906 649 897 644 883 598 c 0
 868 550 840 455 811 347 c 2
 718 0 l 1
 591 0 l 1
 468 468 l 1
 465 468 l 1
 347 0 l 1
 221 0 l 1
 133 334 l 2
 105 438 80 535 58 608 c 0
 47 644 40 651 -10 656 c 1
EndSplineSet
EndChar

StartChar: X
Encoding: 88 88 56
Width: 634
Flags: W
HStem: 0 38<-19 56.334 184 242 335 386 599.555 671> 654 38<-6 58.926 257 299 398 441 558.194 631>
DStem2: 246 614 83 603 0.516171 -0.856486<-26.1199 192.937 244.56 254.701 310.303 562.98>
LayerCount: 2
Fore
SplineSet
-19 0 m 1
 -19 38 l 1
 46 42 53 47 85 89 c 0
 129 148 195 249 249 330 c 1
 191 428 135 520 83 603 c 0
 57 645 49 649 -6 654 c 1
 -6 692 l 1
 299 692 l 1
 299 654 l 1
 257 649 l 2
 238 646 234 634 246 614 c 2
 346 449 l 1
 348 449 l 1
 387 511 424 565 451 618 c 0
 461 637 454 645 441 647 c 2
 398 654 l 1
 398 692 l 1
 631 692 l 1
 631 654 l 1
 580 651 561 646 530 608 c 0
 490 558 432 479 381 401 c 1
 441 305 503 202 568 98 c 0
 598 49 608 41 671 38 c 1
 671 0 l 1
 335 0 l 1
 335 38 l 1
 386 44 l 2
 409 47 409 61 400 77 c 2
 283 274 l 1
 279 274 l 1
 237 205 190 125 168 77 c 0
 159 57 164 44 184 42 c 2
 242 38 l 1
 242 0 l 1
 -19 0 l 1
EndSplineSet
EndChar

StartChar: Y
Encoding: 89 89 57
Width: 617
Flags: W
HStem: 0 38<142 230.828 405.172 494> 654 38<-12 48.0581 250 304 414 466 590.134 655>
VStem: 238 160<46.1685 308.994>
DStem2: 359 342 217 309 0.449693 -0.893183<-322.188 0>
LayerCount: 2
Fore
SplineSet
-12 654 m 1
 -12 692 l 1
 304 692 l 1
 304 654 l 1
 250 648 l 2
 228 645 229 631 236 615 c 2
 359 342 l 1
 362 342 l 1
 402 432 455 540 481 608 c 0
 491 634 485 646 466 648 c 2
 414 654 l 1
 414 692 l 1
 655 692 l 1
 655 654 l 1
 601 648 584 640 561 600 c 0
 514 518 463 416 416 321 c 0
 405 298 398 278 398 250 c 2
 398 97 l 2
 398 46 406 41 494 38 c 1
 494 0 l 1
 142 0 l 1
 142 38 l 1
 230 41 238 46 238 97 c 2
 238 240 l 2
 238 265 227 289 217 309 c 2
 72 597 l 2
 49 643 40 650 -12 654 c 1
EndSplineSet
EndChar

StartChar: Z
Encoding: 90 90 58
Width: 614
Flags: MW
HStem: 0 46<196 475.218> 646 46<165.188 407>
VStem: 58 38<496 560.856> 568 38<160.93 209>
DStem2: 0 22 196 46 0.547574 0.836757<127.407 744.999>
LayerCount: 2
Fore
SplineSet
0 22 m 1
 138 229 272 437 407 646 c 1
 280 646 l 2
 158 646 120 612 96 496 c 1
 58 496 l 1
 58 692 l 1
 592 692 l 1
 605 671 l 1
 468 463 331 256 196 46 c 1
 357 46 l 2
 505 46 530 97 568 209 c 1
 606 209 l 1
 594 0 l 1
 13 0 l 1
 0 22 l 1
EndSplineSet
EndChar

StartChar: bracketleft
Encoding: 91 91 59
Width: 335
Flags: HMW
HStem: -128 37.5 654.5 37.5
VStem: 123 94<-54.5 -40 -40 604>
LayerCount: 2
Fore
SplineSet
123 -128 m 1
 123 692 l 1
 308 692 l 1
 308 658 l 1
 248 651 l 2
 221 648 217 633 217 604 c 2
 217 -40 l 2
 217 -69 221 -84 248 -87 c 2
 308 -94 l 1
 308 -128 l 1
 123 -128 l 1
EndSplineSet
EndChar

StartChar: backslash
Encoding: 92 92 60
Width: 379
Flags: MW
HStem: -15 21G<245 245 245 345> 687 20G<34 134 134 134>
VStem: 34 311
DStem2: 134 707 34 707 0.28051 -0.959851<0 724.149>
LayerCount: 2
Fore
SplineSet
34 707 m 1
 134 707 l 1
 345 -15 l 1
 245 -15 l 1
 34 707 l 1
EndSplineSet
EndChar

StartChar: bracketright
Encoding: 93 93 61
Width: 335
Flags: HMW
HStem: -128 37.5 654.5 37.5
VStem: 118 94<-40 604 604 618.5>
LayerCount: 2
Fore
SplineSet
27 -94 m 1
 87 -87 l 2
 114 -84 118 -69 118 -40 c 2
 118 604 l 2
 118 633 114 648 87 651 c 2
 27 658 l 1
 27 692 l 1
 212 692 l 1
 212 -128 l 1
 27 -128 l 1
 27 -94 l 1
EndSplineSet
EndChar

StartChar: asciicircum
Encoding: 94 94 62
Width: 600
Flags: HW
HStem: 556 112<302 302> 648 20G<253 352 352 352>
VStem: 56 488<215 215>
LayerCount: 2
Fore
SplineSet
56 215 m 1
 253 668 l 1
 352 668 l 1
 544 215 l 1x60
 440 215 l 1
 302 556 l 1xa0
 160 215 l 1
 56 215 l 1
EndSplineSet
EndChar

StartChar: underscore
Encoding: 95 95 63
Width: 500
Flags: HMW
HStem: -125 50<0 500 0 500>
VStem: 0 500<-125 -75 -125 -75>
LayerCount: 2
Fore
SplineSet
0 -75 m 1
 500 -75 l 1
 500 -125 l 1
 0 -125 l 1
 0 -75 l 1
EndSplineSet
EndChar

StartChar: quoteleft
Encoding: 8216 8216 64
Width: 252
Flags: HMW
HStem: 672 20G<212 212>
VStem: 40 116<472 594.5>
LayerCount: 2
Back
SplineSet
40 505 m 0
 40 590 122 669 184 719 c 1
 212 692 l 1
 179 656 156 617 156 572 c 0
 156 528 193 509 193 466 c 0
 193 431 170 399 125 399 c 0
 78 398 40 439 40 505 c 0
EndSplineSet
Fore
Refer: 7 8217 N -1 0 0 -1 252 1106 2
EndChar

StartChar: a
Encoding: 97 97 65
Width: 544
Flags: HMW
HStem: -12 78<141.5 282.5> 456 46<259 287.5>
VStem: 41 154<123.5 161.5> 331 147<134 279 279 279 329 362>
LayerCount: 2
Fore
SplineSet
41 133 m 0
 41 190 68 231 147 258 c 0
 212 280 296 305 331 329 c 1
 331 382 l 2
 331 439 302 456 273 456 c 0
 245 456 213 441 185 356 c 0
 177 332 166 316 144 316 c 0
 118 316 54 334 54 379 c 0
 54 444 144 502 291 502 c 0
 468 502 478 424 478 362 c 2
 478 131 l 2
 478 72 497 60 510 56 c 0
 525 51 545 50 558 51 c 1
 561 18 l 1
 528 5 465 -12 413 -12 c 0
 365 -12 348 15 335 46 c 1
 300 23 256 -12 192 -12 c 0
 91 -12 41 58 41 133 c 0
195 150 m 0
 195 97 230 66 269 66 c 0
 296 66 329 80 331 134 c 2
 331 279 l 1
 307 268 272 254 241 237 c 0
 211 220 195 197 195 150 c 0
EndSplineSet
EndChar

StartChar: b
Encoding: 98 98 66
Width: 605
Flags: HMW
HStem: -12 46<286.5 348.5 286.5 380.5> 425 77<289.5 434> 722 20G<218 218>
VStem: 74 151<144.5 154 154 312 433 621 621 641> 412 159<174 318.5>
LayerCount: 2
Fore
SplineSet
15 679 m 1
 15 715 l 1
 218 742 l 1
 225 736 l 1
 225 433 l 1
 272 469 321 502 384 502 c 0
 484 502 571 425 571 262 c 0
 571 36 452 -12 309 -12 c 0
 244 -12 196 3 160 22 c 1
 106 -12 l 1
 74 6 l 1
 74 621 l 2
 74 661 66 670 50 673 c 2
 15 679 l 1
225 154 m 2
 225 135 226 113 229 98 c 0
 236 61 262 34 311 34 c 0
 386 34 412 111 412 237 c 0
 412 400 361 425 312 425 c 0
 267 425 244 402 231 368 c 0
 226 354 225 333 225 312 c 2
 225 154 l 2
EndSplineSet
EndChar

StartChar: c
Encoding: 99 99 67
Width: 494
Flags: HMW
HStem: -12 77<288.5 310.5> 456 46<257 295.5>
VStem: 34 159<187 284.5>
LayerCount: 2
Fore
SplineSet
34 241 m 0
 34 328 60 393 102 435 c 0
 147 480 209 502 287 502 c 4
 378 502 478 463 478 392 c 4
 478 348 430 330 395 330 c 4
 369 330 354 342 347 365 c 4
 330 425 313 456 278 456 c 4
 236 456 193 399 193 265 c 0
 193 109 256 65 321 65 c 4
 376 65 415 88 449 156 c 5
 484 140 l 5
 445 16 352 -12 269 -12 c 4
 128 -12 34 73 34 241 c 0
EndSplineSet
EndChar

StartChar: d
Encoding: 100 100 68
Width: 605
Flags: W
HStem: -12 77<171.5 315.714> 0 38<535.032 596> 456 46<248.493 360.127> 679 36<321 356> 722 20G<373.63 531>
VStem: 34 159<129.306 357.755> 380 151<42.9511 50 86.0404 435.729 489 672.536>
LayerCount: 2
Fore
SplineSet
34 236 m 0xbe
 34 326 62 393 109 437 c 0
 155 480 221 502 296 502 c 0
 330 502 358 498 380 489 c 1
 380 621 l 2
 380 661 372 670 356 673 c 2
 321 679 l 1
 321 715 l 1
 524 742 l 1
 531 736 l 1
 531 87 l 2
 531 45 539 41 596 38 c 1
 596 0 l 1
 380 0 l 1x7e
 380 50 l 1
 326 7 272 -12 235 -12 c 0
 108 -12 34 90 34 236 c 0xbe
193 256 m 0
 193 128 237 65 302 65 c 0xbe
 366 65 380 112 380 152 c 2
 380 358 l 2
 380 379 380 402 372 417 c 0
 362 437 342 456 304 456 c 0
 248 456 193 403 193 256 c 0
EndSplineSet
EndChar

StartChar: e
Encoding: 101 101 69
Width: 519
Flags: HMW
HStem: -12 77<279 338.5> 252 48<193 317 317 328.5 193 451 193 317> 456 46<244.5 307.5>
VStem: 34 159<199.5 252 300 315> 348 157<319.5 335 278 356.5>
LayerCount: 2
Back
SplineSet
34 245 m 0
 34 385 101 502 281 502 c 0
 474 502 505 376 505 294 c 0
 505 262 487 252 451 252 c 2
 193 252 l 1
 193 147 227 65 327 65 c 0
 388 65 431 97 461 154 c 1
 497 134 l 1
 463 46 398 -12 279 -12 c 0
 93 -13 34 109 34 245 c 0
193 300 m 1
 317 300 l 2
 340 300 348 306 348 333 c 0
 348 380 338 456 277 456 c 0
 212 456 193 372 193 300 c 1
EndSplineSet
Fore
SplineSet
34 245 m 0
 34 385 101 502 281 502 c 0
 474 502 505 376 505 294 c 0
 505 262 487 252 451 252 c 2
 193 252 l 1
 193 147 227 65 327 65 c 0
 388 65 431 97 461 154 c 1
 497 134 l 1
 463 46 398 -12 279 -12 c 0
 93 -12 34 109 34 245 c 0
193 300 m 1
 317 300 l 2
 340 300 348 306 348 333 c 0
 348 380 338 456 277 456 c 0
 212 456 193 372 193 300 c 1
EndSplineSet
EndChar

StartChar: f
Encoding: 102 102 70
Width: 342
Flags: HMW
HStem: 0 38<27 322 27 27> 440 50<29 92 29 92 243 346> 696 46<239 253>
VStem: 92 151<87 440 490 514>
LayerCount: 2
Fore
SplineSet
27 0 m 1
 27 38 l 1
 84 41 92 45 92 87 c 2
 92 440 l 1
 29 440 l 1
 29 490 l 1
 92 490 l 1
 92 533 l 2
 92 670 162 742 273 742 c 0
 383 742 421 686 421 649 c 0
 421 615 380 591 348 591 c 0
 324 591 313 603 303 621 c 0
 273 677 261 696 245 696 c 0
 233 696 221 685 221 659 c 0
 221 622 243 538 243 490 c 1
 346 490 l 1
 346 440 l 1
 243 440 l 1
 243 87 l 2
 243 45 251 41 322 38 c 1
 322 0 l 1
 27 0 l 1
EndSplineSet
EndChar

StartChar: g
Encoding: 103 103 71
Width: 533
Flags: HW
HStem: -242 46<253.5 294> -16 121<251 315.5> 174 46<254 288 243.5 319> 456 46<246 285.5>
VStem: 25 135<-121.5 -72 -121.5 -62.5> 34 156<300.5 371> 49 125<73 150> 340 143<300.5 351 276.5 378> 411 121<-88 -65.5>
LayerCount: 2
Fore
SplineSet
25 -96 m 0xf880
 25 -29 99 -10 141 -1 c 1
 141 1 l 1
 97 11 49 51 49 95 c 0xf280
 49 135 91 171 156 187 c 1
 156 189 l 1
 95 199 34 249 34 332 c 0xf480
 34 410 87 502 267 502 c 0
 321 502 377 488 410 469 c 1
 535 512 l 1
 546 501 l 1
 526 426 l 1
 460 414 l 1
 473 397 483 366 483 336 c 0
 483 217 378 174 260 174 c 0
 248 174 233 174 214 176 c 1
 200 173 174 161 174 139 c 0
 174 121 192 105 241 105 c 2xf780
 334 105 l 2
 439 105 532 68 532 -52 c 0
 532 -124 494 -176 439 -205 c 0
 389 -232 316 -242 272 -242 c 0
 129 -242 25 -194 25 -96 c 0xf880
160 -86 m 0
 160 -157 220 -196 287 -196 c 0
 354 -196 411 -167 411 -96 c 0xf880
 411 -35 358 -16 273 -16 c 0
 229 -16 199 -22 185 -31 c 0
 171 -41 160 -58 160 -86 c 0
190 335 m 0xf5
 190 266 222 220 265 220 c 0
 311 220 340 265 340 336 c 0
 340 420 305 456 266 456 c 0
 226 456 190 420 190 335 c 0xf5
EndSplineSet
EndChar

StartChar: h
Encoding: 104 104 72
Width: 631
Flags: W
HStem: 0 38<19 79.9676 267 288 353 374 561.032 622> 425 77<317.574 456.5> 679 36<25 60> 722 20G<77.6296 235>
VStem: 84 151<42.9556 393.529 433 672.536> 406 151<42.9556 399.962>
LayerCount: 2
Back
SplineSet
19 0 m 1
 19 38 l 1
 76 41 84 45 84 87 c 2
 84 621 l 2
 84 661 76 670 60 673 c 2
 25 679 l 1
 25 715 l 1
 228 742 l 1
 235 736 l 1
 235 433 l 1
 297 472 344 502 404 502 c 0
 509 502 556 442 557 348 c 2
 557 87 l 2
 557 45 565 41 622 38 c 1
 622 0 l 1
 353 0 l 1
 353 38 l 1
 374 40 l 2
 395 42 406 47 406 80 c 2
 406 334 l 2
 404 394 378 425 327 425 c 0
 285 425 258 402 245 376 c 0
 238 362 235 339 235 317 c 2
 235 80 l 2
 235 47 246 42 267 40 c 2
 288 38 l 1
 288 0 l 1
 19 0 l 1
EndSplineSet
Fore
SplineSet
19 0 m 1
 19 38 l 1
 76 41 84 45 84 87 c 2
 84 621 l 2
 84 661 76 670 60 673 c 2
 25 679 l 1
 25 715 l 1
 228 742 l 1
 235 736 l 1
 235 433 l 1
 297 472 344 502 404 502 c 0
 509 502 557 441 557 347 c 6
 557 87 l 2
 557 45 565 41 622 38 c 1
 622 0 l 1
 353 0 l 1
 353 38 l 1
 374 40 l 2
 395 42 406 47 406 80 c 2
 406 332 l 2
 406 392 378 425 327 425 c 0
 285 425 258 402 245 376 c 0
 238 362 235 339 235 317 c 2
 235 80 l 2
 235 47 246 42 267 40 c 2
 288 38 l 1
 288 0 l 1
 19 0 l 1
EndSplineSet
EndChar

StartChar: k
Encoding: 107 107 75
Width: 582
Flags: HMW
HStem: 0 38<19 300 19 19> 458 32<430 575> 722 20G<228 228>
VStem: 84 151<87 254 272 621 621 641>
LayerCount: 2
Fore
SplineSet
19 0 m 1
 19 38 l 1
 76 41 84 45 84 87 c 2
 84 621 l 2
 84 661 76 670 60 673 c 2
 25 679 l 1
 25 715 l 1
 228 742 l 1
 235 736 l 1
 235 272 l 1
 237 272 l 1
 309 374 l 2
 332 406 352 435 371 460 c 0
 389 482 408 490 430 490 c 2
 575 490 l 1
 575 458 l 1
 491 440 430 396 377 345 c 2
 355 323 l 1
 408 239 464 161 531 86 c 0
 561 52 574 40 595 32 c 1
 595 0 l 1
 505 0 l 2
 432 0 392 13 357 59 c 0
 311 120 271 188 237 254 c 1
 235 254 l 1
 235 87 l 2
 235 45 243 41 300 38 c 1
 300 0 l 1
 19 0 l 1
EndSplineSet
EndChar

StartChar: l
Encoding: 108 108 76
Width: 309
Flags: HMW
HStem: 0 38<19 300 19 19> 722 20G<228 228>
VStem: 84 151<87 621 621 641>
LayerCount: 2
Fore
SplineSet
19 0 m 1
 19 38 l 1
 76 41 84 45 84 87 c 2
 84 621 l 2
 84 661 76 670 60 673 c 2
 25 679 l 1
 25 715 l 1
 228 742 l 1
 235 736 l 1
 235 87 l 2
 235 45 243 41 300 38 c 1
 300 0 l 1
 19 0 l 1
EndSplineSet
EndChar

StartChar: m
Encoding: 109 109 77
Width: 948
Flags: W
HStem: 0 38<26 86.9676 274 295 354 375 590 611 670 691 878.032 939> 425 77<320.722 445.5 632.878 771> 437 36<32 67>
VStem: 91 151<42.9556 389.819> 407 151<41.6062 390.935> 723 151<42.9556 399.575>
CounterMasks: 1 1c
LayerCount: 2
Back
SplineSet
26 0 m 1
 26 38 l 1
 83 41 91 45 91 87 c 2
 91 381 l 2
 91 421 83 430 67 432 c 2
 32 437 l 1
 32 473 l 1
 229 502 l 1
 242 433 l 1
 297 468 343 502 408 502 c 0
 483 502 524 463 544 427 c 1
 587 454 649 502 718 502 c 0
 824 502 873 442 874 347 c 2
 874 87 l 2
 874 45 882 41 939 38 c 1
 939 0 l 1
 670 0 l 1
 670 38 l 1
 691 40 l 2
 712 42 723 47 723 80 c 2
 723 329 l 2
 721 392 692 426 645 425 c 0
 609 425 575 403 562 354 c 0
 559 342 558 322 558 306 c 2
 558 80 l 2
 558 47 569 42 590 40 c 2
 611 38 l 1
 611 0 l 1
 354 0 l 1
 354 38 l 1
 375 40 l 2
 396 42 407 47 407 80 c 2
 407 329 l 2
 406 386 384 425 335 425 c 0
 294 425 258 402 246 353 c 0
 243 340 242 322 242 306 c 2
 242 80 l 2
 242 47 253 42 274 40 c 2
 295 38 l 1
 295 0 l 1
 26 0 l 1
EndSplineSet
Fore
SplineSet
26 0 m 1xdc
 26 38 l 1
 83 41 91 45 91 87 c 2
 91 381 l 2
 91 421 83 430 67 432 c 2
 32 437 l 1
 32 473 l 1xbc
 229 502 l 1
 242 433 l 1
 297 468 343 502 408 502 c 0
 483 502 524 463 544 427 c 1
 587 454 649 502 718 502 c 0
 824 502 874 440 874 347 c 2
 874 87 l 2
 874 45 882 41 939 38 c 1
 939 0 l 1
 670 0 l 1
 670 38 l 1
 691 40 l 2
 712 42 723 47 723 80 c 2
 723 329 l 2
 723 384 697 425 648 425 c 0
 603 425 558 397 558 310 c 2
 558 80 l 2
 558 47 569 42 590 40 c 2
 611 38 l 1
 611 0 l 1
 354 0 l 1
 354 38 l 1
 375 40 l 2
 396 42 407 47 407 80 c 2
 407 329 l 2
 407 384 384 425 335 425 c 0
 290 425 242 397 242 310 c 2
 242 80 l 2
 242 47 253 42 274 40 c 2
 295 38 l 1
 295 0 l 1
 26 0 l 1xdc
EndSplineSet
EndChar

StartChar: n
Encoding: 110 110 78
Width: 638
Flags: HMW
HStem: 0 38<26 295 26 26> 425 77
VStem: 91 151<87 317> 413 151<80 87 87 334 334 334>
LayerCount: 2
Fore
SplineSet
26 0 m 1
 26 38 l 1
 83 41 91 45 91 87 c 2
 91 381 l 2
 91 421 83 430 67 432 c 2
 32 437 l 1
 32 473 l 1
 229 502 l 1
 242 433 l 1
 308 472 355 502 413 502 c 0
 516 502 563 442 564 348 c 2
 564 87 l 2
 564 45 572 41 629 38 c 1
 629 0 l 1
 360 0 l 1
 360 38 l 1
 381 40 l 2
 402 42 413 47 413 80 c 2
 413 334 l 2
 411 394 385 425 334 425 c 0
 292 425 265 402 252 376 c 0
 245 362 242 339 242 317 c 2
 242 80 l 2
 242 47 253 42 274 40 c 2
 295 38 l 1
 295 0 l 1
 26 0 l 1
EndSplineSet
EndChar

StartChar: o
Encoding: 111 111 79
Width: 585
Flags: W
HStem: -12 46<241.452 344.548> 456 46<241.452 344.548>
VStem: 34 159<119.699 370.301> 393 159<119.699 370.301>
LayerCount: 2
Back
SplineSet
34 245 m 0
 34 405 111 502 293 502 c 0
 474 502 551 405 551 245 c 0
 551 85 474 -12 293 -12 c 0
 111 -12 34 85 34 245 c 0
193 245 m 0
 193 111 222 34 293 34 c 0
 363 34 392 111 392 245 c 0
 392 379 363 456 293 456 c 0
 222 456 193 379 193 245 c 0
EndSplineSet
Fore
SplineSet
34 245 m 0
 34 405 111 502 293 502 c 0
 475 502 552 405 552 245 c 0
 552 85 475 -12 293 -12 c 0
 111 -12 34 85 34 245 c 0
193 245 m 0
 193 111 222 34 293 34 c 0
 364 34 393 111 393 245 c 0
 393 379 364 456 293 456 c 0
 222 456 193 379 193 245 c 0
EndSplineSet
EndChar

StartChar: p
Encoding: 112 112 80
Width: 615
Flags: W
HStem: -230 38<19 79.9676 240.102 318> -12 46<260.503 374.213> 425 77<307.099 447> 437 36<25 60>
VStem: 84 151<-185.368 0 60.4648 393.044> 422 159<123.296 371.906>
LayerCount: 2
Fore
SplineSet
19 -192 m 1xec
 76 -189 84 -185 84 -143 c 2
 84 381 l 2
 84 421 76 430 60 432 c 2
 25 437 l 1
 25 473 l 1xdc
 217 502 l 1
 235 433 l 1
 284 470 330 502 400 502 c 0
 494 502 581 425 581 259 c 0
 581 40 462 -12 314 -12 c 0
 287 -12 252 -7 235 0 c 1
 235 -143 l 2
 235 -185 245 -189 318 -192 c 1
 318 -230 l 1
 19 -230 l 1
 19 -192 l 1xec
235 152 m 2
 235 133 236 116 239 101 c 0
 248 57 274 34 318 34 c 0
 395 34 422 113 422 237 c 0
 422 399 369 425 322 425 c 0xec
 280 425 255 402 242 365 c 0
 237 351 235 331 235 310 c 2
 235 152 l 2
EndSplineSet
EndChar

StartChar: q
Encoding: 113 113 81
Width: 597
Flags: HMW
HStem: -230 38<305 596 305 305> -12 77<174 334> 456 46<274 325>
VStem: 34 159<192 282.5> 380 151<-143 47 47 47 152 353 353 362.5>
LayerCount: 2
Fore
SplineSet
34 235 m 0
 34 330 63 393 108 437 c 0
 152 480 222 502 301 502 c 0
 358 502 407 489 441 471 c 1
 484 502 l 1
 531 502 l 1
 531 -143 l 2
 531 -185 539 -189 596 -192 c 1
 596 -230 l 1
 305 -230 l 1
 305 -192 l 1
 372 -189 380 -185 380 -143 c 2
 380 47 l 1
 328 1 284 -12 237 -12 c 0
 111 -12 34 89 34 235 c 0
193 256 m 0
 193 128 236 65 301 65 c 0
 367 65 380 112 380 152 c 2
 380 353 l 2
 380 372 380 390 376 403 c 0
 367 435 345 456 305 456 c 0
 243 456 193 391 193 256 c 0
EndSplineSet
EndChar

StartChar: r
Encoding: 114 114 82
Width: 440
Flags: HW
HStem: 0 38<26 328 26 26> 349 153<365.5 385> 482 20G<227 227 351 393>
VStem: 91 151<87 311>
LayerCount: 2
Fore
SplineSet
26 0 m 1
 26 38 l 1
 83 41 91 45 91 87 c 2
 91 381 l 2
 91 421 83 430 67 432 c 2
 32 437 l 1
 32 473 l 1
 227 502 l 1
 239 414 l 1
 297 475 330 502 372 502 c 0
 414 502 442 475 442 432 c 0
 442 410 437 390 426 375 c 0
 415 360 395 349 375 349 c 0
 356 349 342 357 329 365 c 0
 307 378 292 386 276 386 c 0
 252 386 242 363 242 311 c 2xf0
 242 87 l 2
 242 45 251 42 328 38 c 1
 328 0 l 1
 26 0 l 1
EndSplineSet
EndChar

StartChar: s
Encoding: 115 115 83
Width: 446
Flags: W
HStem: -12 46<160.221 275.165> 456 46<191.363 298.074>
VStem: 38 38<140.615 185> 43 135<307.5 425.906> 290 135<68.461 194> 354 37<334 385.125>
LayerCount: 2
Fore
SplineSet
38 185 m 1xe8
 76 185 l 1
 102 103 155 34 221 34 c 0
 265 34 290 57 290 95 c 0xe8
 290 143 241 172 190 190 c 0
 102 223 43 271 43 344 c 0
 43 445 119 502 241 502 c 0
 293 502 350 492 391 467 c 1
 391 334 l 1
 354 334 l 1
 335 410 292 456 241 456 c 0
 200 456 178 429 178 398 c 0xd4
 178 358 221 334 279 313 c 0
 371 278 425 237 425 151 c 0
 425 43 341 -12 219 -12 c 0
 163 -12 88 1 50 36 c 1
 38 185 l 1xe8
EndSplineSet
EndChar

StartChar: t
Encoding: 116 116 84
Width: 370
Flags: W
HStem: -12 75<186 309.002> 440 50<32 90 241 345>
VStem: 90 151<81.7119 440>
LayerCount: 2
Fore
SplineSet
32 440 m 1
 32 490 l 1
 95 490 l 1
 183 616 l 1
 241 616 l 1
 241 490 l 1
 345 490 l 1
 345 440 l 1
 241 440 l 1
 241 155 l 2
 241 91 267 63 305 63 c 0
 327 63 348 67 362 73 c 1
 373 42 l 1
 317 7 255 -12 214 -12 c 0
 158 -12 90 26 90 117 c 2
 90 440 l 1
 32 440 l 1
EndSplineSet
EndChar

StartChar: u
Encoding: 117 117 85
Width: 629
Flags: W
HStem: -12 79<191 323.621> 0 38<559.032 620> 437 36<23 58 345 380> 482 20G<86 233 408 555>
VStem: 82 151<93.9193 431.67> 404 151<92.9075 431.67>
LayerCount: 2
Fore
SplineSet
23 437 m 1xbc
 23 473 l 1
 226 502 l 1
 233 496 l 1
 233 176 l 2
 233 98 264 67 317 67 c 0xbc
 361 67 387 91 396 114 c 0
 402 129 404 153 404 170 c 2
 404 381 l 2
 404 421 396 430 380 432 c 2
 345 437 l 1
 345 473 l 1
 548 502 l 1
 555 496 l 1
 555 87 l 2
 555 45 563 41 620 38 c 1
 620 0 l 1
 412 0 l 1x7c
 404 56 l 1
 364 34 312 -12 227 -12 c 0
 155 -12 82 21 82 138 c 2
 82 381 l 2
 82 421 74 430 58 432 c 2
 23 437 l 1xbc
EndSplineSet
EndChar

StartChar: v
Encoding: 118 118 86
Width: 520
Flags: MW
HStem: 0 21G<200.744 325.373> 452 38<-8 42.5377 220 257 339 382 492.278 546>
DStem2: 304 132 130 215 0.34709 -0.937832<-325.84 0> 308 132 318 0 0.30404 0.952659<0 275.361>
LayerCount: 2
Fore
SplineSet
-8 452 m 1
 -8 490 l 1
 257 490 l 1
 257 452 l 1
 220 447 l 2
 202 445 200 437 206 418 c 2
 304 132 l 1
 308 132 l 1
 342 233 374 324 398 414 c 0
 403 433 400 444 382 446 c 2
 339 452 l 1
 339 490 l 1
 546 490 l 1
 546 452 l 1
 505 449 494 444 477 409 c 0
 459 373 432 310 405 236 c 2
 318 0 l 1
 208 0 l 1
 130 215 l 2
 106 280 83 344 57 408 c 0
 44 440 31 449 -8 452 c 1
EndSplineSet
EndChar

StartChar: w
Encoding: 119 119 87
Width: 774
Flags: MW
HStem: 0 21G<185 295 185 185 490 600 490 490> 0 142<280 283 280 295 185 283 584 588> 452 38<-10 250 -10 250>
VStem: -10 211 595 207<452 490 452 490>
DStem2: 204 417 101 265 0.266378 -0.963869<-26.5762 285.309> 283 142 295 0 0.258181 0.966097<0 185.999> 481 490 390 307 0.283807 -0.958881<149.649 362.923>
LayerCount: 2
Fore
SplineSet
-10 452 m 1
 -10 490 l 1xb8
 250 490 l 1
 250 452 l 1
 222 449 l 2
 202 447 198 439 204 417 c 2
 280 142 l 1
 283 142 l 1
 376 490 l 1
 481 490 l 1
 584 142 l 1
 588 142 l 1x78
 613 236 646 363 655 413 c 0
 658 432 656 443 638 446 c 2
 595 452 l 1
 595 490 l 1
 802 490 l 1
 802 452 l 1
 751 448 744 441 729 402 c 0
 714 366 693 303 672 234 c 2
 600 0 l 1
 490 0 l 1
 390 307 l 1
 386 307 l 1
 295 0 l 1
 185 0 l 1
 101 265 l 2
 81 328 75 348 53 409 c 0
 41 443 30 448 -10 452 c 1
EndSplineSet
EndChar

StartChar: x
Encoding: 120 120 88
Width: 522
Flags: W
HStem: 0 38<-15 53.0477 171 206 272 294 490.085 550> 452 38<-6 52.5192 231 254 318 344 448.921 516>
DStem2: 287 332 201 227 0.568344 -0.822791<-127.505 0 94.1192 246.503>
LayerCount: 2
Fore
SplineSet
-15 0 m 1
 -15 38 l 1
 37 44 55 51 87 87 c 0
 126 131 162 178 201 227 c 1
 151 294 109 360 68 415 c 0
 48 442 38 447 -6 452 c 1
 -6 490 l 1
 254 490 l 1
 254 452 l 1
 231 448 l 2
 219 446 218 437 225 427 c 2
 287 332 l 1
 289 332 l 1
 349 421 l 2
 361 438 358 447 344 449 c 2
 318 452 l 1
 318 490 l 1
 516 490 l 1
 516 452 l 1
 475 451 454 441 430 417 c 0
 395 381 358 340 320 289 c 1
 367 220 414 152 462 87 c 0
 491 50 507 41 550 38 c 1
 550 0 l 1
 272 0 l 1
 272 38 l 1
 294 41 l 2
 311 43 318 52 307 69 c 2
 234 181 l 1
 232 181 l 1
 163 73 l 2
 151 55 155 45 171 43 c 2
 206 38 l 1
 206 0 l 1
 -15 0 l 1
EndSplineSet
EndChar

StartChar: y
Encoding: 121 121 89
Width: 524
Flags: W
HStem: -242 108<102.836 205.249> 452 38<-12 21 230 268 356 397 536 557>
DStem2: 218 413 59 406 0.373272 -0.927722<-26.6276 296.535>
LayerCount: 2
Fore
SplineSet
-12 452 m 1
 -12 490 l 1
 268 490 l 1
 268 452 l 1
 230 446 l 2
 214 444 211 433 218 413 c 0
 249 319 286 226 319 134 c 1
 321 134 l 1
 352 228 384 321 412 416 c 0
 417 435 411 444 397 446 c 2
 356 452 l 1
 356 490 l 1
 557 490 l 1
 557 452 l 1
 536 450 l 2
 508 447 497 428 479 385 c 0
 420 242 360 95 302 -60 c 0
 248 -204 202 -242 133 -242 c 0
 95 -242 52 -218 52 -179 c 0
 52 -141 84 -98 116 -98 c 0
 133 -98 142 -105 161 -119 c 0
 173 -129 186 -134 197 -134 c 0
 221 -134 230 -108 236 -85 c 0
 241 -65 238 -39 230 -19 c 0
 177 119 117 267 59 406 c 0
 48 433 36 444 21 447 c 2
 -12 452 l 1
EndSplineSet
EndChar

StartChar: z
Encoding: 122 122 90
Width: 483
Flags: W
HStem: 0 46<187 382.087> 444 46<124.401 288>
VStem: 43 39<322 387.074> 442 38<125.803 180>
DStem2: -1 21 187 46 0.563216 0.82631<126.542 512.298>
LayerCount: 2
Fore
SplineSet
-1 21 m 1
 97 162 194 303 288 444 c 1
 206 444 l 2
 111 444 102 405 82 322 c 1
 43 322 l 1
 43 490 l 1
 465 490 l 1
 476 470 l 1
 378 329 281 187 187 46 c 1
 284 46 l 2
 388 46 413 77 442 180 c 1
 480 180 l 1
 468 0 l 1
 11 0 l 1
 -1 21 l 1
EndSplineSet
EndChar

StartChar: braceleft
Encoding: 123 123 91
Width: 365
Flags: HW
HStem: -128 34<284 325> 265 34<74 112.5> 658 34<284 325>
VStem: 74 90<279 285 279 299 279 299> 147 100 164 97
LayerCount: 2
Fore
SplineSet
74 265 m 1xf0
 74 299 l 1
 173 299 168 340 160 411 c 2xe4
 150 505 l 2
 141 588 142 692 284 692 c 2
 325 692 l 1xe8
 325 658 l 1
 244 654 240 607 247 539 c 2xe8
 255 462 l 2
 263 382 282 309 164 285 c 1
 164 279 l 1
 282 255 263 182 255 102 c 2xe4
 247 25 l 2
 240 -43 244 -90 325 -94 c 1
 325 -128 l 1
 284 -128 l 2xe8
 142 -128 141 -24 150 59 c 2
 160 153 l 2xe4
 168 224 151 265 74 265 c 1xf0
EndSplineSet
EndChar

StartChar: bar
Encoding: 124 124 92
Width: 284
Flags: MW
HStem: -250 1000<94 190 94 190>
VStem: 94 96<-250 750 -250 750>
LayerCount: 2
Fore
SplineSet
94 -250 m 1
 94 750 l 1
 190 750 l 1
 190 -250 l 1
 94 -250 l 1
EndSplineSet
EndChar

StartChar: braceright
Encoding: 125 125 93
Width: 365
Flags: HW
HStem: -128 34<40 81 40 40> 265 34<252.5 291> 658 34<40 81>
VStem: 104 97 118 100 201 90<279 285 285 285>
LayerCount: 2
Fore
SplineSet
40 -94 m 1
 121 -90 125 -43 118 25 c 2xe8
 110 102 l 2
 102 182 83 255 201 279 c 1
 201 285 l 1
 83 309 102 382 110 462 c 2xf0
 118 539 l 2
 125 607 121 654 40 658 c 1xe8
 40 692 l 1
 81 692 l 2xe8
 223 692 224 588 215 505 c 2
 205 411 l 2xf0
 197 340 192 299 291 299 c 1xe4
 291 265 l 1
 214 265 197 224 205 153 c 2xf0
 215 59 l 2
 224 -24 223 -128 81 -128 c 2
 40 -128 l 1
 40 -94 l 1
EndSplineSet
EndChar

StartChar: asciitilde
Encoding: 126 126 94
Width: 600
Flags: HW
HStem: 178 89<394.5 427.5 394.5 438.5> 235 89<172 207.5>
VStem: 50 501<186 311>
LayerCount: 2
Fore
SplineSet
50 186 m 1
 74 243 113 324 205 324 c 0x60
 241 324 277 310 311 296 c 0
 345 281 379 267 410 267 c 0
 445 267 468 285 497 339 c 1xe0
 551 311 l 1
 523 245 482 178 395 178 c 0xa0
 352 178 318 192 287 207 c 0
 255 221 226 235 189 235 c 0
 155 235 130 209 106 158 c 1
 50 186 l 1
EndSplineSet
EndChar

StartChar: exclamdown
Encoding: 161 161 95
Width: 278
Flags: HW
HStem: 316 186<111.5 167> 482 20G<111.5 167>
VStem: 47 184<382 409 382 436.5> 52 173
LayerCount: 2
Fore
SplineSet
47 409 m 0
 47 464 84 502 139 502 c 0x60
 195 502 229 464 231 409 c 0
 231 355 195 316 139 316 c 0xa0
 84 316 47 355 47 409 c 0
56 -102 m 2
 107 271 l 1
 171 271 l 1
 221 -102 l 2
 232 -181 225 -217 139 -217 c 0x70
 52 -217 45 -181 56 -102 c 2
EndSplineSet
EndChar

StartChar: cent
Encoding: 162 162 96
Width: 560
Flags: HMW
HStem: -15 21G<294 350 294 294> 87 59<294 379 350 379> 553 46<294 296> 658 20G<296 350 350 350>
VStem: 39 153<319.5 426> 294 56<-15 87 -15 87 150 553>
LayerCount: 2
Fore
SplineSet
39 339 m 0
 39 513 137 594 296 599 c 1
 296 678 l 1
 350 678 l 1
 350 599 l 1
 418 598 539 568 539 495 c 0
 539 455 496 436 464 436 c 0
 440 436 428 448 418 473 c 0
 396 531 374 550 350 553 c 1
 350 146 l 1
 408 146 465 163 509 243 c 1
 546 221 l 1
 508 120 414 88 350 87 c 1
 350 -15 l 1
 294 -15 l 1
 294 87 l 1
 97 86 39 208 39 339 c 0
192 368 m 0
 192 271 215 169 294 150 c 1
 294 553 l 1
 250 549 192 518 192 368 c 0
EndSplineSet
EndChar

StartChar: sterling
Encoding: 163 163 97
Width: 560
Flags: HW
HStem: 0 9 0 116<237 426 426 443 237 499> 290 48<38 132 38 159 38 132 318 318 318 448> 633 46<270 306>
VStem: 83 139<532 536> 189 133<166.5 256.5>
LayerCount: 2
Fore
SplineSet
21 9 m 1
 43 72 l 1
 133 102 189 137 189 196 c 0
 189 225 178 258 159 290 c 1xb4
 38 290 l 1
 38 338 l 1
 132 338 l 1
 122 357 83 424 83 485 c 0
 83 587 146 679 301 679 c 0
 450 679 497 600 497 560 c 0
 497 521 449 499 419 499 c 0
 396 499 385 512 377 530 c 0
 347 593 324 633 288 633 c 0
 252 633 222 596 222 546 c 0
 222 518 230 486 253 438 c 0
 270 402 290 368 304 338 c 1x78
 448 338 l 1
 448 290 l 1
 318 290 l 1
 320 277 322 264 322 249 c 0
 323 203 295 152 237 118 c 1
 237 116 l 1x74
 426 116 l 2
 460 116 479 127 496 149 c 2
 520 180 l 1
 555 167 l 1
 499 0 l 1x78
 30 0 l 1
 21 9 l 1
EndSplineSet
EndChar

StartChar: fraction
Encoding: 8260 8260 98
Width: 100
Flags: MW
HStem: 647 20G<255 255> 675 20G<202 202>
VStem: -155 410
DStem2: -155 4 -103 -27 0.458447 0.888722<0 777.186>
LayerCount: 2
Fore
SplineSet
-155 4 m 1
 202 695 l 1x60
 255 667 l 1xe0
 -103 -27 l 1
 -155 4 l 1
EndSplineSet
EndChar

StartChar: yen
Encoding: 165 165 99
Width: 560
Flags: HW
HStem: 0 39 214 48<51 208 51 208 355 513> 349 48<51 170 51 191 51 170 386 513> 626.5 41.5 630 38
VStem: 3 221 208 147<77 214 69 214 262 272> 411 151
LayerCount: 2
Fore
SplineSet
3 632 m 1
 3 668 l 1xed
 285 668 l 1
 285 629 l 1xeb
 238 624 l 2
 219 622 223 609 229 595 c 2xf3
 320 386 l 1
 322 386 l 1
 361 474 397 560 408 592 c 0
 415 615 407 624 389 626 c 2
 341 632 l 1
 341 668 l 1
 562 668 l 1
 562 632 l 1
 529 628 l 2
 507 625 493 612 479 586 c 0
 462 555 423 481 386 397 c 1
 513 397 l 1
 513 349 l 1
 366 349 l 1
 359 327 l 2
 355 314 355 282 355 262 c 1
 513 262 l 1
 513 214 l 1
 355 214 l 1
 355 77 l 2
 355 61 357 44 377 42 c 2
 435 36 l 1
 435 0 l 1xeb
 128 0 l 1
 128 36 l 1
 185 42 l 2
 206 44 208 61 208 77 c 2
 208 214 l 1
 51 214 l 1
 51 262 l 1
 208 262 l 1
 208 291 208 311 202 325 c 2
 191 349 l 1xeb
 51 349 l 1
 51 397 l 1
 170 397 l 1
 127 484 93 553 72 592 c 0
 60 614 47 625 30 628 c 2
 3 632 l 1
EndSplineSet
EndChar

StartChar: florin
Encoding: 402 402 100
Width: 560
Flags: HMW
HStem: -135 46<106.5 114.5 106.5 151> 361 48<71 172 71 179 339 474> 645 46<385.5 399.5>
VStem: -40 602
LayerCount: 2
Fore
SplineSet
-40 -56 m 0
 -40 -23 -9 3 28 3 c 0
 46 3 57 -14 67 -34 c 0
 88 -76 102 -89 111 -89 c 0
 118 -89 123 -79 125 -59 c 2
 172 361 l 1
 71 361 l 1
 71 409 l 1
 179 409 l 1
 187 457 l 2
 201 537 235 691 411 691 c 0
 512 691 562 637 562 598 c 0
 564 556 522 537 492 537 c 0
 463 537 452 552 444 570 c 0
 418 630 406 645 393 645 c 0
 378 645 368 624 363 584 c 2
 339 409 l 1
 474 409 l 1
 474 361 l 1
 331 361 l 1
 312 218 l 2
 275 -56 212 -135 90 -135 c 0
 2 -135 -40 -89 -40 -56 c 0
EndSplineSet
EndChar

StartChar: section
Encoding: 167 167 101
Width: 566
Flags: HMW
HStem: -115 48<291 319.5 291 333> 659 48<255 285>
VStem: 35 65<398.5 404> 466 65<207 211.5>
LayerCount: 2
Fore
SplineSet
35 370 m 0
 35 438 71 510 129 553 c 1
 128 617 172 707 307 707 c 0
 382 707 455 669 455 622 c 0
 455 589 417 566 392 566 c 0
 372 566 363 577 354 591 c 0
 321 642 300 659 270 659 c 0
 240 659 220 635 220 610 c 0
 220 583 226 546 328 492 c 0
 476 414 531 358 531 240 c 0
 531 174 498 108 455 53 c 1
 456 -43 396 -115 270 -115 c 0
 171 -115 102 -69 101 -20 c 0
 101 26 138 45 165 45 c 0
 187 45 199 38 211 14 c 0
 244 -53 275 -67 307 -67 c 0
 332 -67 359 -48 359 -14 c 0
 359 22 342 69 218 134 c 0
 77 208 35 277 35 370 c 0
100 428 m 0
 100 369 143 321 266 255 c 0
 344 213 409 165 436 115 c 1
 449 128 466 150 466 183 c 0
 466 240 421 296 316 353 c 0
 241 394 172 435 143 496 c 1
 123 486 100 457 100 428 c 0
EndSplineSet
EndChar

StartChar: currency
Encoding: 164 164 102
Width: 560
Flags: HMW
HStem: 98 89<258 302> 481 89<258 302 258 317.5>
VStem: 46 102<309.5 358.5> 412 102<309.5 358.5 309.5 375.5>
LayerCount: 2
Fore
SplineSet
40 88 m 0
 11 116 19 144 40 161 c 2
 89 200 l 1
 61 232 46 285 46 334 c 0
 46 383 61 436 89 468 c 1
 40 507 l 2
 19 524 11 552 40 580 c 0
 64 604 97 598 112 578 c 2
 150 529 l 1
 183 557 236 570 280 570 c 0
 324 570 377 557 410 529 c 1
 448 578 l 2
 463 598 496 604 520 580 c 0
 549 552 541 524 520 507 c 2
 471 468 l 1
 499 436 514 383 514 334 c 0
 514 285 499 232 471 200 c 1
 520 161 l 2
 541 144 549 116 520 88 c 0
 496 64 463 70 448 90 c 2
 410 139 l 1
 377 111 324 98 280 98 c 0
 236 98 183 111 150 139 c 1
 112 90 l 2
 97 70 64 64 40 88 c 0
148 334 m 0
 148 251 205 187 280 187 c 0
 355 187 412 251 412 334 c 0
 412 417 355 481 280 481 c 0
 205 481 148 417 148 334 c 0
EndSplineSet
EndChar

StartChar: quotesingle
Encoding: 39 39 103
Width: 252
Flags: HMW
HStem: 687 20G<95 157>
VStem: 57 139
LayerCount: 2
Fore
SplineSet
60 630 m 2
 50 682 64 707 126 707 c 0
 188 707 203 683 193 630 c 2
 149 407 l 1
 103 407 l 1
 60 630 l 2
EndSplineSet
EndChar

StartChar: guillemotleft
Encoding: 171 171 105
Width: 487
Flags: HMW
HStem: 37 427<223 223 223 423>
VStem: 40 129 240 129
LayerCount: 2
Fore
SplineSet
49 231 m 2
 37 245 38 258 49 270 c 2
 223 464 l 1
 252 443 l 1
 173 268 l 2
 168 257 167 246 173 232 c 2
 252 58 l 1
 223 37 l 1
 49 231 l 2
249 231 m 2
 237 245 238 258 249 270 c 2
 423 464 l 1
 452 443 l 1
 373 268 l 2
 368 257 367 246 373 232 c 2
 452 58 l 1
 423 37 l 1
 249 231 l 2
EndSplineSet
EndChar

StartChar: guilsinglleft
Encoding: 8249 8249 106
Width: 287
Flags: HMW
HStem: 37 427<223 223>
VStem: 40 129
LayerCount: 2
Fore
SplineSet
49 231 m 2
 36 245 38 257 49 270 c 2
 223 464 l 1
 252 443 l 1
 173 268 l 2
 168 257 167 246 173 232 c 2
 252 58 l 1
 223 37 l 1
 49 231 l 2
EndSplineSet
EndChar

StartChar: guilsinglright
Encoding: 8250 8250 107
Width: 287
Flags: HMW
HStem: 37 427<64 64>
VStem: 118 129
LayerCount: 2
Fore
SplineSet
35 58 m 1
 114 232 l 2
 120 246 119 257 114 268 c 2
 35 443 l 1
 64 464 l 1
 238 270 l 2
 249 258 250 245 238 231 c 2
 64 37 l 1
 35 58 l 1
EndSplineSet
EndChar

StartChar: fi
Encoding: 64257 64257 108
Width: 639
Flags: HW
HStem: 0 38<27 296 27 27> 440 50<29 92 29 92 243 343 343 375> 476 20G<565 565> 696 46<313.5 348.5>
VStem: 92 151<87 440 490 515 515 537> 414 151<80 87 87 389 389 411>
LayerCount: 2
Fore
SplineSet
27 0 m 1
 27 38 l 1
 84 41 92 45 92 87 c 2
 92 440 l 1xdc
 29 440 l 1
 29 490 l 1
 92 490 l 1
 92 515 l 2
 92 652 164 742 342 742 c 0
 494 742 557 675 557 625 c 0
 557 584 517 560 476 560 c 0
 434 560 426 583 418 606 c 0
 394 674 365 696 332 696 c 0
 295 696 243 670 243 537 c 2
 243 490 l 1
 343 490 l 2xdc
 436 490 509 498 558 502 c 1
 565 496 l 1xbc
 565 87 l 2
 565 45 573 41 630 38 c 1
 630 0 l 1
 361 0 l 1
 361 38 l 1
 382 40 l 2
 403 42 414 47 414 80 c 2
 414 389 l 2
 414 433 406 440 375 440 c 2
 243 440 l 1
 243 80 l 2
 243 47 254 42 275 40 c 2
 296 38 l 1
 296 0 l 1
 27 0 l 1
EndSplineSet
EndChar

StartChar: fl
Encoding: 64258 64258 109
Width: 639
Flags: HMW
HStem: 0 38<27 296 27 27> 440 50<29 92 29 92 243 346> 696 46<312.5 359.5>
VStem: 92 151<87 440 490 519 519 546> 414 151<80 87 87 612 612 612>
LayerCount: 2
Fore
SplineSet
27 0 m 1
 27 38 l 1
 84 41 92 45 92 87 c 2
 92 440 l 1
 29 440 l 1
 29 490 l 1
 92 490 l 1
 92 519 l 2
 92 660 173 742 331 742 c 0
 388 742 431 729 466 711 c 1
 558 742 l 1
 565 736 l 1
 565 87 l 2
 565 45 573 41 630 38 c 1
 630 0 l 1
 361 0 l 1
 361 38 l 1
 382 40 l 2
 403 42 414 47 414 80 c 2
 414 612 l 1
 408 645 386 696 333 696 c 0
 292 696 243 670 243 546 c 2
 243 490 l 1
 346 490 l 1
 346 440 l 1
 243 440 l 1
 243 80 l 2
 243 47 254 42 275 40 c 2
 296 38 l 1
 296 0 l 1
 27 0 l 1
EndSplineSet
EndChar

StartChar: endash
Encoding: 8211 8211 110
Width: 500
Flags: HMW
HStem: 209 83<0 500 0 500>
VStem: 0 500<209 292 209 292>
LayerCount: 2
Fore
SplineSet
0 209 m 1
 0 292 l 1
 500 292 l 1
 500 209 l 1
 0 209 l 1
EndSplineSet
EndChar

StartChar: dagger
Encoding: 8224 8224 111
Width: 510
Flags: HW
HStem: 407 92<58 83.5 427.5 453> 687 20G<227 283>
VStem: 187 136<641.5 671> 191 128<290 334.5>
LayerCount: 2
Fore
SplineSet
35 453 m 0
 35 486 47 499 69 499 c 0
 98 499 154 486 219 476 c 1
 212 525 187 626 187 657 c 0
 187 685 199 707 255 707 c 0
 311 707 323 685 323 657 c 0
 323 626 298 525 291 476 c 1xe0
 357 486 413 499 442 499 c 0
 464 499 475 486 475 453 c 0
 475 416 464 407 442 407 c 0
 413 407 357 420 291 430 c 1
 308 386 319 353 319 316 c 0
 319 264 288 32 276 -125 c 1xd0
 234 -125 l 1
 222 32 191 264 191 316 c 0
 191 353 202 386 219 430 c 1xd0
 154 420 98 407 69 407 c 0
 47 407 35 416 35 453 c 0
EndSplineSet
EndChar

StartChar: daggerdbl
Encoding: 8225 8225 112
Width: 486
Flags: HW
HStem: 107 88<60.5 83 403 425.5> 442 88<60.5 83 403 425.5> 687 20G
VStem: 176 134<-91.5 -61.5 649.5 679.5> 182 122<304 350>
LayerCount: 2
Fore
SplineSet
35 151 m 0
 35 187 51 195 70 195 c 0
 96 195 140 182 209 175 c 1
 202 211 182 281 182 327 c 0
 182 373 199 422 209 462 c 1xe8
 140 455 96 442 70 442 c 0
 51 442 35 450 35 486 c 0
 35 522 51 530 70 530 c 0
 96 530 140 517 209 510 c 1
 201 551 176 633 176 666 c 0
 176 693 190 709 243 707 c 0xf8
 296 709 310 693 310 666 c 0
 310 633 285 551 277 510 c 1xf0
 346 517 390 530 416 530 c 0
 435 530 451 522 451 486 c 0
 451 450 435 442 416 442 c 0
 390 442 346 455 277 462 c 1
 287 422 304 373 304 327 c 0
 304 281 284 211 277 175 c 1xe8
 346 182 390 195 416 195 c 0
 435 195 451 187 451 151 c 0
 451 115 435 107 416 107 c 0
 390 107 346 120 277 127 c 1
 294 32 310 -45 310 -78 c 0
 310 -105 296 -121 243 -119 c 0
 190 -121 176 -105 176 -78 c 0
 176 -45 192 32 209 127 c 1xf0
 140 120 96 107 70 107 c 0
 51 107 35 115 35 151 c 0
EndSplineSet
EndChar

StartChar: paragraph
Encoding: 182 182 114
Width: 552
Flags: HW
HStem: -101 31<243 441 243 243> 649 43<462 462> 661 31<527 527>
VStem: 35 242<396.5 532> 344 97<-7 608 -101 692 -101 692>
LayerCount: 2
Fore
SplineSet
35 465 m 0
 35 599 122 692 277 692 c 1xb8
 277 238 l 1
 127 238 35 328 35 465 c 0
243 -70 m 1
 323 -56 l 2
 341 -53 344 -36 344 -7 c 2
 344 692 l 1
 527 692 l 1
 527 661 l 1xb8
 462 649 l 2
 444 646 441 637 441 608 c 2xd8
 441 -101 l 1
 243 -101 l 1
 243 -70 l 1
EndSplineSet
EndChar

StartChar: bullet
Encoding: 8226 8226 115
Width: 455
Flags: HMW
HStem: 174 355<178.5 276.5>
VStem: 50 355<302.5 401 302.5 401>
LayerCount: 2
Fore
SplineSet
50 352 m 0
 50 450 127 529 228 529 c 0
 325 529 405 450 405 352 c 0
 405 253 325 174 228 174 c 0
 129 174 50 251 50 352 c 0
EndSplineSet
EndChar

StartChar: questiondown
Encoding: 191 191 122
Width: 456
Flags: MW
HStem: -217 46<218 244 218 297.5> 196 70<128.5 268> 316 186<196.5 252> 482 20G<196.5 252>
VStem: 23 167<-116.5 -66.5 -116.5 -33.5> 131 186<346.66 471.34> 202 168<145.5 158>
LayerCount: 2
Back
SplineSet
23 -69 m 0xd8
 23 2 86 33 128 55 c 0
 178 81 202 113 202 143 c 0
 202 173 178 196 139 196 c 0
 118 196 103 193 92 190 c 1
 81 217 l 1
 121 244 175 266 232 266 c 0xd6
 304 266 370 232 370 160 c 0xd2
 370 131 355 96 284 53 c 0
 219 13 190 -39 190 -94 c 0
 190 -139 205 -171 231 -171 c 0
 257 -171 277 -144 297 -61 c 0
 303 -36 319 -24 351 -24 c 0
 384 -24 436 -47 436 -92 c 0
 436 -142 368 -217 227 -217 c 0
 110 -217 23 -169 23 -69 c 0xd8
132 409 m 0
 132 464 169 502 224 502 c 0xd4
 280 502 314 464 316 409 c 0
 316 355 280 316 224 316 c 0xe4
 169 316 132 355 132 409 c 0
EndSplineSet
Fore
SplineSet
23 -69 m 0
 23 2 86 33 128 55 c 0
 178 81 202 113 202 143 c 0
 202 173 178 196 139 196 c 0
 118 196 103 193 92 190 c 1
 81 217 l 1
 121 244 175 266 232 266 c 0
 304 266 370 232 370 160 c 0
 370 131 355 96 284 53 c 0
 219 13 190 -39 190 -94 c 0
 190 -139 205 -171 231 -171 c 0
 257 -171 277 -144 297 -61 c 0
 303 -36 319 -24 351 -24 c 0
 384 -24 436 -47 436 -92 c 0
 436 -142 368 -217 227 -217 c 0
 110 -217 23 -169 23 -69 c 0
131 409 m 0
 131 464 169 502 224 502 c 0
 279 502 317 464 317 409 c 0
 317 354 279 316 224 316 c 0
 169 316 131 354 131 409 c 0
EndSplineSet
EndChar

StartChar: grave
Encoding: 96 96 123
Width: 430
Flags: HMW
HStem: 511 229<81 291>
VStem: 40 272<541 692.5>
LayerCount: 2
Fore
SplineSet
40 680 m 0
 40 705 69 740 93 740 c 0
 113 740 130 728 167 690 c 2
 312 541 l 1
 291 511 l 1
 108 614 l 2
 72 634 40 654 40 680 c 0
EndSplineSet
EndChar

StartChar: acute
Encoding: 180 180 124
Width: 430
Flags: HMW
HStem: 511 229<140 350>
VStem: 119 272<541 692.5>
LayerCount: 2
Fore
SplineSet
119 541 m 1
 264 690 l 2
 301 728 318 740 338 740 c 0
 362 740 391 705 391 680 c 0
 391 654 359 634 323 614 c 2
 140 511 l 1
 119 541 l 1
EndSplineSet
EndChar

StartChar: circumflex
Encoding: 710 710 125
Width: 430
Flags: HMW
HStem: 520 227<52 222 208 378>
VStem: 28 374<547 547>
LayerCount: 2
Fore
SplineSet
28 547 m 1
 171 716 l 2
 186 734 201 747 215 747 c 0
 229 747 244 733 259 716 c 2
 402 547 l 1
 378 520 l 1
 253 614 l 2
 239 624 226 633 215 633 c 0
 205 633 191 624 177 614 c 2
 52 520 l 1
 28 547 l 1
EndSplineSet
EndChar

StartChar: tilde
Encoding: 732 732 126
Width: 430
Flags: W
HStem: 566 85<226.885 358.681> 608 85<70.3187 206.774> 686 20G<384 427>
LayerCount: 2
Fore
SplineSet
2 571 m 1x40
 20 614 55 693 137 693 c 0x40
 165 693 197 683 229 672 c 0
 262 662 294 651 320 651 c 0
 357 651 373 667 395 706 c 1
 427 688 l 1
 409 645 374 566 292 566 c 0xa0
 267 566 236 577 204 587 c 0
 172 598 139 608 109 608 c 0
 72 608 56 592 34 553 c 1
 2 571 l 1x40
EndSplineSet
EndChar

StartChar: macron
Encoding: 175 175 127
Width: 430
Flags: HMW
HStem: 587 87<60 371 60 371>
VStem: 60 311<587 674 587 674>
LayerCount: 2
Fore
SplineSet
60 587 m 1
 60 674 l 1
 371 674 l 1
 371 587 l 1
 60 587 l 1
EndSplineSet
EndChar

StartChar: breve
Encoding: 728 728 128
Width: 430
Flags: HMW
HStem: 556 85<164 266 164 287>
VStem: 56 38<678 716> 336 39<681 716>
LayerCount: 2
Fore
SplineSet
56 716 m 1
 94 716 l 1
 96 692 113 641 215 641 c 0
 317 641 334 692 336 716 c 1
 375 716 l 1
 375 646 358 556 216 556 c 0
 73 556 56 640 56 716 c 1
EndSplineSet
EndChar

StartChar: dotaccent
Encoding: 729 729 129
Width: 430
Flags: W
HStem: 560 150<157.648 272.352>
VStem: 136 158<581.952 688.048>
LayerCount: 2
Back
SplineSet
136 635 m 0
 136 673 164 710 215 710 c 0
 267 710 294 673 294 635 c 0
 294 597 267 561 215 561 c 0
 164 561 136 597 136 635 c 0
EndSplineSet
Fore
SplineSet
136 635 m 0
 136 673 164 710 215 710 c 0
 266 710 294 673 294 635 c 0
 294 597 266 560 215 560 c 0
 164 560 136 597 136 635 c 0
EndSplineSet
EndChar

StartChar: ring
Encoding: 730 730 131
Width: 430
Flags: HMW
HStem: 540 41<200.5 229 200.5 244.5> 721 41<200.5 229>
VStem: 96 67<628 674 628 692> 267 67<628 674>
LayerCount: 2
Fore
SplineSet
96 651 m 0
 96 733 156 762 215 762 c 0
 274 762 334 733 334 651 c 0
 334 568 274 540 215 540 c 0
 156 540 96 568 96 651 c 0
163 651 m 0
 163 605 186 581 215 581 c 0
 243 581 267 605 267 651 c 0
 267 697 243 721 215 721 c 0
 186 721 163 697 163 651 c 0
EndSplineSet
EndChar

StartChar: cedilla
Encoding: 184 184 132
Width: 430
Flags: HMW
HStem: -243 32<136 164> -58 58<236 236>
VStem: 230 105<-174.5 -132>
LayerCount: 2
Fore
SplineSet
136 -211 m 1
 192 -211 230 -196 230 -153 c 0
 230 -111 186 -102 164 -100 c 1
 160 -92 l 1
 217 0 l 1
 275 0 l 1
 236 -58 l 1
 267 -62 335 -79 335 -144 c 0
 335 -234 231 -246 184 -246 c 0
 165 -246 153 -245 136 -243 c 1
 136 -211 l 1
EndSplineSet
EndChar

StartChar: hungarumlaut
Encoding: 733 733 133
Width: 430
Flags: HMW
HStem: 521 230<96 191.5 165.5 301>
VStem: 64 382<540 716>
LayerCount: 2
Fore
SplineSet
64 540 m 1
 127 698 l 2
 139 728 152 751 179 751 c 0
 204 751 241 728 241 704 c 0
 241 687 230 666 205 638 c 2
 96 521 l 1
 64 540 l 1
269 540 m 1
 332 698 l 2
 344 728 357 751 384 751 c 0
 409 751 446 728 446 704 c 0
 446 687 435 666 410 638 c 2
 301 521 l 1
 269 540 l 1
EndSplineSet
EndChar

StartChar: ogonek
Encoding: 731 731 134
Width: 430
Flags: HMW
HStem: -246 54<168.5 268.5>
VStem: 105 96<-130 -123.5>
LayerCount: 2
Fore
SplineSet
105 -149 m 0
 105 -98 160 -35 226 0 c 1
 283 0 l 1
 229 -44 201 -90 201 -130 c 0
 202 -170 228 -192 261 -192 c 0
 276 -192 297 -187 310 -179 c 1
 325 -206 l 1
 288 -237 251 -246 220 -246 c 0
 117 -246 105 -182 105 -149 c 0
EndSplineSet
EndChar

StartChar: caron
Encoding: 711 711 135
Width: 430
Flags: HMW
HStem: 520 227<52 222>
VStem: 28 374<720 720>
LayerCount: 2
Fore
SplineSet
28 720 m 1
 52 747 l 1
 177 653 l 2
 191 643 205 634 215 634 c 0
 226 634 239 643 253 653 c 2
 378 747 l 1
 402 720 l 1
 259 551 l 2
 244 534 229 520 215 520 c 0
 201 520 186 533 171 551 c 2
 28 720 l 1
EndSplineSet
EndChar

StartChar: emdash
Encoding: 8212 8212 136
Width: 1000
Flags: HMW
HStem: 209 83<0 1000 0 1000>
VStem: 0 1000<209 292 209 292>
LayerCount: 2
Fore
SplineSet
0 209 m 1
 0 292 l 1
 1000 292 l 1
 1000 209 l 1
 0 209 l 1
EndSplineSet
EndChar

StartChar: AE
Encoding: 198 198 137
Width: 879
Flags: HW
HStem: 0 38<-77 176 -77 -77> 0 46<599 704 599 842> 337 52<230 366 230 366 205 366 522 617> 640 52<356 366 356 356> 646 46<543 557 557 632> 650.5 41.5
VStem: -77 166 366 156<97 119 119 337 389 610> 709 38<247 479 247 479> 784 38<507 692>
LayerCount: 2
Fore
SplineSet
-77 0 m 1x6bc0
 -77 38 l 1
 -19 40 -6 52 16 94 c 0
 86 226 226 509 272 605 c 0
 285 632 283 645 263 647 c 2
 199 654 l 1xa7c0
 199 692 l 1x69c0
 822 692 l 1
 822 507 l 1
 784 507 l 1
 753 606 735 646 632 646 c 2
 557 646 l 2
 529 646 522 639 522 610 c 2
 522 389 l 1
 617 389 l 2
 680 389 693 406 709 479 c 1
 747 479 l 1
 747 247 l 1
 709 247 l 1
 693 320 680 337 617 337 c 2
 522 337 l 1
 522 119 l 2
 522 55 553 46 645 46 c 0
 763 46 780 101 816 208 c 1
 854 208 l 1
 842 0 l 1
 287 0 l 1x69c0
 287 38 l 1
 358 41 366 46 366 97 c 2
 366 337 l 1
 205 337 l 1
 150 217 115 136 94 83 c 0
 84 59 88 46 112 44 c 2
 176 38 l 1xabc0
 176 0 l 1
 -77 0 l 1x6bc0
230 389 m 1x69c0
 366 389 l 1
 366 640 l 1
 356 640 l 1x71c0
 314 562 270 472 230 389 c 1x69c0
EndSplineSet
EndChar

StartChar: ordfeminine
Encoding: 170 170 138
Width: 405
Flags: HMW
HStem: 265 54<97 199> 554 36<182 200.5>
VStem: 28 120<351.5 375> 227 112<356 362 362 439 439 439 476 495>
LayerCount: 2
Fore
SplineSet
28 358 m 0
 28 392 49 418 97 434 c 0
 142 449 181 462 227 476 c 1
 227 511 l 2
 227 541 210 554 191 554 c 0
 173 554 152 547 132 496 c 0
 124 476 116 466 100 466 c 0
 77 466 34 479 34 511 c 0
 34 553 96 590 201 590 c 0
 327 590 339 538 339 495 c 2
 339 362 l 2
 339 318 352 306 394 307 c 1
 395 284 l 1
 372 276 329 265 285 265 c 0
 251 265 241 284 230 301 c 1
 200 286 174 265 133 265 c 0
 61 265 28 311 28 358 c 0
148 370 m 0
 148 333 173 319 190 319 c 0
 208 319 225 327 227 356 c 2
 227 439 l 1
 200 434 148 427 148 370 c 0
EndSplineSet
EndChar

StartChar: Lslash
Encoding: 321 321 139
Width: 591
Flags: HW
HStem: 0 38<39 578 39 39> 0 46<347 446 347 578> 654 38<39 369 39 369>
VStem: 118 160<97 119 119 241 241 241 301 356 416 595>
LayerCount: 2
Fore
SplineSet
30 178 m 1
 30 238 l 1
 118 301 l 1
 118 595 l 2
 118 646 110 651 39 654 c 1
 39 692 l 1
 369 692 l 1
 369 654 l 1
 286 651 278 646 278 595 c 2
 278 416 l 1
 421 519 l 1
 421 459 l 1x70
 278 356 l 1
 278 119 l 2
 278 55 305 46 389 46 c 0
 503 46 516 101 552 201 c 1
 590 201 l 1
 578 0 l 1
 39 0 l 1x70
 39 38 l 1
 110 41 118 46 118 97 c 2xb0
 118 241 l 1
 30 178 l 1
EndSplineSet
EndChar

StartChar: Oslash
Encoding: 216 216 140
Width: 768
Flags: HW
HStem: -15 46<358 456.5 358 499> 661 20 661 46<311.5 409.5>
VStem: 42 177<346 346> 549 177<346 346>
LayerCount: 2
Fore
SplineSet
42 346 m 0
 42 572 154 707 384 707 c 0xb8
 443 707 494 698 538 681 c 1
 575 747 l 1
 622 721 l 1xd8
 586 657 l 1xd8
 680 599 726 491 726 346 c 0
 726 120 614 -15 384 -15 c 0
 324 -15 271 -6 227 13 c 1
 186 -61 l 1
 142 -30 l 1
 179 37 l 1
 87 96 42 203 42 346 c 0
219 346 m 0
 220 283 224 211 243 152 c 1
 494 602 l 1
 470 638 435 661 384 661 c 0
 239 661 221 474 219 346 c 0
271 91 m 1
 296 54 332 31 384 31 c 0
 529 31 547 210 549 346 c 0
 548 407 543 482 523 543 c 1xb8
 271 91 l 1
EndSplineSet
EndChar

StartChar: OE
Encoding: 338 338 141
Width: 1049
Flags: HMW
HStem: 0 46<398 460 460 480 769 874> 337 52<692 787 692 787> 646 46<465 484.5 713 727 727 802>
VStem: 42 172<276.5 407> 532 160<93 119 119 337 389 595 595 610> 879 38<247 479 247 479> 954 38<507 692>
LayerCount: 2
Fore
SplineSet
42 338 m 0
 42 476 93 569 166 622 c 0
 237 673 338 692 465 692 c 2
 992 692 l 1
 992 507 l 1
 954 507 l 1
 923 606 905 646 802 646 c 2
 727 646 l 2
 699 646 692 639 692 610 c 2
 692 389 l 1
 787 389 l 2
 850 389 863 406 879 479 c 1
 917 479 l 1
 917 247 l 1
 879 247 l 1
 863 320 850 337 787 337 c 2
 692 337 l 1
 692 119 l 2
 692 55 723 46 815 46 c 0
 933 46 950 101 986 208 c 1
 1024 208 l 1
 1012 0 l 1
 460 0 l 2
 336 0 240 14 166 65 c 0
 94 115 42 207 42 338 c 0
214 346 m 0
 214 207 266 46 461 46 c 0
 499 46 532 55 532 93 c 2
 532 595 l 2
 532 639 510 646 459 646 c 0
 256 646 214 485 214 346 c 0
EndSplineSet
EndChar

StartChar: ordmasculine
Encoding: 186 186 142
Width: 427
Flags: HMW
HStem: 265 36<194 234 194 281.5> 554 36<194 234>
VStem: 28 126<389 466.5 389 475> 273 126<389 466.5>
LayerCount: 2
Fore
SplineSet
28 428 m 0
 28 522 79 590 214 590 c 0
 349 590 399 522 399 428 c 0
 399 333 349 265 214 265 c 0
 79 265 28 333 28 428 c 0
154 428 m 0
 154 350 174 301 214 301 c 0
 254 301 273 350 273 428 c 0
 273 505 254 554 214 554 c 0
 174 554 154 505 154 428 c 0
EndSplineSet
EndChar

StartChar: ae
Encoding: 230 230 143
Width: 806
Flags: HMW
HStem: -12 77<565 623.5> 252 48<478 604 604 615.5 478 738 478 604> 456 46<259 287.5 547.5 594.5>
VStem: 41 154<123.5 161.5> 331 147<199.5 252 199.5 279 199.5 279 329 337 199.5 382 199.5 410.5> 635 157<319.5 321.5 278 356.5>
LayerCount: 2
Fore
SplineSet
41 133 m 0
 41 190 68 231 146 259 c 0
 212 283 287 305 331 329 c 1
 331 382 l 2
 331 439 302 456 273 456 c 0
 245 456 213 441 185 356 c 0
 177 332 166 316 144 316 c 0
 118 316 54 334 54 379 c 0
 54 444 144 502 285 502 c 0
 354 502 397 480 423 444 c 1
 464 479 518 502 577 502 c 0
 779 502 792 349 792 294 c 0
 792 262 774 252 738 252 c 2
 478 252 l 1
 478 147 510 65 613 65 c 0
 674 65 717 97 747 154 c 1
 783 134 l 1
 749 46 682 -12 565 -12 c 0
 475 -13 417 21 382 75 c 1
 335 45 l 2
 302 23 256 -12 192 -12 c 0
 90 -12 41 58 41 133 c 0
195 150 m 0
 195 97 230 66 269 66 c 0
 296 66 329 80 331 134 c 2
 331 279 l 1
 307 268 272 254 241 237 c 0
 211 220 195 197 195 150 c 0
478 300 m 1
 604 300 l 2
 627 300 635 306 635 333 c 0
 635 380 625 456 564 456 c 0
 497 456 478 374 478 300 c 1
EndSplineSet
EndChar

StartChar: dotlessi
Encoding: 305 305 144
Width: 316
Flags: W
HStem: 0 38<26 86.9676 246.032 307> 437 36<32 67> 482 20G<95 242>
VStem: 91 151<42.9511 431.67>
LayerCount: 2
Fore
SplineSet
26 0 m 1
 26 38 l 1
 83 41 91 45 91 87 c 6
 91 381 l 6
 91 421 83 430 67 432 c 6
 32 437 l 5
 32 473 l 5
 235 502 l 5
 242 496 l 5
 242 87 l 6
 242 45 250 41 307 38 c 1
 307 0 l 1
 26 0 l 1
EndSplineSet
EndChar

StartChar: lslash
Encoding: 322 322 145
Width: 321
Flags: HMW
HStem: 0 38<25 306 25 25> 722 20G<234 234>
VStem: 90 151<87 262 262 262 321 377 435 621 621 641>
LayerCount: 2
Fore
SplineSet
16 206 m 1
 16 265 l 1
 90 321 l 1
 90 621 l 2
 90 661 82 670 66 673 c 2
 31 679 l 1
 31 715 l 1
 234 742 l 1
 241 736 l 1
 241 435 l 1
 332 504 l 1
 332 446 l 1
 241 377 l 1
 241 87 l 2
 241 45 249 41 306 38 c 1
 306 0 l 1
 25 0 l 1
 25 38 l 1
 82 41 90 45 90 87 c 2
 90 262 l 1
 16 206 l 1
EndSplineSet
EndChar

StartChar: oslash
Encoding: 248 248 146
Width: 585
Flags: HMW
HStem: -12 46<275.5 330 275.5 383.5> 456 46<255.5 309.5>
VStem: 34 155<224.5 312 224.5 325> 396 155<178 267>
LayerCount: 2
Fore
SplineSet
34 245 m 0
 34 405 111 502 293 502 c 0
 338 502 377 496 409 484 c 1
 441 535 l 1
 480 511 l 1
 451 465 l 1
 520 423 551 347 551 245 c 0
 551 85 474 -12 293 -12 c 0
 246 -12 207 -5 172 8 c 1
 136 -51 l 1
 99 -23 l 1
 130 28 l 1
 64 70 34 145 34 245 c 0
189 245 m 0
 189 204 192 168 198 139 c 1
 366 413 l 1
 349 441 326 456 293 456 c 0
 218 456 189 379 189 245 c 0
217 82 m 1
 233 50 258 34 293 34 c 0
 367 34 396 111 396 245 c 0
 396 289 393 326 386 358 c 1
 217 82 l 1
EndSplineSet
EndChar

StartChar: oe
Encoding: 339 339 147
Width: 866
Flags: HW
HStem: -12 46<257.5 327.5> -12 77<621.5 683.5> 252 48<538 664 664 675.5 538 798 538 664> 456 46<257.5 328 594 654.5>
VStem: 34 159<178 312 178 325> 392 146<199.5 252 300 312> 695 157<319.5 321.5 278 356.5>
LayerCount: 2
Fore
SplineSet
34 245 m 0
 34 405 111 502 293 502 c 0
 364 502 426 479 464 438 c 1
 504 474 561 502 627 502 c 0
 843 502 852 349 852 294 c 0
 852 262 834 252 798 252 c 2
 538 252 l 1
 538 147 570 65 673 65 c 0
 734 65 777 97 807 154 c 1x7e
 843 134 l 1
 809 46 742 -12 625 -12 c 0
 548 -12 496 13 462 51 c 1
 424 15 362 -12 293 -12 c 0
 111 -12 34 85 34 245 c 0
193 245 m 0xbe
 193 111 222 34 293 34 c 0
 363 34 392 111 392 245 c 0
 392 379 363 456 293 456 c 0
 222 456 193 379 193 245 c 0xbe
538 300 m 1
 664 300 l 2
 687 300 695 306 695 333 c 0
 695 380 685 456 624 456 c 0
 557 456 538 374 538 300 c 1
EndSplineSet
EndChar

StartChar: germandbls
Encoding: 223 223 148
Width: 662
Flags: HW
HStem: -12 46<467.5 488.5 467.5 521> 0 36<29 306 29 29> 696 46<313.5 371.5>
VStem: 92 151<85 490 490 511> 312 137<389.5 393.5> 435 141<565.5 604.5 560 611> 521 126<94.5 104.5>
LayerCount: 2
Fore
SplineSet
29 0 m 1
 29 36 l 1
 84 41 92 45 92 85 c 2
 92 490 l 2
 92 559 103 620 142 664 c 0
 181 710 253 742 342 742 c 0
 548 742 576 634 576 575 c 0x74
 576 545 570 522 550 500 c 1
 485 494 449 459 449 415 c 0
 449 364 505 327 526 312 c 0
 576 278 647 229 647 144 c 0
 647 45 580 -12 462 -12 c 0
 384 -12 328 17 328 57 c 0
 328 86 357 108 381 108 c 0
 396 108 404 99 411 88 c 0
 436 51 456 34 479 34 c 0
 498 34 521 47 521 84 c 0
 521 125 491 159 418 206 c 0
 343 254 312 310 312 363 c 0xba
 312 424 352 481 415 497 c 1
 433 523 435 554 435 577 c 0
 435 645 399 696 344 696 c 0
 283 696 243 631 243 511 c 2
 243 85 l 2
 243 45 251 41 306 36 c 1
 306 0 l 1x74
 29 0 l 1
EndSplineSet
EndChar

StartChar: onesuperior
Encoding: 185 185 149
Width: 402
Flags: HW
HStem: 272 29.5 653 20G<257 257> 660 20G<249 249>
VStem: 138 119<340 590 590 602>
LayerCount: 2
Back
SplineSet
78 272 m 1
 78 295 l 1
 123 298 l 2
 139 299 147 304 147 323 c 2
 147 600 l 2
 147 622 140 627 123 630 c 2
 82 638 l 1
 82 657 l 1
 241 680 l 1
 247 675 l 1xd0
 247 323 l 2
 247 304 255 299 271 298 c 2
 316 295 l 1
 316 272 l 1xb0
 78 272 l 1
EndSplineSet
Fore
SplineSet
71 272 m 1
 71 299 l 1
 109 304 l 2
 130 307 138 314 138 340 c 2
 138 590 l 2
 138 614 130 621 114 624 c 2
 73 630 l 1
 73 656 l 1
 249 680 l 1
 257 673 l 1xd0
 257 340 l 2
 257 314 265 307 286 304 c 2
 324 299 l 1
 324 272 l 1xb0
 71 272 l 1
EndSplineSet
EndChar

StartChar: minus
Encoding: 8722 8722 150
Width: 600
Flags: MW
HStem: 210 80<58 542 58 542>
VStem: 58 484<210 290 210 290>
LayerCount: 2
Fore
SplineSet
58 210 m 1
 58 290 l 1
 542 290 l 1
 542 210 l 1
 58 210 l 1
EndSplineSet
EndChar

StartChar: degree
Encoding: 176 176 151
Width: 396
Flags: HMW
HStem: 360 58<174 221.5 174 243> 622 58<173.5 221>
VStem: 35 77<491 520> 284 77<491 550>
LayerCount: 2
Back
SplineSet
35 520 m 0
 34 610 107 680 198 680 c 0
 288 680 361 610 361 520 c 0
 361 430 288 360 198 360 c 0
 107 360 35 430 35 520 c 0
112 521 m 0
 112 461 150 418 198 418 c 0
 245 418 284 461 284 521 c 0
 284 579 245 622 197 622 c 0
 150 622 111 579 112 521 c 0
EndSplineSet
Fore
SplineSet
35 520 m 0
 34 610 107 680 198 680 c 0
 288 680 361 610 361 520 c 0
 361 430 288 360 198 360 c 0
 107 360 35 430 35 520 c 0
112 521 m 0
 112 461 150 418 198 418 c 0
 245 418 284 461 284 521 c 0
 284 579 245 622 197 622 c 0
 150 622 111 579 112 521 c 0
EndSplineSet
EndChar

StartChar: logicalnot
Encoding: 172 172 158
Width: 600
Flags: HMW
HStem: 317 80<58 446 58 542>
VStem: 446 96<95 317 317 317>
LayerCount: 2
Fore
SplineSet
58 317 m 1
 58 397 l 1
 542 397 l 1
 542 95 l 1
 446 95 l 1
 446 317 l 1
 58 317 l 1
EndSplineSet
EndChar

StartChar: brokenbar
Encoding: 166 166 167
Width: 284
Flags: HMW
HStem: 655 20G<94 190 190 190>
VStem: 94 96<-175 175 -175 175 325 675>
LayerCount: 2
Fore
SplineSet
94 -175 m 1
 94 175 l 1
 190 175 l 1
 190 -175 l 1
 94 -175 l 1
94 325 m 1
 94 675 l 1
 190 675 l 1
 190 325 l 1
 94 325 l 1
EndSplineSet
EndChar

StartChar: thorn
Encoding: 254 254 168
Width: 609
Flags: HW
HStem: -230 38<13 312 13 13> -12 46<294.5 350.5 290 382> 0 21G<229 229> 425 77<295 441> 675 20G<19 19>
VStem: 78 151<-143 0 142.5 152 152 310 433 601 601 621> 416 159<175 318>
LayerCount: 2
Fore
SplineSet
13 -192 m 1
 70 -189 78 -185 78 -143 c 2
 78 601 l 2
 78 641 70 650 54 653 c 2
 19 659 l 1
 19 695 l 1
 222 722 l 1
 229 716 l 1
 229 433 l 1
 278 470 324 502 394 502 c 0
 488 502 575 425 575 259 c 0
 575 38 456 -12 308 -12 c 0xde
 281 -12 246 -7 229 0 c 1xfe
 229 -143 l 2
 229 -185 239 -189 312 -192 c 1
 312 -230 l 1
 13 -230 l 1
 13 -192 l 1
229 152 m 2
 229 133 230 116 233 101 c 0
 242 57 268 34 312 34 c 0
 389 34 416 113 416 237 c 0
 416 399 363 425 316 425 c 0
 274 425 249 402 236 365 c 0
 231 351 229 331 229 310 c 2
 229 152 l 2
EndSplineSet
EndChar

StartChar: Aring
Encoding: 197 197 169
Width: 644
Flags: HW
HStem: 0 38<-28 206 -28 -28> 246 48<192 354 192 370 176 354> 648 20G<395 395> 671 20G<308.5 337> 831 41<308.5 337>
VStem: -28 234<0 38 0 38> 204 67<738 784 738 802> 375 67<738 784>
LayerCount: 2
Back
SplineSet
204 761 m 0
 204 843 264 872 323 872 c 0
 382 872 442 843 442 761 c 0
 442 678 382 650 323 650 c 0
 264 650 204 678 204 761 c 0
271 761 m 0
 271 715 294 691 323 691 c 0
 351 691 375 715 375 761 c 0
 375 807 351 831 323 831 c 0
 294 831 271 807 271 761 c 0
EndSplineSet
Fore
SplineSet
-28 0 m 1
 -28 38 l 1
 26 41 37 48 53 90 c 0xdd
 77 151 110 252 146 355 c 2
 254 667 l 1
 224 683 204 713 204 761 c 0
 204 843 264 872 323 872 c 0
 382 872 442 843 442 761 c 0
 442 714 423 684 395 668 c 1xeb
 585 86 l 2
 598 45 611 39 663 38 c 1
 663 0 l 1
 347 0 l 1
 347 38 l 1
 405 44 l 2
 426 46 429 59 422 80 c 2
 370 246 l 1
 176 246 l 1
 158 187 140 133 128 79 c 0
 123 57 124 45 146 43 c 2
 206 38 l 1
 206 0 l 1
 -28 0 l 1
192 294 m 1xdb
 354 294 l 1
 276 553 l 1
 273 553 l 1
 192 294 l 1xdb
271 761 m 0
 271 715 294 691 323 691 c 0
 351 691 375 715 375 761 c 0
 375 807 351 831 323 831 c 0
 294 831 271 807 271 761 c 0
EndSplineSet
EndChar

StartChar: trademark
Encoding: 8482 8482 172
Width: 1090
Flags: HW
HStem: 277 30 621 71<549 554 549 549 860 865 860 860> 658 34<123.5 146 146 174 292 292 292 320 493 493> 661.5 30.5
VStem: 38 26<574 692> 174 118<344 658> 402 26<574 692> 508 41<409 621> 865 111<343 621 621 621>
LayerCount: 2
Fore
SplineSet
38 574 m 1
 38 692 l 1
 428 692 l 1
 428 574 l 1
 402 574 l 1
 390 640 365 658 320 658 c 2
 292 658 l 1
 292 344 l 2
 292 323 294 314 309 312 c 2
 356 305 l 1
 356 277 l 1
 110 277 l 1
 110 305 l 1
 156 312 l 2
 171 314 174 323 174 344 c 2xaf80
 174 658 l 1
 146 658 l 2
 101 658 76 640 64 574 c 1
 38 574 l 1
457 277 m 1
 457 305 l 1
 486 309 l 2
 507 312 508 334 508 409 c 2
 508 631 l 2
 508 647 506 655 493 658 c 2
 459 664 l 1
 459 692 l 1
 644 692 l 1
 659 650 674 608 690 566 c 2
 742 432 l 1
 747 432 l 1
 798 566 l 2
 813 608 829 650 844 692 c 1
 1028 692 l 1
 1028 664 l 1xaf80
 995 659 l 2
 979 656 976 647 976 631 c 2x9f80
 976 343 l 2
 976 321 978 312 998 309 c 2
 1028 305 l 1
 1028 277 l 1
 817 277 l 1
 817 305 l 1
 845 310 l 2
 864 314 865 321 865 343 c 2
 865 621 l 1
 860 621 l 1
 735 288 l 1
 683 288 l 1
 554 621 l 1
 549 621 l 1xcf80
 549 409 l 2
 549 334 551 312 574 309 c 2
 613 305 l 1
 613 277 l 1
 457 277 l 1
EndSplineSet
EndChar

StartChar: registered
Encoding: 174 174 173
Width: 800
Flags: HMW
HStem: -15 63<322.5 477.5 322.5 500.5> 159 28 331 32<367 385 367 391> 508 32<384.5 413.5> 644 63<322.5 477.5>
VStem: 36 83<262 430 262 446> 267 100<219 331 363 481 481 488> 456 105<425 462.5> 681 83<262 430>
LayerCount: 2
Fore
SplineSet
36 346 m 0
 36 546 199 707 400 707 c 0
 601 707 764 546 764 346 c 0
 764 146 601 -15 400 -15 c 0
 199 -15 36 146 36 346 c 0
119 346 m 0
 119 178 245 48 400 48 c 0
 555 48 681 178 681 346 c 0
 681 514 555 644 400 644 c 0
 245 644 119 514 119 346 c 0
221 159 m 1
 221 185 l 1
 248 189 l 2
 264 191 267 201 267 219 c 2
 267 481 l 2
 267 498 264 508 248 510 c 2
 221 514 l 1
 221 540 l 1
 429 540 l 2
 528 540 561 500 561 448 c 0
 561 396 525 361 472 351 c 1
 472 349 l 1
 527 334 533 297 544 253 c 0
 550 228 559 205 571 196 c 0
 577 191 585 188 595 185 c 1
 595 159 l 1
 540 159 l 2
 482 159 464 174 451 204 c 0
 440 230 433 274 427 295 c 0
 421 316 412 331 385 331 c 2
 367 331 l 1
 367 219 l 2
 367 201 371 191 387 189 c 2
 414 185 l 1
 414 159 l 1
 221 159 l 1
367 363 m 1
 391 363 l 2
 416 363 431 370 441 382 c 0
 451 395 456 413 456 437 c 0
 456 488 429 508 398 508 c 0
 371 508 367 503 367 488 c 2
 367 363 l 1
EndSplineSet
EndChar

StartChar: eth
Encoding: 240 240 184
Width: 585
Flags: HW
HStem: -12 46<257.5 328 257.5 383.5> 456 46<257.5 297.5 201.5 321 201.5 328> 479 20G<321 321> 660 20G<476 476> 722 20G<154 154>
VStem: 34 159<178 312 178 325> 392 159<178 308 168 312>
LayerCount: 2
Fore
SplineSet
34 245 m 0
 34 405 111 502 292 502 c 0xde
 303 502 310 501 321 499 c 1
 321 502 l 1
 302 526 278 552 246 582 c 1
 114 525 l 1
 89 564 l 1xbe
 210 616 l 1
 182 642 147 670 107 700 c 1
 107 712 l 1
 154 742 l 1
 205 715 255 685 299 654 c 1
 450 718 l 1
 476 680 l 1xde
 340 622 l 1
 379 593 411 563 441 531 c 0
 510 455 551 365 551 251 c 0
 551 85 474 -12 293 -12 c 0
 111 -12 34 85 34 245 c 0
193 245 m 0
 193 111 222 34 293 34 c 0
 363 34 392 111 392 245 c 0
 392 379 363 456 293 456 c 0
 222 456 193 379 193 245 c 0
EndSplineSet
EndChar

StartChar: ccedilla
Encoding: 231 231 188
Width: 494
Flags: HW
HStem: -243 32<169 197> -10 21G<244 244 301 301> -10 75<244 348.5 301 301> 456 46<257 295.5>
VStem: 34 159<187 284.5> 263 105<-174.5 -132>
LayerCount: 2
Fore
SplineSet
34 241 m 0
 34 328 60 393 102 435 c 0
 147 480 209 502 287 502 c 0
 378 502 478 463 478 392 c 0
 478 348 430 330 395 330 c 0
 369 330 354 342 347 365 c 0
 330 425 313 456 278 456 c 0
 236 456 193 399 193 265 c 0
 193 109 256 65 321 65 c 0
 376 65 415 88 449 156 c 1
 484 140 l 1
 450 32 374 -3 301 -10 c 1xbc
 269 -58 l 1
 300 -62 368 -79 368 -144 c 0
 368 -234 264 -246 217 -246 c 0
 198 -246 186 -245 169 -243 c 1
 169 -211 l 1
 225 -211 263 -196 263 -153 c 0
 263 -111 219 -102 197 -100 c 1
 193 -92 l 1xdc
 244 -10 l 1
 117 -2 34 83 34 241 c 0
EndSplineSet
EndChar

StartChar: multiply
Encoding: 215 215 189
Width: 600
Flags: HMW
HStem: 20 456<133 133 133 466>
VStem: 75 450<81 81 81 413>
LayerCount: 2
Fore
SplineSet
75 81 m 1
 240 247 l 1
 75 413 l 1
 133 476 l 1
 300 308 l 1
 466 476 l 1
 525 413 l 1
 360 247 l 1
 525 81 l 1
 466 20 l 1
 300 187 l 1
 133 20 l 1
 75 81 l 1
EndSplineSet
EndChar

StartChar: divide
Encoding: 247 247 190
Width: 600
Flags: HMW
HStem: 6 140<280.5 320> 210 80<58 542 58 542> 354 140<280.5 320>
VStem: 232 138<57 76 57 95 405 424>
LayerCount: 2
Fore
SplineSet
232 76 m 0
 232 114 261 146 300 146 c 0
 340 146 370 114 371 78 c 1
 370 76 l 1
 370 38 340 6 300 6 c 0
 261 6 232 38 232 76 c 0
232 424 m 0
 232 462 261 494 300 494 c 0
 340 494 370 462 371 426 c 1
 370 424 l 1
 370 386 340 354 300 354 c 0
 261 354 232 386 232 424 c 0
EndSplineSet
Refer: 150 8722 S 1 0 0 1 0 0 3
EndChar

StartChar: twosuperior
Encoding: 178 178 191
Width: 402
Flags: HMW
HStem: 272 82<138 306 306 317 138 351> 642 38<189.5 212>
VStem: 235 126<561.5 598.5>
LayerCount: 2
Back
SplineSet
34 283 m 1
 35 323 68 373 161 442 c 0
 235 497 246 542 246 582 c 0
 246 623 231 652 197 652 c 0
 164 652 143 620 132 573 c 0
 128 557 117 550 103 550 c 0
 80 550 46 563 46 589 c 0
 46 641 114 680 201 680 c 0
 286 680 352 649 352 566 c 0
 352 504 308 472 231 435 c 0
 157 400 135 366 124 345 c 1
 294 345 l 2
 322 345 331 349 350 380 c 1
 373 377 l 1
 347 272 l 1
 43 272 l 1
 34 283 l 1
EndSplineSet
Fore
SplineSet
29 282 m 1
 32 340 84 393 154 446 c 0
 221 497 235 542 235 581 c 0
 235 616 223 642 201 642 c 0
 178 642 164 616 152 564 c 0
 146 539 133 528 109 528 c 0
 83 528 43 545 43 581 c 0
 43 632 105 680 202 680 c 0
 296 680 361 643 361 561 c 0
 361 489 306 457 251 434 c 0
 196 412 152 386 138 354 c 1
 306 354 l 2
 328 354 338 358 354 385 c 1
 382 377 l 1
 351 272 l 1
 40 272 l 1
 29 282 l 1
EndSplineSet
EndChar

StartChar: threesuperior
Encoding: 179 179 205
Width: 402
Flags: HW
HStem: 265 38<182.5 206.5 182.5 257.5> 466 38<175 197.5> 642 38<180 203>
VStem: 226 125<569.5 597.5> 240 128<359 412.5 353 421.5>
LayerCount: 2
Back
SplineSet
36 343 m 0
 36 371 68 387 92 387 c 0
 107 387 117 378 121 367 c 0
 140 312 164 292 194 292 c 0
 235 292 256 324 256 384 c 0xe8
 256 458 222 471 189 471 c 0xe8
 162 471 140 462 125 462 c 0
 111 462 106 473 106 487 c 0
 106 501 111 511 125 511 c 0
 140 511 164 503 189 503 c 0
 238 503 242 560 242 582 c 0
 242 607 236 652 195 652 c 0
 163 652 146 627 131 583 c 0
 126 570 118 562 103 562 c 0
 87 562 51 573 51 600 c 0
 51 645 117 680 195 680 c 0
 264 680 345 661 345 578 c 0xf0
 345 519 288 500 253 492 c 1
 253 489 l 1
 278 485 364 468 364 382 c 0
 364 306 299 265 191 265 c 0
 70 265 36 320 36 343 c 0
EndSplineSet
Fore
SplineSet
30 350 m 0
 30 386 67 410 93 410 c 0
 116 410 128 396 134 377 c 0
 153 323 173 303 192 303 c 0
 221 303 240 332 240 386 c 0
 240 457 209 466 186 466 c 0xe8
 163 466 135 454 121 454 c 0
 106 454 99 466 99 484 c 0xf0
 99 504 106 516 121 516 c 0
 135 516 164 504 186 504 c 0
 225 504 226 557 226 582 c 0
 226 613 216 642 190 642 c 0
 170 642 156 619 144 578 c 0
 138 557 127 546 103 546 c 0
 79 546 42 560 40 593 c 0
 41 639 96 680 198 680 c 0
 271 680 351 656 351 578 c 0
 351 524 306 498 264 490 c 1
 264 487 l 1xf0
 320 479 368 441 368 384 c 0
 368 322 327 265 188 265 c 0
 114 265 30 294 30 350 c 0
EndSplineSet
EndChar

StartChar: Eth
Encoding: 208 208 208
Width: 783
Flags: HW
HStem: 0 38<39 338 39 39> 0 46<326.5 338> 341 48<35 118 35 118 278 420> 646 46<329.5 382 39 428> 654 38<39 382>
VStem: 118 160<97 341 389 595 595 618> 564 177<220 409 187 447.5>
LayerCount: 2
Fore
SplineSet
35 341 m 1
 35 389 l 1
 118 389 l 1
 118 595 l 2
 118 646 110 651 39 654 c 1x6e
 39 692 l 1
 382 692 l 2
 512 691 596 663 654 606 c 0
 712 549 741 465 741 353 c 0
 741 21 494 0 338 0 c 2
 39 0 l 1x76
 39 38 l 1
 110 41 118 46 118 97 c 2xb6
 118 341 l 1
 35 341 l 1
278 90 m 2
 278 58 295 46 358 46 c 0
 456 46 564 89 564 351 c 0
 564 544 495 646 361 646 c 0
 298 646 278 641 278 618 c 2
 278 389 l 1
 420 389 l 1
 420 341 l 1x76
 278 341 l 1
 278 90 l 2
EndSplineSet
EndChar

StartChar: plusminus
Encoding: 177 177 209
Width: 600
Flags: HMW
HStem: 0 80<58 542 58 542> 298 80<58 253 58 253 349 542>
VStem: 253 96<129 298 129 298 378 549>
LayerCount: 2
Fore
SplineSet
58 298 m 1
 58 378 l 1
 253 378 l 1
 253 549 l 1
 349 549 l 1
 349 378 l 1
 542 378 l 1
 542 298 l 1
 349 298 l 1
 349 129 l 1
 253 129 l 1
 253 298 l 1
 58 298 l 1
EndSplineSet
Refer: 150 8722 S 1 0 0 1 0 -210 2
EndChar

StartChar: copyright
Encoding: 169 169 217
Width: 800
Flags: HMW
HStem: -15 63<322.5 477.5 322.5 500.5> 151 32<394.5 445> 516 32<392.5 447.5 345 457> 644 63<322.5 477.5>
VStem: 36 83<262 430 262 446> 207 120<308 398.5 308 403> 531 27<415 415> 681 83<262 430>
LayerCount: 2
Fore
SplineSet
36 346 m 0
 36 546 199 707 400 707 c 0
 601 707 764 546 764 346 c 0
 764 146 601 -15 400 -15 c 0
 199 -15 36 146 36 346 c 0
119 346 m 0
 119 178 245 48 400 48 c 0
 555 48 681 178 681 346 c 0
 681 514 555 644 400 644 c 0
 245 644 119 514 119 346 c 0
207 348 m 0
 207 458 270 548 420 548 c 0
 475 548 526 538 558 519 c 1
 558 415 l 1
 531 415 l 1
 516 462 487 516 427 516 c 0
 358 516 327 443 327 354 c 0
 327 262 356 183 433 183 c 0
 490 183 519 238 541 290 c 1
 568 290 l 1
 557 182 l 1
 525 162 471 151 419 151 c 0
 263 151 207 236 207 348 c 0
EndSplineSet
EndChar

StartChar: Ccedilla
Encoding: 199 199 219
Width: 689
Flags: HMW
HStem: -243 33<296 325> -14 45<373 373 432 432> 661 46<352.5 448 352.5 478>
VStem: 42 177<298.5 389> 394 109<-171.5 -130> 600 38<484 663>
LayerCount: 2
Fore
SplineSet
42 339 m 0
 42 439 67 534 128 602 c 0
 187 668 282 707 423 707 c 0
 473 707 578 699 638 663 c 1
 638 484 l 1
 600 484 l 1
 577 556 542 661 414 661 c 0
 233 661 219 428 219 355 c 0
 219 242 244 31 422 31 c 0
 535 31 578 118 616 228 c 1
 654 228 l 1
 642 33 l 1
 588 1 499 -12 432 -14 c 1
 404 -55 l 1
 433 -60 503 -77 503 -140 c 0
 503 -234 395 -246 346 -246 c 0
 326 -246 314 -245 296 -243 c 1
 296 -210 l 1
 354 -210 394 -194 394 -149 c 0
 394 -111 348 -101 329 -99 c 1
 325 -91 l 1
 373 -14 l 1
 141 -1 42 135 42 339 c 0
EndSplineSet
EndChar

StartChar: Thorn
Encoding: 222 222 223
Width: 640
Flags: HMW
HStem: 0 36<33 368> 176 46<309.5 312 272 376.5> 502 46<306.5 358 358 365.5> 654 38<33 350 33 350>
VStem: 112 160<97 176 243.5 258 258 464 548 595> 454 168<323.5 415>
LayerCount: 2
Fore
SplineSet
33 0 m 1
 33 38 l 1
 104 41 112 46 112 97 c 2
 112 595 l 2
 112 646 104 651 33 654 c 1
 33 692 l 1
 350 692 l 1
 350 654 l 1
 280 651 272 646 272 595 c 2
 272 548 l 1
 358 548 l 2
 517 548 622 502 622 363 c 0
 622 194 445 176 312 176 c 2
 272 176 l 1
 272 97 l 2
 272 46 280 41 368 36 c 1
 368 0 l 1
 33 0 l 1
272 258 m 2
 272 229 289 222 330 222 c 0
 423 222 454 284 454 363 c 0
 454 467 396 502 335 502 c 0
 278 502 272 491 272 464 c 2
 272 258 l 2
EndSplineSet
EndChar

StartChar: micro
Encoding: 181 181 227
Width: 629
Flags: HW
HStem: -242 21G<106.5 127> -12 79<236 339> 0 38<412 620> 476 20G<233 233 555 555> 482 20G<226 226 548 548>
VStem: 82 151<137 176 176 381 381 401> 404 151<56 87 170 381 381 401>
LayerCount: 2
Fore
SplineSet
23 437 m 1
 23 473 l 1
 226 502 l 1
 233 496 l 1
 233 176 l 2
 233 98 264 67 317 67 c 0
 361 67 387 91 396 114 c 0
 402 129 404 153 404 170 c 2
 404 381 l 2
 404 421 396 430 380 432 c 2
 345 437 l 1
 345 473 l 1
 548 502 l 1
 555 496 l 1xd6
 555 87 l 2
 555 45 563 41 620 38 c 1
 620 0 l 1
 412 0 l 1xae
 404 56 l 1
 364 34 312 -12 255 -12 c 0
 217 -12 186 3 168 20 c 1
 166 20 l 1
 166 -8 l 2
 166 -38 181 -81 195 -106 c 0
 208 -130 220 -153 220 -168 c 0
 220 -182 213 -202 184 -221 c 0
 167 -233 137 -242 117 -242 c 0
 96 -242 82 -234 82 -192 c 2
 82 381 l 2
 82 421 74 430 58 432 c 2
 23 437 l 1
EndSplineSet
EndChar

StartChar: uni0237
Encoding: 567 567 228
Width: 316
Flags: W
HStem: -232 21G<-10.5806 21.5> 437 36<39 74> 482 20G<102 249>
VStem: 98 151<-117.376 431.67>
LayerCount: 2
Fore
SplineSet
-12 -201 m 1
 15 -192 40 -181 60 -156 c 0
 82 -128 98 -69 98 31 c 2
 98 381 l 2
 98 421 90 430 74 432 c 2
 39 437 l 1
 39 473 l 1
 242 502 l 1
 249 496 l 1
 249 25 l 2
 249 -84 227 -162 158 -198 c 0
 108 -224 51 -232 -8 -232 c 1
 -12 -201 l 1
EndSplineSet
EndChar

StartChar: acute.cap
Encoding: 63177 63177 231
Width: 430
Flags: HW
HStem: 719 185<124 346>
VStem: 110 290
LayerCount: 2
Fore
SplineSet
110 751 m 1
 282 874 l 2
 313 897 328 904 346 904 c 0
 378 904 400 860 400 840 c 0
 400 811 380 800 327 783 c 2
 124 719 l 1
 110 751 l 1
EndSplineSet
EndChar

StartChar: caron.cap
Encoding: 63178 63178 232
Width: 430
Flags: W
HStem: 736 105<171.59 258.885>
LayerCount: 2
Fore
SplineSet
27 886 m 1
 46 916 l 1
 176 856 l 2
 190 849 204 841 214 841 c 0
 226 841 241 849 254 856 c 2
 385 916 l 1
 403 886 l 1
 261 759 l 2
 247 746 229 736 214 736 c 0
 200 736 185 745 169 760 c 2
 27 886 l 1
EndSplineSet
EndChar

StartChar: grave.cap
Encoding: 63182 63182 233
Width: 430
Flags: W
HStem: 783 121<50.0706 125.203>
VStem: 30 290
LayerCount: 2
Fore
SplineSet
30 840 m 0
 30 860 52 904 84 904 c 0
 102 904 117 897 148 874 c 2
 320 751 l 1
 306 719 l 1
 103 783 l 2
 50 800 30 811 30 840 c 0
EndSplineSet
EndChar

StartChar: circumflex.cap
Encoding: 61431 61431 235
Width: 430
Flags: MW
HStem: 800 105<171.59 258.885>
VStem: 27 376<755 755>
LayerCount: 2
Fore
SplineSet
27 755 m 1
 169 881 l 2
 185 896 200 905 214 905 c 0
 229 905 247 895 261 882 c 2
 403 755 l 1
 385 725 l 1
 254 785 l 2
 241 792 226 800 214 800 c 0
 204 800 190 792 176 785 c 2
 46 725 l 1
 27 755 l 1
EndSplineSet
EndChar

StartChar: perthousandzero
Encoding: 61698 61698 236
Width: 432
Flags: HW
LayerCount: 2
Fore
SplineSet
40 174 m 0
 40 297 100 360 217 360 c 0
 332 360 392 297 392 174 c 0
 392 51 332 -12 217 -12 c 0x54f0
 100 -12 40 51 40 174 c 0
154 174 m 0
 154 70 176 28 217 28 c 0
 256 28 278 70 278 174 c 0
 278 286 253 320 217 320 c 0x74f0
 179 320 154 286 154 174 c 0
EndSplineSet
EndChar

StartChar: afii10033
Encoding: 1055 1055 264
Width: 800
Flags: HMW
HStem: 0 38<33 105.725 278.275 351 449 521.725 694.275 767> 646 46<272 528>
VStem: 112 160<45.0538 638.29> 528 160<45.0538 638.29>
LayerCount: 2
Back
SplineSet
33 0 m 1
 33 38 l 1
 104 41 112 46 112 97 c 2
 112 595 l 2
 112 646 104 651 33 654 c 1
 33 692 l 1
 351 692 l 1
 351 654 l 1
 280 651 272 646 272 595 c 2
 272 389 l 1
 535 389 l 1
 535 595 l 2
 535 646 527 651 456 654 c 1
 456 692 l 1
 774 692 l 1
 774 654 l 1
 703 651 695 646 695 595 c 2
 695 97 l 2
 695 46 703 41 774 38 c 1
 774 0 l 1
 456 0 l 1
 456 38 l 1
 527 41 535 46 535 97 c 2
 535 341 l 1
 272 341 l 1
 272 97 l 2
 272 46 280 41 351 38 c 1
 351 0 l 1
 33 0 l 1
EndSplineSet
Fore
SplineSet
272 646 m 1
 272 692 l 1
 528 692 l 1
 528 646 l 1
 272 646 l 1
449 0 m 1
 449 38 l 1
 520 41 528 46 528 97 c 2
 528 592 l 2
 528 637 520 643 449 646 c 1
 449 692 l 1
 767 692 l 1
 767 654 l 1
 696 651 688 646 688 595 c 2
 688 97 l 2
 688 46 696 41 767 38 c 1
 767 0 l 1
 449 0 l 1
33 0 m 1
 33 38 l 1
 104 41 112 46 112 97 c 2
 112 595 l 2
 112 646 104 651 33 654 c 1
 33 692 l 1
 351 692 l 1
 351 646 l 1
 280 643 272 637 272 592 c 2
 272 97 l 2
 272 46 280 41 351 38 c 1
 351 0 l 1
 33 0 l 1
EndSplineSet
EndChar

StartChar: afii10040
Encoding: 1062 1062 265
Width: 798
Flags: HMW
HStem: -190 20 654 38<694 767 449 522 278 351 33 106> 0 46<272 528>
VStem: 112 160<54 647> 526 160<53.0347 646.946> 750 38<-190 -124.474>
CounterMasks: 1 0c
LayerCount: 2
Fore
SplineSet
533 46 m 1
 775 46 l 1
 788 -190 l 1
 750 -190 l 1
 707 -31 694 0 534 0 c 9
 533 46 l 1
272 0 m 1
 272 46 l 1
 526 46 l 1
 526 0 l 1
 272 0 l 1
33 0 m 1
 33 38 l 1
 104 41 112 46 112 97 c 2
 112 595 l 2
 112 646 104 651 33 654 c 1
 33 692 l 1
 351 692 l 1
 351 654 l 1
 280 651 272 646 272 595 c 2
 272 100 l 2
 272 55 280 49 351 46 c 1
 351 0 l 1
 33 0 l 1
447 0 m 1
 447 46 l 1
 518 49 526 55 526 100 c 2
 526 595 l 2
 526 646 518 651 447 654 c 1
 447 692 l 1
 765 692 l 1
 765 654 l 1
 694 651 686 646 686 595 c 2
 686 100 l 2
 686 55 694 49 765 46 c 1
 765 0 l 1
 447 0 l 1
EndSplineSet
EndChar

StartChar: afii10042
Encoding: 1064 1064 266
Width: 1144
Flags: HMW
HStem: 0 46<272 872> 654 38<33 105.725 278.117 343 421 485.883 658.117 723 801 865.883 1038.28 1111>
VStem: 112 160<53.7104 646.946> 492 160<53.0347 647.021> 872 160<53.7104 100 100 646.946>
CounterMasks: 1 38
LayerCount: 2
Fore
SplineSet
413 0 m 1
 413 46 l 1
 484 49 492 55 492 100 c 2
 492 595 l 2
 492 646 483 650 421 654 c 1
 421 692 l 1
 723 692 l 1
 723 654 l 1
 661 650 652 646 652 595 c 2
 652 100 l 2
 652 55 660 49 731 46 c 1
 731 0 l 1
 413 0 l 1
272 0 m 1
 272 46 l 1
 872 46 l 1
 872 0 l 1
 272 0 l 1
33 0 m 1
 33 38 l 1
 104 41 112 46 112 97 c 2
 112 595 l 2
 112 646 104 651 33 654 c 1
 33 692 l 1
 343 692 l 1
 343 654 l 1
 281 650 272 646 272 595 c 2
 272 100 l 2
 272 55 280 49 351 46 c 1
 351 0 l 1
 33 0 l 1
793 0 m 1
 793 46 l 1
 864 49 872 55 872 100 c 2
 872 595 l 2
 872 646 863 650 801 654 c 1
 801 692 l 1
 1111 692 l 1
 1111 654 l 1
 1040 651 1032 646 1032 595 c 2
 1032 97 l 2
 1032 46 1040 41 1111 38 c 1
 1111 0 l 1
 793 0 l 1
EndSplineSet
EndChar

StartChar: afii10043
Encoding: 1065 1065 267
Width: 1144
Flags: HMW
HStem: -190 20 0 46<272 872> 654 38<33 105.725 278.117 343 421 485.883 658.117 723 801 865.883 1038.28 1111>
VStem: 112 160<53.7104 646.946> 492 160<53.0347 647.021> 872 160<53.7104 100 100 646.946> 1096 38<-190 -124.474>
CounterMasks: 2 1c 06
LayerCount: 2
Fore
SplineSet
879 46 m 1
 1121 46 l 1
 1134 -190 l 1
 1096 -190 l 1
 1053 -31 1040 0 880 0 c 9
 879 46 l 1
413 0 m 1
 413 46 l 1
 484 49 492 55 492 100 c 2
 492 595 l 2
 492 646 483 650 421 654 c 1
 421 692 l 1
 723 692 l 1
 723 654 l 1
 661 650 652 646 652 595 c 2
 652 100 l 2
 652 55 660 49 731 46 c 1
 731 0 l 1
 413 0 l 1
272 0 m 1
 272 46 l 1
 872 46 l 1
 872 0 l 1
 272 0 l 1
33 0 m 1
 33 38 l 1
 104 41 112 46 112 97 c 2
 112 595 l 2
 112 646 104 651 33 654 c 1
 33 692 l 1
 343 692 l 1
 343 654 l 1
 281 650 272 646 272 595 c 2
 272 100 l 2
 272 55 280 49 351 46 c 1
 351 0 l 1
 33 0 l 1
793 0 m 1
 793 46 l 1
 864 49 872 55 872 100 c 2
 872 595 l 2
 872 646 863 650 801 654 c 1
 801 692 l 1
 1111 692 l 1
 1111 654 l 1
 1040 651 1032 646 1032 595 c 2
 1032 100 l 2
 1032 55 1040 49 1111 46 c 1
 1111 0 l 1
 793 0 l 1
EndSplineSet
EndChar

StartChar: afii10026
Encoding: 1048 1048 268
Width: 814
Flags: HMW
HStem: 0 38<33 105.725 278.275 351 463 535.725 708.275 781> 654 38<33 105.725 278.275 351 463 535.725 708.275 781>
VStem: 112 160<45.0538 646.946> 542 160<45.0538 646.946>
LayerCount: 2
Back
SplineSet
33 0 m 1
 33 38 l 1
 104 41 112 46 112 97 c 2
 112 595 l 2
 112 646 104 651 33 654 c 1
 33 692 l 1
 351 692 l 1
 351 654 l 1
 280 651 272 646 272 595 c 2
 272 389 l 1
 535 389 l 1
 535 595 l 2
 535 646 527 651 456 654 c 1
 456 692 l 1
 774 692 l 1
 774 654 l 1
 703 651 695 646 695 595 c 2
 695 97 l 2
 695 46 703 41 774 38 c 1
 774 0 l 1
 456 0 l 1
 456 38 l 1
 527 41 535 46 535 97 c 2
 535 341 l 1
 272 341 l 1
 272 97 l 2
 272 46 280 41 351 38 c 1
 351 0 l 1
 33 0 l 1
EndSplineSet
Fore
SplineSet
203.315 143.775 m 1
 566.556 608.702 l 1
 610.685 574.225 l 1
 247.444 109.298 l 1
 203.315 143.775 l 1
463 0 m 1
 463 38 l 1
 534 41 542 46 542 97 c 2
 542 595 l 2
 542 646 534 651 463 654 c 1
 463 692 l 1
 781 692 l 1
 781 654 l 1
 710 651 702 646 702 595 c 2
 702 97 l 2
 702 46 710 41 781 38 c 1
 781 0 l 1
 463 0 l 1
33 0 m 1
 33 38 l 1
 104 41 112 46 112 97 c 2
 112 595 l 2
 112 646 104 651 33 654 c 1
 33 692 l 1
 351 692 l 1
 351 654 l 1
 280 651 272 646 272 595 c 2
 272 97 l 2
 272 46 280 41 351 38 c 1
 351 0 l 1
 33 0 l 1
EndSplineSet
EndChar

StartChar: afii10020
Encoding: 1043 1043 269
Width: 574
Flags: HMW
HStem: 0 38<33 105.725 279.172 368> 497 195<517.062 559> 646 46<272.831 452.938>
VStem: 112 160<46.1685 645.163> 522 37<497 555.325>
LayerCount: 2
Back
SplineSet
37 0 m 5
 37 38 l 5
 108 41 116 46 116 97 c 6
 116 595 l 6
 116 646 108 651 37 654 c 5xdc
 37 692 l 5xec
 568 692 l 5
 568 507 l 5
 530 507 l 5
 499 604 481 646 378 646 c 6
 311 646 l 6
 283 646 276 639 276 610 c 6xee
 276 370 l 5
 390 370 l 6
 453 370 466 387 482 460 c 5
 520 460 l 5
 520 228 l 5
 482 228 l 5
 466 301 453 318 390 318 c 6
 276 318 l 5
 276 97 l 6
 276 46 284 41 372 38 c 5
 372 0 l 5
 37 0 l 5
EndSplineSet
Fore
SplineSet
33 0 m 1xb8
 33 38 l 1
 104 41 112 46 112 97 c 2
 112 595 l 2
 112 646 104 651 33 654 c 1
 33 692 l 1xb8
 559 692 l 1
 559 497 l 1
 522 497 l 1xd8
 496 597 466 646 368 646 c 2
 307 646 l 2
 279 646 272 639 272 610 c 2
 272 97 l 2
 272 46 280 41 368 38 c 1
 368 0 l 1
 33 0 l 1xb8
EndSplineSet
EndChar

StartChar: afii10046
Encoding: 1068 1068 270
Width: 683
Flags: HMW
HStem: 0 46<282.428 419.492> 351 46<272.736 408.929> 654 38<33 105.725 279.172 368>
VStem: 112 160<56.7109 347.332 389 645.832> 470 175<100.014 286.943>
LayerCount: 2
Back
SplineSet
33 0 m 5x75
 33 38 l 5
 104 41 112 46 112 97 c 6
 112 595 l 6
 112 646 104 651 33 654 c 5xad
 33 692 l 5
 363 692 l 6
 521 692 618 648 618 526 c 4x76
 618 444 568 392 470 371 c 5
 470 369 l 5
 563 355 645 300 645 189 c 4
 645 135 629 87 588 54 c 4
 546 20 477 0 363 0 c 6
 33 0 l 5x75
272 111 m 6
 272 62 294 46 344 46 c 4
 414 46 470 81 470 188 c 4
 470 272 423 343 323 343 c 6
 272 343 l 5x75
 272 111 l 6
272 389 m 5
 321 389 l 6
 417 389 456 444 456 518 c 4x76
 456 593 420 646 330 646 c 4
 290 646 272 643 272 609 c 6
 272 389 l 5
EndSplineSet
Fore
SplineSet
272 111 m 2
 272 62 294 46 344 46 c 0
 414 46 470 78 470 198 c 0
 470 313 400 351 327 351 c 0
 307 351 283 346 272 341 c 1
 272 111 l 2
33 0 m 1
 33 38 l 1
 104 41 112 46 112 97 c 2
 112 595 l 2
 112 646 104 651 33 654 c 1
 33 692 l 1
 368 692 l 1
 368 656 l 1
 280 651 272 646 272 595 c 2
 272 389 l 17
 292 393 325 397 358 397 c 0
 451 397 645 386 645 198 c 0
 645 50 544 0 363 0 c 2
 33 0 l 1
EndSplineSet
EndChar

StartChar: afii10048
Encoding: 1070 1070 271
Width: 1139
Flags: HMW
HStem: -15 46<682.496 827.891> 0 38<33 105.725 278.275 351> 341 48<272 415> 654 38<33 105.725 278.275 351> 661 46<682.109 827.891>
VStem: 112 160<45.0538 341 389 646.946> 415 175<186.347 505.653> 920 177<193.704 498.296>
LayerCount: 2
Fore
SplineSet
33 0 m 1
 33 38 l 1
 104 41 112 46 112 97 c 2
 112 595 l 2
 112 646 104 651 33 654 c 1
 33 692 l 1
 351 692 l 1
 351 654 l 1
 280 651 272 646 272 595 c 2
 272 389 l 1
 415 389 l 1
 415 341 l 1
 272 341 l 1
 272 97 l 2
 272 46 280 41 351 38 c 1
 351 0 l 1
 33 0 l 1
EndSplineSet
Refer: 47 79 N 1 0 0 1 371 0 2
EndChar

StartChar: afii10044
Encoding: 1066 1066 273
Width: 853
Flags: HMW
HStem: 0 46<482 607.492> 351 46<460.736 596.929> 480 212<16 55.7754> 646 46<128.812 360>
VStem: 16 35<480 538.395> 282 160<56.7109 347.332 389 638.29> 640 175<100.014 286.943>
LayerCount: 2
Fore
SplineSet
16 480 m 1
 16 692 l 1
 538 692 l 1
 538 656 l 1
 450 651 442 646 442 595 c 2
 442 389 l 1
 462 393 495 397 528 397 c 0
 621 397 815 386 815 198 c 0
 815 50 714 0 533 0 c 2
 189 0 l 1
 189 36 l 1
 277 41 282 46 282 97 c 2
 282 592 l 2
 282 637 274 643 203 646 c 9
 200 646 l 18
 126 646 75 596 51 480 c 1
 16 480 l 1
442 111 m 2
 442 62 464 46 514 46 c 0
 584 46 640 78 640 198 c 0
 640 313 570 351 497 351 c 0
 477 351 453 346 442 341 c 1
 442 111 l 2
EndSplineSet
EndChar

StartChar: afii10018
Encoding: 1041 1041 274
Width: 683
Flags: HMW
HStem: 0 46<282.428 415.963> 357 46<272.736 409.118> 497 20 646 46<272.628 475.23>
VStem: 112 160<56.7109 353.332 395 645.229> 470 175<100.865 292.314> 539 37<497 562.047>
CounterMasks: 1 d0
LayerCount: 2
Back
SplineSet
33 0 m 1x75
 33 38 l 1
 104 41 112 46 112 97 c 2
 112 595 l 2
 112 646 104 651 33 654 c 1xad
 33 692 l 1
 363 692 l 2
 521 692 618 648 618 526 c 0x76
 618 444 568 392 470 371 c 1
 470 369 l 1
 563 355 645 300 645 189 c 0
 645 135 629 87 588 54 c 0
 546 20 477 0 363 0 c 2
 33 0 l 1x75
272 111 m 2
 272 62 294 46 344 46 c 0
 414 46 470 81 470 188 c 0
 470 272 423 343 323 343 c 2
 272 343 l 1x75
 272 111 l 2
272 389 m 1
 321 389 l 2
 417 389 456 444 456 518 c 0x76
 456 593 420 646 330 646 c 0
 290 646 272 643 272 609 c 2
 272 389 l 1
EndSplineSet
Fore
SplineSet
33 0 m 1
 33 38 l 1
 104 41 112 46 112 97 c 2
 112 595 l 2
 112 646 104 651 33 654 c 1
 33 692 l 1
 576 692 l 1
 576 497 l 1
 539 497 l 1
 519 596 487 646 393 646 c 2
 307 646 l 2
 280 646 272 640 272 614 c 2
 272 395 l 1
 292 399 325 403 358 403 c 0
 456 403 645 393 645 201 c 0
 645 49 546 1 368 0 c 2
 33 0 l 1
272 111 m 2
 272 62 294 46 344 46 c 0
 414 46 470 78 470 201 c 0
 470 321 397 357 327 357 c 0
 307 357 283 352 272 347 c 1
 272 111 l 2
EndSplineSet
EndChar

StartChar: afii10041
Encoding: 1063 1063 275
Width: 766
Flags: W
HStem: 0 38<398 486.828 660.275 733> 247 82<207.5 397.315> 654 38<25 97.7246 270.117 335 423 487.883 660.275 733>
VStem: 104 160<349.871 646.946> 494 160<46.1685 313 363.162 646.946>
LayerCount: 2
Fore
SplineSet
25 654 m 1
 25 692 l 1
 335 692 l 1
 335 654 l 1
 273 650 264 646 264 595 c 2
 264 433 l 2
 264 366 274 329 347 329 c 0
 375 329 416 332 438 343 c 0
 486 367 494 380 494 411 c 2
 494 595 l 2
 494 646 485 650 423 654 c 1
 423 692 l 1
 733 692 l 1
 733 654 l 1
 662 651 654 646 654 595 c 2
 654 97 l 2
 654 46 662 41 733 38 c 1
 733 0 l 1
 398 0 l 1
 398 36 l 1
 486 41 494 46 494 97 c 2
 494 313 l 1
 430 279 366 247 265 247 c 0
 150 247 104 318 104 453 c 2
 104 595 l 2
 104 646 96 651 25 654 c 1
EndSplineSet
EndChar

StartChar: afii10038
Encoding: 1060 1060 276
Width: 902
Flags: HMW
HStem: -2 38<292 364.725 537.275 610> 119 46<282.215 371 531 619.785> 541 46<282.215 371 531 619.785> 660 38<292 364.725 537.275 610>
VStem: 42 175<250.546 455.454> 371 160<43.0538 119 119 652.946> 685 175<250.546 455.454>
CounterMasks: 2 0e f0
LayerCount: 2
Fore
SplineSet
42 353 m 0
 42 473 111 587 371 587 c 9
 371 541 l 17
 251 541 217 468 217 353 c 0
 217 238 251 165 371 165 c 9
 371 119 l 17
 111 119 42 233 42 353 c 0
280 -2 m 1
 280 36 l 1
 366 39 371 44 371 95 c 2
 371 601 l 2
 371 652 366 657 280 660 c 1
 280 698 l 1
 622 698 l 1
 622 660 l 1
 536 657 531 652 531 601 c 2
 531 95 l 2
 531 44 536 39 622 36 c 1
 622 -2 l 1
 280 -2 l 1
531 119 m 9
 531 165 l 17
 651 165 685 238 685 353 c 0
 685 468 651 541 531 541 c 9
 531 587 l 17
 791 587 860 473 860 353 c 0
 860 233 791 119 531 119 c 9
EndSplineSet
EndChar

StartChar: afii10029
Encoding: 1051 1051 277
Width: 795
Flags: HMW
HStem: -15 46<127.757 196.986> 0 38<444 516.725 689.275 762> 646 46<352 523>
VStem: 13 137<87.0312 179.507> 290 62<369.025 638.29> 523 160<45.0538 638.29>
CounterMasks: 1 0c
LayerCount: 2
Back
SplineSet
124.647 -73.7354 m 4
 -14.7725 43.252 5.93848 147.276 30.3643 176.386 c 4
 59.9326 211.624 114.059 201.453 141.636 178.312 c 4
 159.255 163.528 160.461 141.63 153.487 123.984 c 4
 116.442 36.2764 122.809 -12.1436 157.28 -41.0684 c 4
EndSplineSet
Fore
SplineSet
352 646 m 1x3c
 352 692 l 1
 523 692 l 1
 523 646 l 1
 352 646 l 1x3c
444 0 m 1x7c
 444 38 l 1
 515 41 523 46 523 97 c 2
 523 592 l 2
 523 637 515 643 444 646 c 1
 444 692 l 1
 762 692 l 1
 762 654 l 1
 691 651 683 646 683 595 c 2
 683 97 l 2
 683 46 691 41 762 38 c 1
 762 0 l 1
 444 0 l 1x7c
13 117 m 0
 13 180 47 196 76 196 c 0
 101 196 150 186 150 138 c 0
 150 112 129 86 129 62 c 0
 129 47 137 31 158 31 c 0
 236 31 290 237 290 595 c 0
 290 646 282 651 211 654 c 1
 211 692 l 1
 431 692 l 1
 431 646 l 1
 360 643 352 637 352 592 c 0
 352 220 287 -15 161 -15 c 0xbc
 84 -15 13 32 13 117 c 0
EndSplineSet
EndChar

StartChar: afii10028
Encoding: 1050 1050 278
Width: 812
VWidth: 0
Flags: HMW
HStem: -15 46<718.821 779> 0 38<33 105.725 278.275 351> 341 48<272 392.128> 654 38<33 105.725 278.275 351> 661 46<574.9 630.465>
VStem: 112 160<45.0538 646.946> 619 126<535.415 635.929>
LayerCount: 2
Back
SplineSet
580.086 723.806 m 0
 623.228 702.764 628.623 654.516 615.956 578.36 c 0
 612.604 555.519 618.59 538.136 638.362 528.492 c 0
 659.935 517.972 716.359 510.476 736.085 550.922 c 0
 768.963 618.333 705.409 713.861 600.25 765.15 c 0
EndSplineSet
Fore
SplineSet
33 0 m 1x76
 33 38 l 1
 104 41 112 46 112 97 c 2
 112 595 l 2
 112 646 104 651 33 654 c 1
 33 692 l 1
 351 692 l 1
 351 654 l 1
 280 651 272 646 272 595 c 2
 272 97 l 2
 272 46 280 41 351 38 c 1
 351 0 l 1
 33 0 l 1x76
272 341 m 1
 272 389 l 1
 306 389 l 2
 413 389 443 449 467 535 c 0
 492 626 529 707 609 707 c 0
 683 707 745 674 745 585 c 0
 745 559 730 521 681 521 c 0
 643 521 619 530 619 571 c 0
 619 601 627 614 627 637 c 0
 627 655 623 661 608 661 c 0
 581 661 553 617 534 541 c 0
 510 445 485 399 437 376 c 1
 437 375 l 1
 532 358 633 332 662 177 c 0
 682 72 726 31 774 31 c 2
 779 31 l 1
 779 -15 l 1
 711 -15 l 2xae
 599 -15 521 -0 501 125 c 0
 480 258 423 341 309 341 c 2
 272 341 l 1
EndSplineSet
EndChar

StartChar: afii10024
Encoding: 1046 1046 279
Width: 1170
VWidth: 0
Flags: HMW
HStem: -15 46<33 93.0921 1076.91 1137> 0 38<426 498.725 671.275 744> 341 48<406.364 505 665 763.636> 654 38<426 498.725 671.275 744> 661 46<181.535 233.262 936.737 988.465>
VStem: 67 126<535.149 634.931> 505 160<45.0538 646.946> 977 126<535.149 634.931>
CounterMasks: 1 07
LayerCount: 2
Back
SplineSet
945 707 m 0
 1019 707 1081 674 1081 585 c 0
 1081 559 1066 521 1017 521 c 0
 979 521 955 530 955 571 c 0
 955 601 963 614 963 637 c 0
 963 655 959 661 944 661 c 0
EndSplineSet
Fore
SplineSet
33 -15 m 1xaf
 33 31 l 1
 38 31 l 2
 90 31 125 72 145 177 c 0
 174 332 268 358 360 375 c 1
 360 376 l 1
 314 399 297 445 273 541 c 0
 254 617 229 661 204 661 c 0
 189 661 185 654 185 636 c 0
 185 613 193 603 193 573 c 0
 193 524 160 521 133 521 c 0
 88 521 67 552 67 582 c 0
 67 675 129 707 203 707 c 0
 278 707 315 626 340 535 c 0
 364 449 381 389 491 389 c 2
 505 389 l 1
 505 341 l 1
 488 341 l 2
 373 341 327 258 306 125 c 0
 286 0 201 -15 96 -15 c 2
 33 -15 l 1xaf
426 0 m 1x77
 426 38 l 1
 497 41 505 46 505 97 c 2
 505 595 l 2
 505 646 497 651 426 654 c 1
 426 692 l 1
 744 692 l 1
 744 654 l 1
 673 651 665 646 665 595 c 2
 665 97 l 2
 665 46 673 41 744 38 c 1
 744 0 l 1
 426 0 l 1x77
665 341 m 1
 665 389 l 1
 679 389 l 2
 789 389 806 449 830 535 c 0
 855 626 892 707 967 707 c 0
 1041 707 1103 675 1103 582 c 0
 1103 552 1082 521 1037 521 c 0
 1010 521 977 524 977 573 c 0
 977 603 985 613 985 636 c 0
 985 654 981 661 966 661 c 0
 941 661 916 617 897 541 c 0
 873 445 856 399 810 376 c 1
 810 375 l 1
 902 358 996 332 1025 177 c 0
 1045 72 1080 31 1132 31 c 2
 1137 31 l 1
 1137 -15 l 1
 1074 -15 l 2xaf
 969 -15 884 0 864 125 c 0
 843 258 797 341 682 341 c 2
 665 341 l 1
EndSplineSet
EndChar

StartChar: afii10021
Encoding: 1044 1044 280
Width: 751
Flags: HMW
HStem: -190 20 0 46<39 64 258 476 477 718> 646 46<308 479>
VStem: 11 38<-190 -190> 246 62<371.111 638.29> 479 160<0 46 53.0347 638.29> 693 38<-190 -124.474>
CounterMasks: 2 0c 06
LayerCount: 2
Back
SplineSet
316 692 m 1
 487 692 l 1
 487 646 l 1
 316 646 l 1
 316 692 l 1
408 0 m 1
 408 38 l 1
 479 41 487 46 487 97 c 2
 487 592 l 2
 487 637 479 643 408 646 c 1
 408 692 l 1
 726 692 l 1
 726 654 l 1
 655 651 647 646 647 595 c 2
 647 97 l 2
 647 46 655 41 726 38 c 1
 726 0 l 1
 408 0 l 1
-23 117 m 0
 -23 180 3 196 46 196 c 0
 67 196 114 179 114 143 c 0
 114 117 88 95 88 67 c 0
 88 50 98 31 122 31 c 0
 200 31 254 237 254 595 c 0
 254 646 246 651 175 654 c 1
 175 692 l 1
 395 692 l 1
 395 646 l 1
 324 643 316 637 316 592 c 0
 316 220 251 -15 125 -15 c 0
 48 -15 -23 32 -23 117 c 0
EndSplineSet
Fore
SplineSet
11 -190 m 1
 24 46 l 1
 266 46 l 1
 265 0 l 17
 105 0 92 -31 49 -190 c 1
 11 -190 l 1
476 46 m 1
 718 46 l 1
 731 -190 l 1
 693 -190 l 1
 650 -31 637 0 477 0 c 9
 476 46 l 1
39 0 m 1
 39 46 l 1
 639 46 l 1
 639 0 l 1
 39 0 l 1
308 646 m 1
 308 692 l 1
 479 692 l 1
 479 646 l 1
 308 646 l 1
400 0 m 1
 400 46 l 1
 471 49 479 55 479 100 c 2
 479 592 l 2
 479 637 471 643 400 646 c 1
 400 692 l 1
 718 692 l 1
 718 654 l 1
 647 651 639 646 639 595 c 2
 639 100 l 2
 639 55 647 49 718 46 c 1
 718 0 l 1
 400 0 l 1
64 46 m 1
 150 46 246 237 246 595 c 0
 246 646 238 651 167 654 c 1
 167 692 l 1
 387 692 l 1
 387 646 l 1
 316 643 308 637 308 592 c 0
 308 220 207 0 67 0 c 1
 64 46 l 1
EndSplineSet
EndChar

StartChar: afii10049
Encoding: 1071 1071 281
Width: 760
Flags: HMW
HStem: -15 46<29 71.7142> 0 38<409 481.725 654.275 727> 299 46<336.815 485.134> 646 46<339.639 486.485>
VStem: 117 168<419.926 588.354> 488 160<45.0538 299 348.586 388 388 642.5>
LayerCount: 2
Fore
SplineSet
29 -15 m 1xbc
 29 31 l 1
 30 31 l 2
 65 31 104 73 128 177 c 0
 153 284 187 300 265 322 c 1
 265 325 l 1
 427 299 l 17
 330 299 310 235 289 125 c 0
 265 1 180 -15 75 -15 c 2
 29 -15 l 1xbc
117 508 m 0
 117 642 236 692 397 692 c 2
 727 692 l 1
 727 654 l 1
 656 651 648 646 648 595 c 2
 648 97 l 2
 648 46 656 41 727 38 c 1
 727 0 l 1
 409 0 l 1
 409 38 l 1x7c
 480 41 488 46 488 97 c 2
 488 299 l 1
 408 299 l 2
 326 299 244 326 194 358 c 0
 166 376 117 425 117 508 c 0
285 498 m 0
 285 423 311 345 409 345 c 2
 432 345 l 2
 471 345 488 350 488 388 c 2
 488 609 l 2
 488 637 480 646 429 646 c 2
 408 646 l 2
 341 646 285 596 285 498 c 0
EndSplineSet
EndChar

StartChar: afii10047
Encoding: 1069 1069 282
Width: 665
Flags: HMW
HStem: -15 46<202.903 358.371> 346 48<202 446> 661 46<206.327 358.256>
VStem: 42 140<94.5727 200.91> 65 38<494 494> 446 177<181.605 510.395>
LayerCount: 2
Back
SplineSet
280 -15 m 0
 134 -15 42 44 42 129 c 0
 42 180 60 212 111 212 c 0
 151 212 182 198 182 158 c 0
 182 130 175 132 175 91 c 0
 175 57 206 31 289 31 c 0
-61 346 m 0
 -61 572 51 707 281 707 c 0
 511 707 623 572 623 346 c 0
 623 120 511 -15 281 -15 c 0
 51 -15 -61 120 -61 346 c 0
116 346 m 0
 116 225 136 31 281 31 c 0
 428 31 446 225 446 346 c 0
 446 467 428 661 281 661 c 0
 134 661 116 467 116 346 c 0
EndSplineSet
Fore
SplineSet
202 346 m 1
 202 394 l 1
 446 394 l 1
 446 346 l 1
 202 346 l 1
42 132 m 0
 42 186 57 215 111 215 c 0
 151 215 182 200 182 158 c 0
 182 132 175 127 175 93 c 0
 175 67 198 31 289 31 c 0
 444 31 446 241 446 346 c 0
 446 451 444 661 289 661 c 0
 181 661 129 570 103 494 c 1
 65 494 l 1
 65 654 l 1
 125 694 230 707 280 707 c 0
 570 707 623 526 623 346 c 0
 623 166 571 -15 280 -15 c 0
 129 -15 42 47 42 132 c 0
EndSplineSet
EndChar

StartChar: afii10145
Encoding: 1039 1039 283
Width: 798
Flags: HMW
HStem: -190 20 0 46<171 627 690.527 765> 654 38<33 105.725 278.275 351 447 519.725 692.275 765>
VStem: 112 160<53.7104 646.946> 380 38<-190 -190> 526 160<53.0347 646.946>
LayerCount: 2
Fore
SplineSet
447 0 m 1
 447 46 l 1
 518 49 526 55 526 100 c 2
 526 595 l 2
 526 646 518 651 447 654 c 1
 447 692 l 1
 765 692 l 1
 765 654 l 1
 694 651 686 646 686 595 c 2
 686 100 l 2
 686 55 694 49 765 46 c 1
 765 0 l 1
 447 0 l 1
33 0 m 1
 33 38 l 1
 104 41 112 46 112 97 c 2
 112 595 l 2
 112 646 104 651 33 654 c 1
 33 692 l 1
 351 692 l 1
 351 654 l 1
 280 651 272 646 272 595 c 2
 272 100 l 2
 272 55 280 49 351 46 c 1
 351 0 l 1
 33 0 l 1
272 0 m 1
 272 46 l 1
 526 46 l 1
 526 0 l 1
 272 0 l 1
170 46 m 1
 628 46 l 1
 627 0 l 1
 475 0 451 -34 418 -190 c 1
 380 -190 l 1
 347 -34 323 0 171 0 c 1
 170 46 l 1
EndSplineSet
EndChar

StartChar: afii10037
Encoding: 1059 1059 284
Width: 732
Flags: MW
HStem: -15 46<200.712 293.133> 654 38<20 77.1698 279 323 480 536 649.817 712>
VStem: 82 143<68.9902 186.057>
DStem2: 337 466 96 603 0.45387 -0.891068<-192.126 184.697> 333 104 394 88 0.41758 0.90864<-72.1775 19.6962 216.584 575.949>
LayerCount: 2
Back
SplineSet
187.23 -68.7344 m 0
 51.9785 53.0469 76.3066 156.285 101.733 184.524 c 0
 132.514 218.71 186.252 206.656 213.005 182.567 c 0
 230.098 167.177 230.538 145.25 222.953 127.858 c 0
 182.87 41.4971 187.542 -7.11621 220.983 -37.2266 c 0
617 616 m 0
 622 637 620 647 600 649 c 2
 544 654 l 1
 544 692 l 1
 776 692 l 1
 776 654 l 1
 720 650 711 643 691 595 c 0
160 603 m 2
 146 646 135 652 84 654 c 1
 84 692 l 1
 387 692 l 1
 387 654 l 1
 339 649 l 2
 316 647 316 634 322 613 c 2
620 602 m 2
 390 88 l 2
688 602 m 2
 458 88 l 2
578 120 m 1
 347 576 l 2
405 120 m 1
 174 576 l 2
EndSplineSet
Fore
SplineSet
20 654 m 1
 20 692 l 1
 323 692 l 1
 323 654 l 1
 279 649 l 2
 239 644 257 625 337 466 c 2
 420 301 l 1
 423 301 l 1
 483 438 l 2
 515 511 532 551 553 616 c 0
 558 632 556 647 536 649 c 2
 480 654 l 1
 480 692 l 1
 712 692 l 1
 712 654 l 1
 656 650 647 643 627 595 c 10
 394 88 l 2
 350 -8 282 -15 230 -15 c 0
 138 -15 82 41 82 126 c 0
 82 184 119 205 151 205 c 0
 184 205 225 185 225 152 c 0
 225 118 206 89 206 68 c 0
 206 59 207 31 236 31 c 0
 276 31 316 65 333 104 c 2
 341 122 l 1
 96 603 l 18
 76 642 70 653 20 654 c 1
EndSplineSet
EndChar

StartChar: afii10025
Encoding: 1047 1047 285
Width: 647
Flags: MW
HStem: -15 46<196.297 369.531> 350 48<188 365.406> 494 21G<65 116> 661 46<201.65 363.987>
VStem: 42 140<92.8907 195.89> 65 38<494 494> 411 162<447.336 613.143> 434 175<101.971 272.134>
LayerCount: 2
Back
SplineSet
187.062 -50.4678 m 0
 29.4463 40.5322 31.7793 146.572 50.7793 179.481 c 0
 73.7793 219.318 128.849 218.701 160.025 200.7 c 0
 179.944 189.2 184.935 167.845 181.131 149.256 c 0
 159.879 56.4473 174.557 9.86914 213.527 -12.6309 c 0
EndSplineSet
Fore
SplineSet
42 129 m 0
 42 180 60 212 111 212 c 0
 151 212 182 198 182 158 c 0
 182 130 175 132 175 91 c 0
 175 57 206 31 289 31 c 0
 368 31 434 78 434 185 c 0
 434 280 387 350 287 350 c 2
 188 350 l 1
 188 398 l 1
 285 398 l 2
 381 398 411 454 411 528 c 0
 411 603 379 661 289 661 c 0
 168 661 129 570 103 494 c 1
 65 494 l 1
 65 654 l 1
 125 694 230 707 280 707 c 0
 414 707 573 676 573 536 c 0
 573 442 522 390 425 378 c 1
 425 376 l 1
 518 366 609 294 609 186 c 0
 609 38 460 -15 280 -15 c 0
 134 -15 42 44 42 129 c 0
EndSplineSet
EndChar

StartChar: cyrBreve
Encoding: 63185 63185 287
Width: 814
Flags: HMW
HStem: 745 45<346.07 477.93>
VStem: 204 135<836.478 933.321> 475 135<836.478 933.321>
LayerCount: 2
Back
SplineSet
339.958 729.318 m 0
 302.134 758.871 306.888 807.187 335.11 879.043 c 0
 343.139 900.69 340.898 918.937 323.562 932.481 c 0
 304.649 947.257 251.016 966.319 223.311 930.858 c 0
 177.136 871.759 219.439 765.103 311.639 693.07 c 0
EndSplineSet
Fore
SplineSet
204 865 m 0
 204 906 223 951 262 951 c 0
 318 951 339 924 339 900 c 0
 339 868 323 867 323 835 c 0
 323 816 352 790 407 790 c 0
 462 790 491 816 491 835 c 0
 491 867 475 868 475 900 c 0
 475 924 496 951 552 951 c 0
 591 951 610 906 610 865 c 0
 610 810 547 745 407 745 c 0
 267 745 204 810 204 865 c 0
EndSplineSet
EndChar

StartChar: afii10079
Encoding: 1085 1085 288
Width: 658
Flags: W
HStem: 0 38<29 89.9676 277 298 360 381 568.032 629> 231 46<245 413> 452 38<29 89.9676 277 298 360 381 568.032 629>
VStem: 94 151<42.9556 231 277 447.044> 413 151<42.9556 447.044>
LayerCount: 2
Back
SplineSet
26 0 m 5
 26 38 l 5
 83 41 91 45 91 87 c 6
 91 381 l 6
 91 421 83 430 67 432 c 6
 32 437 l 5
 32 473 l 5
 229 502 l 5
 242 433 l 5
 308 472 355 502 413 502 c 4
 516 502 563 442 564 348 c 6
 564 87 l 6
 564 45 572 41 629 38 c 5
 629 0 l 5
 360 0 l 5
 360 38 l 5
 381 40 l 6
 402 42 413 47 413 80 c 6
 413 334 l 6
 411 394 385 425 334 425 c 4
 292 425 265 402 252 376 c 4
 245 362 242 339 242 317 c 6
 242 80 l 6
 242 47 253 42 274 40 c 6
 295 38 l 5
 295 0 l 5
 26 0 l 5
EndSplineSet
Fore
SplineSet
245 231 m 1
 245 277 l 1
 413 277 l 1
 413 231 l 1
 245 231 l 1
360 0 m 1
 360 38 l 1
 381 40 l 2
 402 42 413 47 413 80 c 2
 413 410 l 2
 413 443 402 448 381 450 c 2
 360 452 l 1
 360 490 l 1
 629 490 l 1
 629 452 l 1
 572 449 564 445 564 403 c 2
 564 87 l 2
 564 45 572 41 629 38 c 1
 629 0 l 1
 360 0 l 1
29 0 m 1
 29 38 l 1
 86 41 94 45 94 87 c 2
 94 403 l 2
 94 445 86 449 29 452 c 1
 29 490 l 1
 298 490 l 1
 298 452 l 1
 277 450 l 2
 256 448 245 443 245 410 c 2
 245 80 l 2
 245 47 256 42 277 40 c 2
 298 38 l 1
 298 0 l 1
 29 0 l 1
EndSplineSet
EndChar

StartChar: afii10081
Encoding: 1087 1087 289
Width: 656
Flags: HMW
HStem: 0 38<29 89.9676 277 298 358 379 566.032 627> 444 46<245 411>
VStem: 94 151<42.9556 87 87 441.489> 411 151<42.9556 441.489>
LayerCount: 2
Back
SplineSet
413 231 m 5
 245 231 l 5
 245 277 l 5
 413 277 l 5
 413 231 l 5
360 0 m 5
 360 38 l 5
 381 40 l 6
 402 42 413 47 413 80 c 6
 413 410 l 6
 413 443 402 448 381 450 c 6
 360 452 l 5
 360 490 l 5
 629 490 l 5
 629 452 l 5
 572 449 564 445 564 403 c 6
 564 87 l 6
 564 45 572 41 629 38 c 5
 629 0 l 5
 360 0 l 5
29 0 m 5
 29 38 l 5
 86 41 94 45 94 87 c 6
 94 403 l 6
 94 445 86 449 29 452 c 5
 29 490 l 5
 298 490 l 5
 298 452 l 5
 277 450 l 6
 256 448 245 443 245 410 c 6
 245 80 l 6
 245 47 256 42 277 40 c 6
 298 38 l 5
 298 0 l 5
 29 0 l 5
EndSplineSet
Fore
SplineSet
245 444 m 1
 245 490 l 1
 411 490 l 1
 411 444 l 1
 245 444 l 1
358 0 m 1
 358 38 l 1
 379 40 l 2
 400 42 411 47 411 80 c 2
 411 405 l 2
 411 439 400 441 379 443 c 2
 358 444 l 1
 358 490 l 1
 627 490 l 1
 627 452 l 1
 570 449 562 445 562 403 c 2
 562 87 l 2
 562 45 570 41 627 38 c 1
 627 0 l 1
 358 0 l 1
29 0 m 1
 29 38 l 1
 86 41 94 45 94 87 c 2
 94 403 l 2
 94 445 86 449 29 452 c 1
 29 490 l 1
 298 490 l 1
 298 444 l 1
 277 443 l 2
 256 441 245 439 245 405 c 2
 245 80 l 2
 245 47 256 42 277 40 c 2
 298 38 l 1
 298 0 l 1
 29 0 l 1
EndSplineSet
EndChar

StartChar: afii10074
Encoding: 1080 1080 290
Width: 660
Flags: HW
HStem: 0 38<29 89.9676 277 298 362 383 570.032 631> 452 38<29 89.9676 277 298 362 383 570.032 631>
VStem: 94 151<42.9556 87 87 447.044> 415 151<42.9556 443>
LayerCount: 2
Fore
SplineSet
158 90 m 1
 462 451 l 1
 502 418 l 1
 198 57 l 1
 158 90 l 1
362 0 m 1
 362 38 l 1
 383 40 l 2
 404 42 415 47 415 80 c 2
 415 410 l 2
 415 443 404 448 383 450 c 2
 362 452 l 1
 362 490 l 1
 631 490 l 1
 631 452 l 1
 574 449 566 445 566 403 c 2
 566 87 l 2
 566 45 574 41 631 38 c 1
 631 0 l 1
 362 0 l 1
29 0 m 1
 29 38 l 1
 86 41 94 45 94 87 c 2
 94 403 l 2
 94 445 86 449 29 452 c 1
 29 490 l 1
 298 490 l 1
 298 452 l 1
 277 450 l 2
 256 448 245 443 245 410 c 2
 245 80 l 2
 245 47 256 42 277 40 c 2
 298 38 l 1
 298 0 l 1
 29 0 l 1
EndSplineSet
EndChar

StartChar: afii10088
Encoding: 1094 1094 291
Width: 654
Flags: HMW
HStem: -168 20 0 46<245 409 452 625> 452 38<29 89.9676 277 298 356 377 564.032 625>
VStem: 94 151<48.5105 87 87 447.044> 409 151<49.1935 447.044> 609 38<-168 -99.0234>
CounterMasks: 1 0c
LayerCount: 2
Back
SplineSet
245 46 m 1
 411 46 l 1
 411 0 l 1
 245 0 l 1
 245 46 l 1
298 490 m 1
 298 452 l 1
 277 450 l 2
 256 448 245 443 245 410 c 2
 245 85 l 2
 245 51 256 49 277 47 c 2
 298 46 l 1
 298 0 l 1
 29 0 l 1
 29 38 l 1
 86 41 94 45 94 87 c 2
 94 403 l 2
 94 445 86 449 29 452 c 1
 29 490 l 1
 298 490 l 1
627 490 m 1
 627 452 l 1
 570 449 562 445 562 403 c 2
 562 87 l 2
 562 45 570 41 627 38 c 1
 627 0 l 1
 358 0 l 1
 358 46 l 1
 379 47 l 2
 400 49 411 51 411 85 c 2
 411 410 l 2
 411 443 400 448 379 450 c 2
 358 452 l 1
 358 490 l 1
 627 490 l 1
EndSplineSet
Fore
SplineSet
434 0 m 13
 452 46 l 29
 631 46 l 21
 647 -168 l 5
 609 -168 l 5
 582 -24 531 0 434 0 c 13
245 0 m 1
 245 46 l 1
 409 46 l 1
 409 0 l 1
 245 0 l 1
29 0 m 1
 29 38 l 1
 86 41 94 45 94 87 c 2
 94 403 l 2
 94 445 86 449 29 452 c 1
 29 490 l 1
 298 490 l 1
 298 452 l 1
 277 450 l 2
 256 448 245 443 245 410 c 2
 245 85 l 2
 245 51 256 49 277 47 c 2
 298 46 l 1
 298 0 l 1
 29 0 l 1
356 0 m 1
 356 46 l 1
 377 47 l 2
 398 49 409 51 409 85 c 2
 409 410 l 2
 409 443 398 448 377 450 c 2
 356 452 l 1
 356 490 l 1
 625 490 l 1
 625 452 l 1
 568 449 560 445 560 403 c 2
 560 89 l 2
 560 49 565 48 625 46 c 1
 625 0 l 1
 356 0 l 1
EndSplineSet
EndChar

StartChar: afii10090
Encoding: 1096 1096 292
Width: 951
Flags: HMW
HStem: 0 46<245 706> 452 38<29 89.9676 277 298 347 368 583 604 653 674 861.032 922>
VStem: 94 151<48.5105 87 87 447.044> 400 151<48.3359 448.394> 706 151<48.5105 447.044>
CounterMasks: 1 38
LayerCount: 2
Fore
SplineSet
29 0 m 1
 29 38 l 1
 86 41 94 45 94 87 c 2
 94 403 l 2
 94 445 86 449 29 452 c 1
 29 490 l 1
 298 490 l 1
 298 452 l 1
 277 450 l 2
 256 448 245 443 245 410 c 2
 245 85 l 2
 245 51 256 49 277 47 c 2
 298 46 l 1
 298 0 l 1
 29 0 l 1
245 0 m 1
 245 46 l 1
 706 46 l 1
 706 0 l 1
 245 0 l 1
347 0 m 1
 347 46 l 1
 368 47 l 2
 389 49 400 51 400 85 c 2
 400 410 l 2
 400 443 389 448 368 450 c 2
 347 452 l 1
 347 490 l 1
 604 490 l 1
 604 452 l 1
 583 450 l 2
 562 448 551 443 551 410 c 2
 551 85 l 2
 551 51 562 49 583 47 c 2
 604 46 l 1
 604 0 l 1
 347 0 l 1
653 0 m 1
 653 46 l 1
 674 47 l 2
 695 49 706 51 706 85 c 2
 706 410 l 2
 706 443 695 448 674 450 c 2
 653 452 l 1
 653 490 l 1
 922 490 l 1
 922 452 l 1
 865 449 857 445 857 403 c 2
 857 87 l 2
 857 45 865 41 922 38 c 1
 922 0 l 1
 653 0 l 1
EndSplineSet
EndChar

StartChar: afii10091
Encoding: 1097 1097 293
Width: 951
Flags: HMW
HStem: -168 20 0 46<245 706> 452 38<29 89.9676 277 298 347 368 583 604 653 674 861.032 922>
VStem: 94 151<48.5105 87 87 447.044> 400 151<48.3359 448.394> 706 151<48.5105 447.044> 906 38<-168 -99.0234>
CounterMasks: 2 1c 06
LayerCount: 2
Fore
SplineSet
731 0 m 9
 749 46 l 25
 928 46 l 17
 944 -168 l 1
 906 -168 l 1
 879 -24 828 0 731 0 c 9
653 0 m 1
 653 46 l 1
 674 47 l 2
 695 49 706 51 706 85 c 2
 706 410 l 2
 706 443 695 448 674 450 c 2
 653 452 l 1
 653 490 l 1
 922 490 l 1
 922 452 l 1
 865 449 857 445 857 403 c 2
 857 89 l 2
 857 49 862 48 922 46 c 1
 922 0 l 1
 653 0 l 1
29 0 m 1
 29 38 l 1
 86 41 94 45 94 87 c 2
 94 403 l 2
 94 445 86 449 29 452 c 1
 29 490 l 1
 298 490 l 1
 298 452 l 1
 277 450 l 2
 256 448 245 443 245 410 c 2
 245 85 l 2
 245 51 256 49 277 47 c 2
 298 46 l 1
 298 0 l 1
 29 0 l 1
245 0 m 1
 245 46 l 1
 706 46 l 1
 706 0 l 1
 245 0 l 1
347 0 m 1
 347 46 l 1
 368 47 l 2
 389 49 400 51 400 85 c 2
 400 410 l 2
 400 443 389 448 368 450 c 2
 347 452 l 1
 347 490 l 1
 604 490 l 1
 604 452 l 1
 583 450 l 2
 562 448 551 443 551 410 c 2
 551 85 l 2
 551 51 562 49 583 47 c 2
 604 46 l 1
 604 0 l 1
 347 0 l 1
EndSplineSet
EndChar

StartChar: afii10096
Encoding: 1102 1102 294
Width: 899
Flags: W
HStem: -12 46<554.452 657.548> 0 38<29 89.9676 249.032 310> 231 46<245 348> 452 38<29 89.9676 249.032 310> 456 46<554.452 657.548>
VStem: 94 151<42.9511 231 277 447.049> 347 159<119.699 370.301> 706 159<119.699 370.301>
LayerCount: 2
Fore
SplineSet
245 231 m 1x27
 245 277 l 1
 348 277 l 1
 348 231 l 1
 245 231 l 1x27
29 0 m 1x77
 29 38 l 1
 86 41 94 45 94 87 c 2
 94 403 l 2
 94 445 86 449 29 452 c 1
 29 490 l 1
 310 490 l 1
 310 452 l 1
 253 449 245 445 245 403 c 2
 245 87 l 2
 245 45 253 41 310 38 c 1
 310 0 l 1
 29 0 l 1x77
EndSplineSet
Refer: 79 111 N 1 0 0 1 313 0 2
EndChar

StartChar: afii10078
Encoding: 1084 1084 295
Width: 769
VWidth: 0
Flags: HW
HStem: 0 38<29 89.9676 153.032 214 459 519.968 679.032 740> 452 38<29 89.9676 679.032 740>
VStem: 94 55<42.9511 371> 524 151<42.9511 383>
DStem2: 242 490 151 371 0.434191 -0.900821<67.6863 317.521> 384 205 362 10 0.394217 0.919018<0 217.987>
LayerCount: 2
Back
SplineSet
215 -139.2 m 1
 503 532.2 l 1
213.4 515.4 m 1
 526.6 -134.4 l 1
131 371 m 1
 305 10 l 1
 342 10 l 1
 502 383 l 1
EndSplineSet
Fore
SplineSet
29 0 m 1
 29 38 l 1
 86 41 94 45 94 87 c 2
 94 403 l 2
 94 445 86 449 29 452 c 1
 29 490 l 1
 242 490 l 1
 265 448 315 350 328 317 c 2
 382 205 l 1
 384 205 l 1
 437 330 l 2
 458 385 488 450 508 490 c 1
 740 490 l 1
 740 452 l 1
 683 449 675 445 675 403 c 2
 675 87 l 2
 675 45 683 41 740 38 c 1
 740 0 l 1
 459 0 l 1
 459 38 l 1
 516 41 524 45 524 87 c 2
 524 383 l 1
 522 383 l 1
 362 10 l 1
 325 10 l 1
 151 371 l 1
 149 371 l 1
 149 87 l 2
 149 45 157 41 214 38 c 1
 214 0 l 1
 29 0 l 1
EndSplineSet
EndChar

StartChar: afii10095
Encoding: 1101 1101 296
Width: 494
VWidth: 0
Flags: HMW
HStem: -12 50<150.882 241.458> 237 46<130 130> 456 46<144 257.136>
VStem: 28 132<74.6109 175.404> 303 157<119.709 366.841>
LayerCount: 2
Back
SplineSet
267.361 -1.58105 m 0
 113.618 -5.45508 61.1543 22.958 35.3066 86.9346 c 0
 21.0703 122.167 27.2148 171.027 63.375 185.638 c 0
 98.6074 199.871 150.465 186.31 162.452 156.639 c 0
 168.82 140.879 165.702 129.911 159.839 107.051 c 0
 155.062 92.1797 155.295 78.252 159.417 68.0518 c 0
 168.407 45.7988 195.889 47.1934 219.46 50.248 c 0
91.5498 4.44824 m 0
 11.0986 79.4668 21.5 146.341 46.7354 173.4 c 0
 69.9229 198.266 116.276 187.856 139.68 166.034 c 0
 157.231 149.666 157.093 133.385 152.129 113.402 c 0
 135.878 51.9854 131.696 29.9072 143.398 18.9941 c 0
 152.174 10.8096 168.455 10.6709 186.186 29.6885 c 0
505 241 m 0
 505 328 479 393 437 435 c 0
 392 480 330 502 252 502 c 0
 161 502 61 463 61 392 c 0
 61 348 109 330 144 330 c 0
 170 330 185 342 192 365 c 0
 209 425 226 456 261 456 c 0
 303 456 346 399 346 265 c 0
 346 109 283 65 218 65 c 0
 163 65 124 88 90 156 c 1
 55 140 l 1
 94 16 187 -12 270 -12 c 0
 411 -12 505 73 505 241 c 0
EndSplineSet
Fore
SplineSet
130 237 m 1
 130 283 l 1
 304 283 l 1
 304 237 l 1
 130 237 l 1
28 117 m 0
 28 157 45 190 89 190 c 0
 128.5 190 160 168 160 139 c 0
 160 123 148 86.6667 148 74 c 0
 148 46 173 38 189 38 c 0
 288 38 303 183 303 245 c 0
 303 345 292 456 205 456 c 0
 143 456 108 402 90 346 c 1
 54 346 l 1
 54 457 l 1
 104 494 166 502 207 502 c 0
 425 502 460 346 460 245 c 0
 460 134 438 -12 206 -12 c 0
 102 -12 28 57 28 117 c 0
EndSplineSet
EndChar

StartChar: afii10094
Encoding: 1100 1100 297
Width: 571
VWidth: 0
Flags: HW
HStem: 0 44<29 92.6662 261 360.732> 239 46<245.593 357.23> 452 38<29 89.9676 249.032 310>
VStem: 94 151<42.9511 447.049> 385 159<69.0556 211.541>
LayerCount: 2
Fore
SplineSet
29 0 m 1
 29 38 l 1
 86 41 94 45 94 87 c 2
 94 403 l 2
 94 445 86 449 29 452 c 1
 29 490 l 1
 320 490 l 1
 320 452 l 1
 252 449 245 445 245 403 c 2
 245 277 l 1
 262 281 289 285 316 285 c 0
 392 285 544 277 544 138 c 0
 544 28 466 0 314 0 c 2
 29 0 l 1
245 88 m 2
 245 55 261 44 296 44 c 0
 346 44 385 63 385 144 c 0
 385 221 338 239 284 239 c 0
 270 239 253 235 245 231 c 1
 245 88 l 2
EndSplineSet
EndChar

StartChar: afii10089
Encoding: 1095 1095 298
Width: 640
VWidth: 0
Flags: HW
HStem: 0 38<330 390.968 550.032 611> 174 77<172.5 329.949> 452 38<19 79.9676 267 288 342 363 550.032 611>
VStem: 84 151<259.31 447.044> 395 151<42.9511 231 304 447.044>
LayerCount: 2
Fore
SplineSet
320 0 m 1
 320 38 l 1
 388 41 395 45 395 87 c 2
 395 410 l 2
 395 443 384 448 363 450 c 2
 342 452 l 1
 342 490 l 1
 611 490 l 1
 611 452 l 1
 554 449 546 445 546 403 c 2
 546 87 l 2
 546 45 554 41 611 38 c 1
 611 0 l 1
 320 0 l 1
19 452 m 1
 19 490 l 1
 288 490 l 1
 288 452 l 1
 267 450 l 2
 246 448 235 443 235 410 c 2
 235 310 l 2
 235 267 246 251 294 251 c 0
 313 251 328 252 354 258 c 0
 387 266 395 283 395 304 c 1
 395 231 l 1
 340 198 300 174 222 174 c 0
 123 174 84 214 84 312 c 2
 84 403 l 2
 84 445 76 449 19 452 c 1
EndSplineSet
EndChar

StartChar: afii10073
Encoding: 1079 1079 299
Width: 522
VWidth: 0
Flags: MW
HStem: -12 46<154.674 298.794> 240 46<162 285.498> 456 46<142.588 284.939>
VStem: 28 131<73.9 179.875> 52 36<346 346> 309 148<310.875 432.492> 331 157<63.839 196.277>
LayerCount: 2
Back
SplineSet
35.3066 89.9346 m 0
 21.0703 125.167 27.2148 174.027 63.375 188.638 c 0
 98.6074 202.871 150.465 189.31 162.452 159.639 c 0
 168.82 143.879 165.702 132.911 159.839 110.051 c 0
 155.062 95.1797 155.295 81.252 159.417 71.0518 c 0
 168.407 48.7988 195.889 50.1934 219.46 53.248 c 0
91.5498 7.44824 m 0
 11.0986 82.4668 21.5 149.341 46.7354 176.4 c 0
 69.9229 201.266 116.276 190.856 139.68 169.034 c 0
 157.231 152.666 157.093 136.385 152.129 116.402 c 0
 135.878 54.9854 131.696 32.9072 143.398 21.9941 c 0
 152.174 13.8096 168.455 13.6709 186.186 32.6885 c 0
EndSplineSet
Fore
SplineSet
28 123 m 0xf2
 28 154 40 193 89 193 c 0
 126 193 159 175 159 142 c 0
 159 124 148 92 148 73 c 0
 148 54 170 34 227 34 c 0
 283 34 331 57 331 129 c 0xf2
 331 193 296 240 225 240 c 2
 162 240 l 1
 162 286 l 1
 221 286 l 2
 287 286 309 323 309 373 c 0
 309 423 284 456 218 456 c 0
 128 456 107 399 88 346 c 1
 52 346 l 1
 52 457 l 1
 102 494 158 502 241 502 c 0
 355 502 457 473 457 379 c 0xec
 457 308 415 277 322 267 c 1
 322 265 l 1
 410 256 488 216 488 125 c 0
 488 23 395 -12 241 -12 c 0
 103 -12 28 47 28 123 c 0xf2
EndSplineSet
EndChar

StartChar: afii10093
Encoding: 1099 1099 300
Width: 878
VWidth: 0
Flags: HMW
HStem: 0 44<29 92.6662 261 360.732> 239 46<245.593 357.23> 452 38<29 89.9676 249.032 310 568 628.968 788.032 849>
VStem: 94 151<42.9511 447.049> 385 159<69.0556 211.541> 633 151<42.9511 447.049>
LayerCount: 2
Fore
SplineSet
568 0 m 5
 568 38 l 5
 625 41 633 45 633 87 c 6
 633 403 l 6
 633 445 625 449 568 452 c 5
 568 490 l 5
 849 490 l 5
 849 452 l 5
 792 449 784 445 784 403 c 6
 784 87 l 6
 784 45 792 41 849 38 c 5
 849 0 l 5
 568 0 l 5
EndSplineSet
Refer: 297 1100 N 1 0 0 1 0 0 2
EndChar

StartChar: afii10086
Encoding: 1092 1092 301
Width: 859
Flags: HMW
HStem: -230 38<271 348.898 510.102 588> -12 46<242.3 319.138 539.862 616.7> 456 46<242.3 323.985 535.015 616.7> 679 63<295 498>
VStem: 34 159<110.834 379.166> 354 151<-185.368 355 355 672.536> 666 159<110.834 379.166>
CounterMasks: 1 0e
LayerCount: 2
Fore
SplineSet
34 245 m 0
 34 415 105 502 265 502 c 0
 298 502 322 492 353 459 c 1
 354 459 l 1
 354 355 l 1
 354 430 301 456 283 456 c 0
 218 456 193 330 193 245 c 0
 193 160 218 34 283 34 c 0
 301 34 354 75 354 135 c 1
 354 31 l 1
 353 31 l 1
 322 -2 298 -12 265 -12 c 0
 105 -12 34 75 34 245 c 0
271 -192 m 1
 344 -189 354 -185 354 -143 c 2
 354 621 l 2
 354 661 346 670 330 673 c 2
 295 679 l 1
 295 715 l 1
 498 742 l 1
 505 736 l 1
 505 -143 l 2
 505 -185 515 -189 588 -192 c 1
 588 -230 l 1
 271 -230 l 1
 271 -192 l 1
505 31 m 1
 505 135 l 1
 505 75 558 34 576 34 c 0
 641 34 666 160 666 245 c 0
 666 330 641 456 576 456 c 0
 558 456 505 430 505 355 c 1
 505 459 l 1
 506 459 l 1
 537 492 561 502 594 502 c 0
 754 502 825 415 825 245 c 0
 825 75 754 -12 594 -12 c 0
 561 -12 537 -2 506 31 c 1
 505 31 l 1
EndSplineSet
EndChar

StartChar: afii10092
Encoding: 1098 1098 302
Width: 700
VWidth: 0
Flags: HMW
HStem: 0 44<158 221.666 390 489.732> 239 46<374.593 486.23> 444 46<103.814 176 176 260>
VStem: 15 39<322 377.766> 223 151<42.9511 442.732> 514 159<69.0556 211.541>
LayerCount: 2
Fore
SplineSet
15 322 m 1
 15 490 l 1
 449 490 l 1
 449 452 l 1
 381 449 374 445 374 403 c 2
 374 277 l 1
 391 281 418 285 445 285 c 0
 521 285 673 277 673 138 c 0
 673 28 595 0 443 0 c 2
 148 0 l 1
 148 38 l 1
 216 41 223 45 223 87 c 2
 223 405 l 2
 223 444 206 444 182 444 c 2
 176 444 l 2
 103 444 78 409 54 322 c 1
 15 322 l 1
374 88 m 2
 374 55 390 44 425 44 c 0
 475 44 514 63 514 144 c 0
 514 221 467 239 413 239 c 0
 399 239 382 235 374 231 c 1
 374 88 l 2
EndSplineSet
EndChar

StartChar: afii10068
Encoding: 1075 1075 303
Width: 492
Flags: HMW
HStem: 0 38<29 89.9676 249.527 324> 444 46<252 389.599>
VStem: 94 151<44.1788 441.489> 432 39<322 387.074>
LayerCount: 2
Fore
SplineSet
189 490 m 1
 471 490 l 1
 471 322 l 1
 432 322 l 1
 407 409 394 444 302 444 c 10
 252 444 l 25
 189 490 l 1
29 0 m 1
 29 38 l 1
 86 41 94 45 94 87 c 2
 94 403 l 2
 94 445 86 449 29 452 c 1
 29 490 l 1
 298 490 l 1
 298 444 l 1
 277 443 l 2
 256 441 245 439 245 405 c 2
 245 87 l 2
 245 45 253 41 324 38 c 1
 324 0 l 1
 29 0 l 1
EndSplineSet
EndChar

StartChar: afii10084
Encoding: 1090 1090 304
Width: 531
Flags: HMW
HStem: 0 38<107 184.898 346.102 424> 310 20 444 46<103.756 190 341 427.244>
VStem: 21 38<310 380.252> 190 151<44.6321 442.98> 472 38<310 380.252>
LayerCount: 2
Fore
SplineSet
107 0 m 1
 107 38 l 1
 180 41 190 45 190 87 c 2
 190 405 l 2
 190 444 173 444 149 444 c 1
 125 490 l 1
 406 490 l 1
 382 444 l 1
 358 444 341 444 341 405 c 2
 341 87 l 2
 341 45 351 41 424 38 c 1
 424 0 l 1
 107 0 l 1
21 310 m 1
 21 490 l 1
 191 490 l 1
 190 444 l 1
 148 444 l 2
 103 444 73 392 59 310 c 1
 21 310 l 1
340 490 m 1
 510 490 l 1
 510 310 l 1
 472 310 l 1
 458 392 428 444 383 444 c 2
 341 444 l 1
 340 490 l 1
EndSplineSet
EndChar

StartChar: afii10067
Encoding: 1074 1074 305
Width: 571
VWidth: 0
Flags: MW
HStem: 0 44<29 92.6662 248.864 355.027> 232 46<245 345.107> 444 46<245.956 348.607>
VStem: 94 151<48.5105 232 278 442.125> 372 148<314.767 422.33> 385 159<69.7204 201.171>
LayerCount: 2
Back
SplineSet
29 0 m 1
 29 38 l 1
 86 41 94 45 94 87 c 2
 94 403 l 2
 94 445 86 449 29 452 c 1
 29 490 l 1
 310 490 l 1
 310 452 l 1
 253 449 245 445 245 403 c 2
 245 87 l 2
 245 45 253 41 310 38 c 1
 310 0 l 1
 29 0 l 1
245 277 m 17
 262 281 289 285 316 285 c 0
 392 285 544 277 544 138 c 0
 544 28 466 0 314 0 c 2
 208 0 l 1
 245 88 l 1
 245 55 261 44 296 44 c 0
 346 44 385 63 385 144 c 0
 385 221 338 239 284 239 c 0
 270 239 253 235 245 231 c 1
 245 277 l 17
EndSplineSet
Fore
SplineSet
29 0 m 1xf4
 29 38 l 1
 86 41 94 45 94 87 c 2
 94 403 l 2
 94 445 86 449 29 452 c 1
 29 490 l 1
 313 490 l 2
 445 490 520 454 520 372 c 0xf8
 520 313 470 277 382 264 c 1
 382 262 l 1
 467 249 544 221 544 137 c 0
 544 22 467 0 314 0 c 2
 29 0 l 1xf4
245 88 m 2
 245 55 261 44 296 44 c 0
 346 44 385 67 385 139 c 0xf4
 385 195 352 232 281 232 c 2
 245 232 l 1
 245 88 l 2
245 278 m 1
 279 278 l 2
 345 278 372 317 372 363 c 0xf8
 372 410 348 444 285 444 c 0
 258 444 245 436 245 413 c 2
 245 278 l 1
EndSplineSet
EndChar

StartChar: afii10066
Encoding: 1073 1073 306
Width: 586
Flags: W
HStem: -12 46<238.562 344.548> 456 46<239.061 344.548> 610 109<209.374 428.876>
VStem: 38 43<379 484.119> 393 159<119.699 370.301>
LayerCount: 2
Back
SplineSet
34 245 m 0
 34 405 111 502 293 502 c 0
 475 502 552 405 552 245 c 0
 552 85 475 -12 293 -12 c 0
 111 -12 34 85 34 245 c 0
193 245 m 0
 193 111 222 34 293 34 c 0
 364 34 393 111 393 245 c 0
 393 379 364 456 293 456 c 0
 222 456 193 379 193 245 c 0
34 242 m 17xd8
 34 343 l 2
 34 422 35 490 60 558 c 0
 78 606 146 712 304 719 c 0
 404 723 470 728 487 759 c 9
 523 759 l 17
 484 641 409 613 343 610 c 0
 196 604 156 580 107 504 c 0
 93 482 79 452 75 408 c 9
 79 406 l 25xe8
 34 242 l 17xd8
EndSplineSet
Fore
SplineSet
193 245 m 0
 193 111 222 34 293 34 c 0
 364 34 393 111 393 245 c 0
 393 379 364 456 293 456 c 0
 222 456 193 379 193 245 c 0
38 306 m 0
 38 380 45 491 73 556 c 0
 95 607 153 713 308 719 c 0
 408 723 474 728 491 759 c 1
 527 759 l 1
 488 641 413 613 347 610 c 0
 200 603 160 580 111 504 c 0
 97 482 81 424 81 379 c 1
 85 377 l 1
 117 446 182 502 293 502 c 0
 475 502 552 405 552 245 c 0
 552 85 475 -12 293 -12 c 0
 43 -12 38 182 38 306 c 0
EndSplineSet
EndChar

StartChar: afii10077
Encoding: 1083 1083 307
Width: 644
VWidth: 0
Flags: HMW
HStem: -12 46<126.79 180.434> 0 38<346 367 554.032 615> 444 46<257 388>
VStem: 15 129<55.9411 157.49> 226 55<187.752 441.489> 399 151<42.9556 441.489>
CounterMasks: 1 0c
LayerCount: 2
Back
SplineSet
240.074 -32.6123 m 0
 86.7676 -20.3955 37.5605 13.3477 18.543 79.6748 c 0
 8.06836 116.202 19.2852 164.152 56.7754 174.903 c 0
 93.3018 185.376 143.457 166.468 152.278 135.706 c 0
 156.964 119.367 152.715 108.786 144.495 86.6631 c 0
 138.19 72.3721 136.967 58.4971 140 47.9219 c 0
 146.614 24.8516 174.089 23.3662 197.853 23.9395 c 0
65.8545 -8.23926 m 0
 -6.31348 74.7793 11.0215 140.198 38.9463 164.472 c 0
 64.6064 186.777 109.617 171.58 130.612 147.431 c 0
 146.357 129.317 144.518 113.141 137.492 93.7861 c 0
 114.91 34.4053 108.444 12.8838 118.94 0.807617 c 0
 126.812 -8.24902 142.989 -10.0889 162.611 6.9707 c 0
EndSplineSet
Fore
SplineSet
245 490 m 1x3c
 399 490 l 1
 387 444 l 1
 257 444 l 1
 245 490 l 1x3c
346 0 m 1x7c
 346 38 l 1
 367 40 l 2
 388 42 399 47 399 80 c 2
 399 405 l 2
 399 439 388 441 367 443 c 2
 346 444 l 1
 346 490 l 1
 615 490 l 1
 615 452 l 1
 558 449 550 445 550 403 c 2
 550 87 l 2
 550 45 558 41 615 38 c 1
 615 0 l 1
 346 0 l 1x7c
15 98 m 0
 15 157 42 175 75 175 c 0
 106 175 144 150 144 122 c 0
 144 100 126 75 126 55 c 0
 126 40 136 34 149 34 c 0
 225 34 226 282 226 403 c 0
 226 445 218 449 161 452 c 1
 161 490 l 1
 334 490 l 1
 334 444 l 1
 313 443 l 2
 292 441 281 439 281 405 c 0
 281 222 280 -12 151 -12 c 0xbc
 50 -12 15 56 15 98 c 0
EndSplineSet
EndChar

StartChar: afii10069
Encoding: 1076 1076 308
Width: 584
VWidth: 0
Flags: HMW
HStem: -168 20 0 46<45 59 204 339 376 555> 444 46<197 328>
VStem: 9 38<-168 -99.0234> 166 55<188.251 441.489> 339 151<49.1935 441.489> 533 38<-168 -99.0234>
CounterMasks: 2 0c 06
LayerCount: 2
Back
SplineSet
387 444 m 5
 257 444 l 5
 245 490 l 5
 399 490 l 5
 387 444 l 5
346 0 m 5
 346 38 l 5
 367 40 l 6
 388 42 399 47 399 80 c 6
 399 405 l 6
 399 439 388 441 367 443 c 6
 346 444 l 5
 346 490 l 5
 615 490 l 5
 615 452 l 5
 558 449 550 445 550 403 c 6
 550 87 l 6
 550 45 558 41 615 38 c 5
 615 0 l 5
 346 0 l 5
15 98 m 4
 15 156 50 165 75 165 c 4
 102 165 131 148 131 120 c 4
 131 88 125 83 125 58 c 4
 125 41 134 34 149 34 c 4
 225 34 226 282 226 403 c 4
 226 445 218 449 161 452 c 5
 161 490 l 5
 334 490 l 5
 334 444 l 5
 313 443 l 6
 292 441 281 439 281 405 c 4
 281 222 280 -12 151 -12 c 4
 50 -12 15 56 15 98 c 4
EndSplineSet
Fore
SplineSet
9 -168 m 1
 25 46 l 9
 204 46 l 25
 222 0 l 17
 125 0 74 -24 47 -168 c 1
 9 -168 l 1
358 0 m 9
 376 46 l 25
 555 46 l 17
 571 -168 l 1
 533 -168 l 1
 506 -24 455 0 358 0 c 9
45 0 m 1
 45 46 l 1
 339 46 l 1
 339 0 l 1
 45 0 l 1
185 490 m 1
 339 490 l 1
 327 444 l 1
 197 444 l 1
 185 490 l 1
286 0 m 1
 286 46 l 1
 307 47 l 2
 328 49 339 51 339 85 c 2
 339 405 l 2
 339 439 328 441 307 443 c 2
 286 444 l 1
 286 490 l 1
 555 490 l 1
 555 452 l 1
 498 449 490 445 490 403 c 2
 490 89 l 2
 490 49 495 48 555 46 c 1
 555 0 l 1
 286 0 l 1
59 46 m 1
 146 46 166 282 166 403 c 0
 166 445 158 449 101 452 c 1
 101 490 l 1
 274 490 l 1
 274 444 l 1
 253 443 l 2
 232 441 221 439 221 405 c 0
 221 222 185 0 68 0 c 1
 59 46 l 1
EndSplineSet
EndChar

StartChar: cyrbreve
Encoding: 63188 63188 310
Width: 660
VWidth: 0
Flags: MW
HStem: 557 46<269.906 390.094>
VStem: 150 129<638.747 731.017> 381 129<638.747 731.017>
LayerCount: 2
Back
SplineSet
372.129 540.826 m 0
 219.06 555.717 170.449 590.312 152.591 656.962 c 0
 142.754 693.666 154.808 741.414 192.479 751.508 c 0
 229.184 761.343 279.002 741.562 287.283 710.651 c 0
 291.684 694.232 287.252 683.727 278.646 661.751 c 0
 272.092 647.573 270.627 633.721 273.476 623.095 c 0
 279.687 599.911 307.133 597.946 330.9 598.106 c 0
198.362 568.236 m 0
 127.652 652.5 146.127 717.608 174.472 741.391 c 0
 200.518 763.244 245.256 747.264 265.825 722.752 c 0
 281.252 704.367 279.131 688.224 271.768 668.995 c 0
 248.153 610.016 241.312 588.613 251.598 576.354 c 0
 259.31 567.161 275.452 565.04 295.369 581.756 c 0
EndSplineSet
Fore
SplineSet
150 682 m 0
 150 738 184 748 205 748 c 0
 258 748 279 710 279 694 c 0
 279 666 267 654 267 638 c 0
 267 617 278 603 330 603 c 0
 382 603 393 617 393 638 c 0
 393 654 381 666 381 694 c 0
 381 710 402 748 455 748 c 0
 476 748 510 738 510 682 c 0
 510 610 458 557 330 557 c 0
 202 557 150 610 150 682 c 0
EndSplineSet
EndChar

StartChar: afii10058
Encoding: 1033 1033 311
Width: 1094
Flags: MW
HStem: -15 46<131.283 196.986> 0 46<693.428 830.492> 351 46<683.736 819.929> 646 46<356.527 518.473>
VStem: 13 116<45.1417 158.998> 290 62<369.025 638.29> 523 160<56.7109 347.332 389 638.44> 881 175<100.014 286.943>
LayerCount: 2
Fore
SplineSet
13 117 m 0xbf
 13 180 47 196 76 196 c 0
 101 196 150 186 150 138 c 0
 150 112 129 86 129 62 c 0
 129 47 137 31 158 31 c 0xbf
 236 31 290 237 290 595 c 0
 290 646 282 651 211 654 c 1
 211 692 l 1
 779 692 l 1
 779 656 l 1
 691 651 683 646 683 595 c 2
 683 389 l 1
 703 393 736 397 769 397 c 0
 862 397 1056 386 1056 198 c 0
 1056 50 955 0 774 0 c 2
 444 0 l 1x7f
 444 38 l 1
 515 41 523 46 523 97 c 2
 523 592 l 2
 523 637 515 643 444 646 c 1
 431 646 l 1
 360 643 352 637 352 592 c 0
 352 220 287 -15 161 -15 c 0
 84 -15 13 32 13 117 c 0xbf
683 111 m 2
 683 62 705 46 755 46 c 0x7f
 825 46 881 78 881 198 c 0
 881 313 811 351 738 351 c 0
 718 351 694 346 683 341 c 1
 683 111 l 2
EndSplineSet
EndChar

StartChar: afii10059
Encoding: 1034 1034 312
Width: 1106
Flags: MW
HStem: 0 46<705.428 842.492> 341 48<272 535 695 749.06> 654 38<33 105.725 278.275 351 456 528.725 702.172 791>
VStem: 112 160<45.0538 341 389 646.946> 535 160<56.7109 341 389 645.832> 893 175<100.014 286.943>
LayerCount: 2
Fore
SplineSet
33 0 m 1
 33 38 l 1
 104 41 112 46 112 97 c 2
 112 595 l 2
 112 646 104 651 33 654 c 1
 33 692 l 1
 351 692 l 1
 351 654 l 1
 280 651 272 646 272 595 c 2
 272 389 l 1
 535 389 l 1
 535 595 l 2
 535 646 527 651 456 654 c 1
 456 692 l 1
 791 692 l 1
 791 656 l 1
 703 651 695 646 695 595 c 2
 695 389 l 1
 715 393 748 397 781 397 c 0
 874 397 1068 386 1068 198 c 0
 1068 50 967 0 786 0 c 2
 456 0 l 1
 456 38 l 1
 527 41 535 46 535 97 c 2
 535 341 l 1
 272 341 l 1
 272 97 l 2
 272 46 280 41 351 38 c 1
 351 0 l 1
 33 0 l 1
695 111 m 2
 695 62 717 46 767 46 c 0
 837 46 893 78 893 198 c 0
 893 313 823 351 750 351 c 0
 730 351 706 346 695 341 c 1
 695 111 l 2
EndSplineSet
EndChar

StartChar: afii10106
Encoding: 1113 1113 313
Width: 876
VWidth: 0
Flags: MW
HStem: -12 46<126.79 180.434> 0 44<553.864 665.732> 239 46<550.593 662.23> 444 46<257 388>
VStem: 15 129<55.9411 157.49> 226 55<187.752 441.489> 399 151<42.9556 441.489> 690 159<69.0556 211.541>
LayerCount: 2
Fore
SplineSet
15 98 m 0xb7
 15 157 42 175 75 175 c 0
 106 175 144 150 144 122 c 0
 144 100 126 75 126 55 c 0
 126 40 136 34 149 34 c 0xb7
 225 34 226 282 226 403 c 0
 226 445 218 449 161 452 c 1
 161 490 l 1
 625 490 l 1
 625 452 l 1
 557 449 550 445 550 403 c 2
 550 277 l 1
 567 281 594 285 621 285 c 0
 697 285 849 277 849 138 c 0
 849 28 771 0 619 0 c 2
 346 0 l 1x77
 346 38 l 1
 367 40 l 2
 388 42 399 47 399 80 c 2
 399 405 l 2
 399 439 388 441 367 443 c 2
 346 444 l 1
 334 444 l 1
 313 443 l 2
 292 441 281 439 281 405 c 0
 281 222 280 -12 151 -12 c 0
 50 -12 15 56 15 98 c 0xb7
550 88 m 2
 550 55 566 44 601 44 c 0x77
 651 44 690 63 690 144 c 0
 690 221 643 239 589 239 c 0
 575 239 558 235 550 231 c 1
 550 88 l 2
EndSplineSet
EndChar

StartChar: afii10107
Encoding: 1114 1114 314
Width: 890
Flags: MW
HStem: 0 44<567.864 679.732> 231 46<245 413> 452 38<29 89.9676 277 298 360 381 568.032 629>
VStem: 94 151<42.9556 87 87 231 277 447.044> 413 151<42.9556 447.044> 704 159<69.0556 211.541>
LayerCount: 2
Fore
SplineSet
29 0 m 1
 29 38 l 1
 86 41 94 45 94 87 c 2
 94 403 l 2
 94 445 86 449 29 452 c 1
 29 490 l 1
 298 490 l 1
 298 452 l 1
 277 450 l 2
 256 448 245 443 245 410 c 2
 245 277 l 1
 413 277 l 1
 413 410 l 2
 413 443 402 448 381 450 c 2
 360 452 l 1
 360 490 l 1
 639 490 l 1
 639 452 l 1
 571 449 564 445 564 403 c 2
 564 277 l 1
 581 281 608 285 635 285 c 0
 711 285 863 277 863 138 c 0
 863 28 785 0 633 0 c 2
 360 0 l 1
 360 38 l 1
 381 40 l 2
 402 42 413 47 413 80 c 2
 413 231 l 1
 245 231 l 1
 245 80 l 2
 245 47 256 42 277 40 c 2
 298 38 l 1
 298 0 l 1
 29 0 l 1
564 88 m 2
 564 55 580 44 615 44 c 0
 665 44 704 63 704 144 c 0
 704 221 657 239 603 239 c 0
 589 239 572 235 564 231 c 1
 564 88 l 2
EndSplineSet
EndChar

StartChar: afii10108
Encoding: 1115 1115 315
Width: 644
Flags: MW
HStem: 0 38<29 89.9676 277 298 356 377 564.032 625> 295 77<327.631 462.5> 444 46<20 449> 679 63<35 238>
VStem: 94 151<42.9556 263.529 303 672.536> 409 151<42.9556 274.534>
LayerCount: 2
Back
SplineSet
19 0 m 1
 19 38 l 1
 76 41 84 45 84 87 c 2
 84 621 l 2
 84 661 76 670 60 673 c 2
 25 679 l 1
 25 715 l 1
 228 742 l 1
 235 736 l 1
 235 303 l 1
 297 342 344 372 404 372 c 0
 509 372 556 312 557 218 c 2
 557 87 l 2
 557 45 565 41 622 38 c 1
 622 0 l 1
 353 0 l 1
 353 38 l 1
 374 40 l 2
 395 42 406 47 406 80 c 2
 406 204 l 2
 404 264 378 295 327 295 c 0
 285 295 258 272 245 246 c 0
 238 232 235 209 235 187 c 2
 235 80 l 2
 235 47 246 42 267 40 c 2
 288 38 l 1
 288 0 l 1
 19 0 l 1
EndSplineSet
Fore
SplineSet
20 444 m 1
 20 490 l 1
 449 490 l 1
 449 444 l 1
 20 444 l 1
29 0 m 1
 29 38 l 1
 86 41 94 45 94 87 c 2
 94 621 l 2
 94 661 86 670 70 673 c 2
 35 679 l 1
 35 715 l 1
 238 742 l 1
 245 736 l 1
 245 303 l 1
 307 342 356 372 411 372 c 0
 514 372 559 312 560 218 c 2
 560 87 l 2
 560 45 568 41 625 38 c 1
 625 0 l 1
 356 0 l 1
 356 38 l 1
 377 40 l 2
 398 42 409 47 409 80 c 2
 409 204 l 2
 407 264 384 295 334 295 c 0
 297 295 268 272 255 246 c 0
 248 232 245 209 245 187 c 2
 245 80 l 2
 245 47 256 42 277 40 c 2
 298 38 l 1
 298 0 l 1
 29 0 l 1
EndSplineSet
EndChar

StartChar: afii10060
Encoding: 1035 1035 316
Width: 866
Flags: HMW
HStem: 0 38<116 173 378.117 443 531 595.883 768.275 841> 363 82<468.685 658.5> 504 188<15 59.1533 564.847 609> 646 46<112.285 212 372 511.715>
VStem: 15 38<504 504> 212 160<45.4889 646> 571 38<504 504> 602 160<45.0538 342.129>
LayerCount: 2
Fore
SplineSet
15 504 m 1
 15 692 l 1
 609 692 l 1
 609 504 l 1
 571 504 l 1
 537 604 524 646 432 646 c 2
 372 646 l 1
 372 97 l 2
 372 46 381 42 443 38 c 1
 443 0 l 1
 116 0 l 1
 116 38 l 1
 173 42 l 2
 205 44 212 59 212 95 c 2
 212 646 l 1
 192 646 l 2
 100 646 87 604 53 504 c 1
 15 504 l 1
372 281 m 1
 372 379 l 1
 436 413 500 445 601 445 c 0
 716 445 762 374 762 239 c 2
 762 97 l 2
 762 46 770 41 841 38 c 1
 841 0 l 1
 531 0 l 1
 531 38 l 1
 593 42 602 46 602 97 c 2
 602 259 l 2
 602 326 592 363 519 363 c 0
 491 363 450 360 428 349 c 0
 380 325 372 312 372 281 c 1
EndSplineSet
EndChar

StartChar: afii10146
Encoding: 1122 1122 319
Width: 847
Flags: HMW
HStem: 0 46<446.428 583.492> 351 46<436.736 572.929> 448 159<16 59.9747 652.025 696> 561 46<102.211 272.796 439.204 609.789> 654 38<197 269.598 442.402 515>
VStem: 16 38<448 498.334> 276 160<56.7109 347.332 389 516 607 646.62> 634 175<100.014 286.943> 658 38<448 498.334>
LayerCount: 2
Fore
SplineSet
16 448 m 1
 16 607 l 1
 276 607 l 1
 273 644 268 651 197 654 c 1
 197 692 l 1
 515 692 l 1
 515 654 l 1
 444 651 439 644 436 607 c 1
 696 607 l 1
 696 448 l 1
 658 448 l 1
 632 532 615 561 511 561 c 0
 445 561 436 549 436 516 c 2
 436 389 l 1
 456 393 489 397 522 397 c 0
 615 397 809 386 809 198 c 0
 809 50 708 0 527 0 c 2
 182 0 l 1
 182 36 l 1
 270 41 276 46 276 97 c 2
 276 516 l 2
 276 549 267 561 201 561 c 0
 97 561 80 532 54 448 c 1
 16 448 l 1
436 111 m 2
 436 62 458 46 508 46 c 0
 578 46 634 78 634 198 c 0
 634 313 564 351 491 351 c 0
 471 351 447 346 436 341 c 1
 436 111 l 2
EndSplineSet
EndChar

StartChar: afii10076
Encoding: 1082 1082 320
Width: 624
VWidth: 0
Flags: W
HStem: -12 46<544.816 599> 0 38<29 89.9676 249.032 310> 231 46<245 317.966> 452 38<29 89.9676 249.032 310> 456 46<432.473 477.831>
VStem: 94 151<42.9511 447.049> 472 113<360.127 455.473>
LayerCount: 2
Back
SplineSet
341.104 506.232 m 0
 492.813 531.467 548.722 510.63 583.222 450.874 c 0
 602.222 417.965 602.938 368.727 569.162 349.226 c 0
 536.254 330.226 483.014 336.439 467.014 364.151 c 0
 458.515 378.874 460.076 390.168 462.701 413.622 c 0
 465.36 429.016 463.191 442.773 457.69 452.3 c 0
 445.69 473.084 418.674 467.879 395.756 461.574 c 0
514.012 524.756 m 0
 601.862 458.556 598.509 390.964 576.241 361.414 c 0
 555.78 334.26 508.592 339.767 483.035 359.024 c 0
 463.868 373.469 462.306 389.674 465.152 410.066 c 0
 474.894 472.845 476.746 495.24 463.967 504.869 c 0
 454.384 512.091 438.18 510.527 422.532 489.763 c 0
EndSplineSet
Fore
SplineSet
29 0 m 1x76
 29 38 l 1
 86 41 94 45 94 87 c 2
 94 403 l 2
 94 445 86 449 29 452 c 1
 29 490 l 1
 310 490 l 1
 310 452 l 1
 253 449 245 445 245 403 c 2
 245 87 l 2
 245 45 253 41 310 38 c 1
 310 0 l 1
 29 0 l 1x76
245 231 m 1
 245 277 l 1
 256 277 l 2
 327 277 339 322 350 381 c 0
 363 452 406 502 474 502 c 0
 553 502 585 445 585 406 c 0
 585 390 576 348 524 348 c 0
 501 348 472 356 472 389 c 0
 472 409 478 427 478 443 c 0
 478 453 470 456 463 456 c 0
 446 456 417 426 411 385 c 0
 399 300 363 264 343 257 c 1
 343 254 l 1
 382 253 489 228 511 125 c 0
 528 47 563 34 594 34 c 2
 599 34 l 1
 599 -12 l 1
 574 -12 l 2xae
 486 -12 386 3 367 88 c 0
 348 174 334 231 261 231 c 2
 245 231 l 1
EndSplineSet
EndChar

StartChar: afii10072
Encoding: 1078 1078 321
Width: 865
VWidth: 0
Flags: HMW
HStem: -12 46<25 77.2566 787.743 840> 0 38<304 325 540 561> 231 46<302.288 357 508 562.712> 452 38<304 325 540 561> 456 46<146.169 190.812 674.188 718.831>
VStem: 39 113<360.999 454.15> 357 151<41.6062 448.394> 713 113<360.999 454.15>
CounterMasks: 1 07
LayerCount: 2
Back
SplineSet
715 502 m 0
 794 502 826 445 826 406 c 0
 826 390 817 348 765 348 c 0
 742 348 713 356 713 389 c 0
 713 409 719 427 719 443 c 0
 719 453 711 456 704 456 c 0
EndSplineSet
Fore
SplineSet
25 -12 m 1xaf
 25 34 l 1
 30 34 l 2
 56 34 91 47 106 125 c 0
 126 228 235 253 274 254 c 1
 274 257 l 1
 254 264 223 300 210 385 c 0
 202 441 170 456 162 456 c 0
 155 456 146 453 146 444 c 0
 146 428 152 409 152 389 c 0
 152 356 123 348 100 348 c 0
 50 348 39 387 39 406 c 0
 39 445 71 502 150 502 c 0
 216 502 260 448 271 381 c 0
 281 322 301 277 349 277 c 2
 357 277 l 1
 357 231 l 1
 348 231 l 2
 281 231 264 173 250 88 c 0
 236 2 132 -12 50 -12 c 2
 25 -12 l 1xaf
304 0 m 1x77
 304 38 l 1
 325 40 l 2
 346 42 357 47 357 80 c 2
 357 410 l 2
 357 443 346 448 325 450 c 2
 304 452 l 1
 304 490 l 1
 561 490 l 1
 561 452 l 1
 540 450 l 2
 519 448 508 443 508 410 c 2
 508 80 l 2
 508 47 519 42 540 40 c 2
 561 38 l 1
 561 0 l 1
 304 0 l 1x77
508 231 m 1
 508 277 l 1
 516 277 l 2
 564 277 584 322 594 381 c 0
 605 448 649 502 715 502 c 0
 794 502 826 445 826 406 c 0
 826 387 815 348 765 348 c 0
 742 348 713 356 713 389 c 0
 713 409 719 428 719 444 c 0
 719 453 710 456 703 456 c 0
 695 456 663 441 655 385 c 0
 642 300 611 264 591 257 c 1
 591 254 l 1
 630 253 739 228 759 125 c 0
 774 47 809 34 835 34 c 2
 840 34 l 1
 840 -12 l 1
 815 -12 l 2xaf
 733 -12 629 2 615 88 c 0
 601 173 584 231 517 231 c 2
 508 231 l 1
EndSplineSet
EndChar

StartChar: afii10097
Encoding: 1103 1103 322
Width: 630
VWidth: 0
Flags: W
HStem: -12 46<25 69.3951> 0 38<322 382.968 542.032 603> 208 46<280.397 387> 446 44<271.204 381.98 539.334 603>
VStem: 82 159<291.371 421.339> 387 151<42.9511 208 254 439.403>
LayerCount: 2
Fore
SplineSet
25 -12 m 1xbc
 25 34 l 1
 30 34 l 2xbc
 56 34 82 47 97 125 c 0
 112 204 185 215 234 219 c 1
 234 222 l 1
 144.244 247.27 82 277.2 82 360 c 0
 82 450 160 490 312 490 c 2
 603 490 l 1
 603 452 l 1
 546 449 538 445 538 403 c 2
 538 87 l 2
 538 45 546 41 603 38 c 1
 603 0 l 1
 322 0 l 1
 322 38 l 1x7c
 379 41 387 45 387 87 c 2
 387 208 l 1
 338 208 l 2
 278 208 256 168 241 88 c 0
 226 6 132 -12 50 -12 c 2
 25 -12 l 1xbc
241 350 m 0
 241 277 288 254 342 254 c 2
 387 254 l 1
 387 402 l 2
 387 435 365 446 330 446 c 0
 280 446 241 424 241 350 c 0
EndSplineSet
EndChar

StartChar: afii10194
Encoding: 1123 1123 323
Width: 703
Flags: HW
HStem: 0 44<151 224.681 380.864 492.732> 239 46<377.593 489.23> 341 149<15 57.3187 545.681 588> 444 46<89.8015 223.312 379.688 513.199> 679 36<167 202> 722 20G<219.63 377>
VStem: 15 38<341 400.089> 226 151<48.5105 237.407 277 441.393 490 672.536> 517 159<69.0556 211.541> 550 38<341 400.089>
LayerCount: 2
Fore
SplineSet
15 341 m 1
 15 490 l 1xef80
 226 490 l 1
 226 621 l 2
 226 661 218 670 202 673 c 2
 167 679 l 1
 167 715 l 1
 370 742 l 1
 377 736 l 1
 377 490 l 1xdf80
 588 490 l 1
 588 341 l 1
 550 341 l 1xef40
 533 431 498 444 435 444 c 2
 432 444 l 2
 390 444 377 441 377 397 c 2
 377 277 l 1
 394 281 421 285 448 285 c 0
 524 285 676 277 676 138 c 0
 676 28 598 0 446 0 c 2
 151 0 l 1xdf80
 151 38 l 1
 219 41 226 45 226 87 c 2
 226 397 l 2
 226 441 213 444 171 444 c 2
 168 444 l 2xdf80
 105 444 70 431 53 341 c 1
 15 341 l 1
377 88 m 2
 377 55 393 44 428 44 c 0
 478 44 517 63 517 144 c 0
 517 221 470 239 416 239 c 0
 402 239 385 235 377 231 c 1
 377 88 l 2
EndSplineSet
EndChar

StartChar: uni2116
Encoding: 8470 8470 324
Width: 1120
Flags: HMW
HStem: -15 46<125.361 194.206> 0 46<810 1070> 107 38<903.18 976.82> 356 37<903.585 976.415> 654 38<143 215.725> 661 46<743.794 812.639>
VStem: 13 131<73.3009 183.26> 222 62<63.8735 252 252 533> 654 62<268 628.126> 794 131<508.74 618.699> 800 90<167.774 331.688> 990 90<167.774 331.688>
DStem2: 362 692 288 533 0.562904 -0.826522<89.7622 512.562>
LayerCount: 2
Back
SplineSet
124.647 -75.7354 m 0
 -14.7725 41.252 5.93848 145.276 30.3643 174.386 c 0
 59.9326 209.624 114.059 199.453 141.636 176.312 c 0
 159.255 161.528 160.461 139.63 153.487 121.984 c 0
 116.442 34.2764 122.809 -14.1436 157.28 -43.0684 c 0
EndSplineSet
Fore
SplineSet
810 0 m 1
 810 46 l 1
 1070 46 l 1
 1070 0 l 1
 810 0 l 1
800 250 m 0
 800 340 860 393 940 393 c 0
 1020 393 1080 340 1080 250 c 0
 1080 160 1020 107 940 107 c 0
 860 107 800 160 800 250 c 0
890 250 m 0
 890 170 900 145 940 145 c 0
 980 145 990 170 990 250 c 0
 990 330 980 356 940 356 c 0
 900 356 890 330 890 250 c 0
13 117 m 0
 13 180 37 196 80 196 c 0
 101 196 144 186 144 138 c 0
 144 112 123 100 123 72 c 0
 123 58 124 31 152 31 c 0
 222 31 222 142 222 252 c 2
 222 595 l 2
 222 646 214 651 143 654 c 1
 143 692 l 1
 362 692 l 1
 650 268 l 1
 654 268 l 1
 654 443 l 2
 654 608 666 707 783 707 c 0
 863 707 925 660 925 575 c 0
 925 512 901 496 858 496 c 0
 837 496 794 506 794 554 c 0
 794 580 815 592 815 620 c 0
 815 634 814 661 786 661 c 0
 716 661 716 550 716 440 c 2
 716 0 l 1
 651 0 l 1
 288 533 l 1
 284 533 l 1
 284 249 l 2
 284 84 272 -15 155 -15 c 0
 75 -15 13 32 13 117 c 0
EndSplineSet
EndChar

StartChar: .notdef
Encoding: 0 0 325
Width: 608
VWidth: 2048
Flags: W
HStem: 0 43<153 455> 649 43<153 454>
VStem: 90 43<93 600> 475 43<93 600>
LayerCount: 2
Fore
SplineSet
90 0 m 1
 90 692 l 1
 518 692 l 1
 518 0 l 1
 90 0 l 1
133 93 m 1
 280 346 l 1
 133 600 l 1
 133 93 l 1
153 43 m 1
 455 43 l 1
 304 304 l 1
 153 43 l 1
153 649 m 1
 304 389 l 1
 454 649 l 1
 153 649 l 1
328 346 m 1
 475 93 l 1
 475 600 l 1
 328 346 l 1
EndSplineSet
EndChar

StartChar: afii10101
Encoding: 1108 1108 326
Width: 494
Flags: HMW
HStem: -12 77<255.224 376.715> 237 46<193 355> 456 46<236.523 318.829>
VStem: 34 159<136.815 363.953> 352 126<349.594 420.035>
LayerCount: 2
Back
SplineSet
34 241 m 4
 34 328 60 393 102 435 c 4
 147 480 209 502 287 502 c 4
 378 502 478 463 478 392 c 4
 478 348 430 330 395 330 c 4
 369 330 354 342 347 365 c 4
 330 425 313 456 278 456 c 4
 236 456 193 399 193 265 c 4
 193 109 256 65 321 65 c 4
 376 65 415 88 449 156 c 5
 484 140 l 5
 445 16 352 -12 269 -12 c 4
 128 -12 34 73 34 241 c 4
EndSplineSet
Fore
SplineSet
193 237 m 1
 193 283 l 1
 355 283 l 1
 355 237 l 1
 193 237 l 1
34 241 m 0
 34 406.355 126.949 502 287 502 c 0
 378 502 478 463 478 392 c 0
 478 348 430 330 399 330 c 0
 373 330 359 342 352 365 c 0
 335 425 313 456 278 456 c 0
 236 456 193 399 193 265 c 0
 193 109 256 65 321 65 c 0
 376 65 405 85 442 141 c 1
 477 125 l 1
 429 12 352 -12 269 -12 c 0
 128 -12 34 73 34 241 c 0
EndSplineSet
EndChar

StartChar: afii10053
Encoding: 1028 1028 327
Width: 689
Flags: HW
HStem: -15 46<338.378 509.106> 346 48<219 483> 661 46<329.892 501.271>
VStem: 42 177<194.771 486.177> 613 40<161.654 210>
LayerCount: 2
Back
SplineSet
483 346 m 1
 219 346 l 1
 219 394 l 1
 483 394 l 1
 483 346 l 1
42 339 m 0
 42 439 67 534 128 602 c 0
 187 668 282 707 423 707 c 0
 473 707 578 699 638 663 c 1
 638 484 l 1
 600 484 l 1
 577 556 542 661 414 661 c 0
 233 661 219 428 219 355 c 0
 219 242 244 31 422 31 c 0
 535 31 578 118 616 228 c 5
 654 228 l 5
 642 33 l 1
 582 -3 478 -15 408 -15 c 0
 151 -15 42 125 42 339 c 0
EndSplineSet
Fore
SplineSet
219 346 m 1
 219 394 l 1
 483 394 l 1
 483 346 l 1
 219 346 l 1
42 339 m 0
 42 519.091 118.2 707 423 707 c 0
 473 707 578 699 638 663 c 1
 638 484 l 1
 600 484 l 1
 577 556 542 661 414 661 c 0
 233 661 219 428 219 355 c 0
 219 242 244 31 422 31 c 0
 535 31 578 113 613 210 c 1
 653 210 l 1
 642 33 l 1
 582 -3 478 -15 408 -15 c 0
 151 -15 42 125 42 339 c 0
EndSplineSet
EndChar

StartChar: afii10193
Encoding: 1119 1119 328
Width: 654
Flags: HMW
HStem: -168 21G<300 354> 0 46<151 298 356 503> 452 38<29 89.9676 277 298 356 377 564.032 625>
VStem: 94 151<48.5105 87 87 447.044> 308 38<-168 -81.9922> 409 151<48.5105 447.044>
LayerCount: 2
Fore
SplineSet
356 0 m 1
 356 46 l 1
 377 47 l 2
 398 49 409 51 409 85 c 2
 409 410 l 2
 409 443 398 448 377 450 c 2
 356 452 l 1
 356 490 l 1
 625 490 l 1
 625 452 l 1
 568 449 560 445 560 403 c 2
 560 87 l 2
 560 45 568 41 625 38 c 1
 625 0 l 1
 356 0 l 1
29 0 m 1
 29 38 l 1
 86 41 94 45 94 87 c 2
 94 403 l 2
 94 445 86 449 29 452 c 1
 29 490 l 1
 298 490 l 1
 298 452 l 1
 277 450 l 2
 256 448 245 443 245 410 c 2
 245 85 l 2
 245 51 256 49 277 47 c 2
 298 46 l 1
 298 0 l 1
 29 0 l 1
133 0 m 1
 151 46 l 1
 503 46 l 1
 521 0 l 1
 419 0 362 -16 346 -168 c 1
 308 -168 l 1
 292 -16 235 0 133 0 c 1
EndSplineSet
EndChar

StartChar: afii10195
Encoding: 1139 1139 329
Width: 585
Flags: HW
HStem: -12 46<241.452 344.548> 237 46<193 393> 456 46<241.452 344.548>
VStem: 34 159<119.699 370.301> 393 159<119.699 370.301>
LayerCount: 2
Fore
SplineSet
193 237 m 1
 193 283 l 1
 393 283 l 1
 393 237 l 1
 193 237 l 1
EndSplineSet
Refer: 79 111 N 1 0 0 1 0 0 3
EndChar

StartChar: afii10147
Encoding: 1138 1138 330
Width: 768
Flags: HW
HStem: -15 46<311.496 456.891> 346 48<219 549> 661 46<311.109 456.891>
VStem: 42 177<193.704 498.296> 549 177<193.704 498.296>
LayerCount: 2
Fore
SplineSet
219 346 m 1
 219 394 l 1
 549 394 l 1
 549 346 l 1
 219 346 l 1
EndSplineSet
Refer: 47 79 N 1 0 0 1 0 0 3
EndChar

StartChar: afii10099
Encoding: 1106 1106 335
Width: 606
Flags: MW
HStem: -242 21G<256.75 345.5> 0 38<29 89.9676 277 298> 295 77<314.047 439.5> 444 46<20 449> 679 63<35 238>
VStem: 94 151<42.9556 263.529 299 672.536> 414 158<29.8598 254.022>
LayerCount: 2
Back
SplineSet
20 444 m 1
 20 490 l 1
 449 490 l 1
 449 444 l 1
 20 444 l 1
29 0 m 1
 29 38 l 1
 86 41 94 45 94 87 c 2
 94 621 l 2
 94 661 86 670 70 673 c 2
 35 679 l 1
 35 715 l 1
 238 742 l 1
 245 736 l 1
 245 303 l 1
 307 342 356 372 411 372 c 0
 514 372 559 312 560 218 c 2
 560 87 l 2
 560 45 568 41 625 38 c 1
 625 0 l 1
 356 0 l 1
 356 38 l 1
 377 40 l 2
 398 42 409 47 409 80 c 2
 409 204 l 2
 407 264 384 295 334 295 c 0
 297 295 268 272 255 246 c 0
 248 232 245 209 245 187 c 2
 245 80 l 2
 245 47 256 42 277 40 c 2
 298 38 l 1
 298 0 l 1
 29 0 l 1
EndSplineSet
Fore
SplineSet
29 0 m 1
 29 38 l 1
 86 41 94 45 94 87 c 2
 94 621 l 2
 94 661 86 670 70 673 c 2
 35 679 l 1
 35 715 l 1
 238 742 l 1
 245 736 l 1
 245 299 l 1
 285 337 339 372 380 372 c 0
 499 372 572 316 572 137 c 0
 572 -39 423 -153 268 -242 c 1
 250 -210 l 1
 390 -82 414 -22 414 141 c 0
 414 228 390 295 330 295 c 0
 298 295 268 272 255 246 c 0
 248 232 245 209 245 187 c 2
 245 80 l 2
 245 47 256 42 277 40 c 2
 298 38 l 1
 298 0 l 1
 29 0 l 1
20 444 m 1
 20 490 l 1
 449 490 l 1
 449 444 l 1
 20 444 l 1
EndSplineSet
EndChar

StartChar: afii10051
Encoding: 1026 1026 336
Width: 840
Flags: HW
HStem: -15 46<539.237 600.404> 0 38<116 173> 281 21G<372 372> 363 82<460.903 629.5> 646 46<112.285 212 372 511.715>
VStem: 212 160<45.2625 95 95 281 378 646> 424 113<34.6092 143.513> 622 174<89.7959 316.859>
LayerCount: 2
Back
SplineSet
15 504 m 1
 15 692 l 1
 609 692 l 1
 609 504 l 1
 571 504 l 1
 537 604 524 646 432 646 c 2
 372 646 l 1
 372 97 l 2
 372 46 381 42 443 38 c 1
 443 0 l 1
 116 0 l 1
 116 38 l 1
 173 42 l 2
 205 44 212 59 212 95 c 2
 212 646 l 1
 192 646 l 2
 100 646 87 604 53 504 c 1
 15 504 l 1
841 38 m 1
 841 0 l 1
 531 0 l 1
 531 38 l 1
 593 42 602 46 602 97 c 2
 602 259 l 2
 602 326 592 363 519 363 c 0
 491 363 450 360 428 349 c 0
 380 325 372 312 372 281 c 1
 372 379 l 1
 436 413 500 445 601 445 c 0
 716 445 762 374 762 239 c 2
 762 97 l 2
 762 46 770 41 841 38 c 1
EndSplineSet
Fore
SplineSet
372 281 m 1
 372 378 l 1
 431 413 489 445 583 445 c 0
 676 445 796 386 796 213 c 0
 796 20 688 -15 572 -15 c 0xbf
 495 -15 424 18 424 103 c 0
 424 161 447 178 493 178 c 0
 517 178 549 170 549 122 c 0
 549 96 537 92 537 64 c 0
 537 47 545 31 569 31 c 0
 618 31 622 122 622 224 c 0
 622 300 592 363 519 363 c 0
 491 363 450 360 428 349 c 0
 380 325 372 312 372 281 c 1
15 504 m 1
 15 692 l 1
 609 692 l 1
 609 504 l 1
 571 504 l 1
 537 604 524 646 432 646 c 2
 372 646 l 1
 372 0 l 1
 116 0 l 1
 116 38 l 1x7f
 173 42 l 2
 205 44 212 59 212 95 c 2
 212 646 l 1
 192 646 l 2
 100 646 87 604 53 504 c 1
 15 504 l 1
EndSplineSet
EndChar

StartChar: afii10148
Encoding: 1140 1140 337
Width: 787
Flags: MW
HStem: 0 21G<255.3 394.728> 654 38<-16 44.8794 239 287> 661 46<612.721 662.536>
VStem: 655 126<535.36 635.929>
DStem2: 372 149 262 0 0.317643 -0.94821<-517.578 0> 377 149 388 0 0.318854 0.947804<0 562.552>
LayerCount: 2
Back
SplineSet
645 707 m 0
 719 707 781 674 781 585 c 0
 781 559 766 521 717 521 c 0
 679 521 655 530 655 571 c 0
 655 601 663 614 663 637 c 0
 663 655 659 661 644 661 c 0
-16 654 m 1
 -16 692 l 1
 287 692 l 1
 287 654 l 1
 239 649 l 2
 216 647 216 634 222 613 c 2
 372 149 l 1
 377 149 l 1
 395 200 440 346 460 407 c 0
 490 500 512 583 520 616 c 0
 525 637 523 647 503 649 c 2
 447 654 l 1
 447 692 l 1
 679 692 l 1
 679 654 l 1
 623 650 614 643 594 595 c 0x68
 579 556 544 459 507 349 c 2
 388 0 l 1xb0
 262 0 l 1
 60 603 l 2
 46 646 35 652 -16 654 c 1
EndSplineSet
Fore
SplineSet
-16 654 m 1
 -16 692 l 1
 287 692 l 1
 287 654 l 1
 239 649 l 2
 216 647 216 634 222 613 c 2
 372 149 l 1
 377 149 l 1
 501 535 l 2
 536 645 570 707 645 707 c 0
 719 707 781 675 781 583 c 0
 781 557 763 521 719 521 c 0
 681 521 655 528 655 571 c 0
 655 601 663 614 663 637 c 0
 663 655 659 661 644 661 c 0
 612 661 589 598 570 541 c 2
 388 0 l 1
 262 0 l 1
 60 603 l 2
 46 646 35 652 -16 654 c 1
EndSplineSet
EndChar

StartChar: afii10196
Encoding: 1141 1141 338
Width: 637
Flags: HW
HStem: 0 21G<200.744 325.377> 452 38<-8 42.5377 220 257> 456 46<484.543 526.831>
VStem: 521 113<360.999 454.15>
DStem2: 304 132 130 215 0.34709 -0.937832<-325.84 0 0 0> 308 132 318 0 0.346044 0.938218<0 373.157>
LayerCount: 2
Back
SplineSet
523 502 m 0
 602 502 634 445 634 406 c 0
 634 387 623 348 573 348 c 0
 550 348 521 356 521 389 c 0
 521 409 527 428 527 444 c 0
 527 453 518 456 511 456 c 0
-8 452 m 1
 -8 490 l 1
 257 490 l 1
 257 452 l 1
 220 447 l 2
 202 445 200 437 206 418 c 2
 304 132 l 1
 308 132 l 1x78
 342 233 374 324 398 414 c 0
 403 433 400 444 382 446 c 2
 339 452 l 1
 339 490 l 1
 546 490 l 1
 546 452 l 1
 505 449 494 444 477 409 c 0
 459 373 432 310 405 236 c 2
 318 0 l 1xb8
 208 0 l 1
 130 215 l 2
 106 280 83 344 57 408 c 0
 44 440 31 449 -8 452 c 1
EndSplineSet
Fore
SplineSet
-8 452 m 1xd0
 -8 490 l 1
 257 490 l 1
 257 452 l 1xd0
 220 447 l 2
 202 445 200 437 206 418 c 2
 304 132 l 1
 308 132 l 1
 394 381 l 2
 416 446 446 502 523 502 c 0
 602 502 634 445 634 406 c 0
 634 394 628 348 573 348 c 0
 546 348 521 357 521 392 c 0
 521 410 527 428 527 444 c 0
 527 453 518 456 512 456 c 0xb0
 492 456 472 416 460 385 c 2
 318 0 l 1
 208 0 l 1
 130 215 l 2
 106 280 83 344 57 408 c 0
 44 440 31 449 -8 452 c 1xd0
EndSplineSet
EndChar

StartChar: afii10050
Encoding: 1168 1168 339
Width: 556
Flags: MW
HStem: 0 38<33 105.725 279.172 368> 646 46<272.831 447.062>
VStem: 112 160<46.1685 645.163> 508 37<602 634.431 766.672 835>
LayerCount: 2
Back
SplineSet
33 0 m 1
 33 38 l 1
 104 41 112 46 112 97 c 2
 112 595 l 2
 112 646 104 651 33 654 c 1
 33 692 l 1
 559 692 l 1
 559 497 l 1
 522 497 l 1
 496 597 466 646 368 646 c 2
 307 646 l 2
 279 646 272 639 272 610 c 2
 272 97 l 2
 272 46 280 41 368 38 c 1
 368 0 l 1
 33 0 l 1
EndSplineSet
Fore
SplineSet
33 0 m 1
 33 38 l 1
 104 41 112 46 112 97 c 2
 112 595 l 2
 112 646 104 651 33 654 c 1
 33 692 l 1
 338 692 l 2
 454 692 491 726 508 835 c 1
 545 835 l 1
 545 602 l 1
 508 602 l 1
 497 637 493 646 403 646 c 2
 307 646 l 2
 279 646 272 639 272 610 c 2
 272 97 l 2
 272 46 280 41 368 38 c 1
 368 0 l 1
 33 0 l 1
EndSplineSet
EndChar

StartChar: afii10098
Encoding: 1169 1169 340
Width: 469
Flags: HMW
HStem: 0 38<29 89.9676 249.527 324> 444 46<252 389.599>
VStem: 94 151<44.1788 441.489> 422 38<560.406 623>
LayerCount: 2
Back
SplineSet
189 490 m 1
 471 490 l 1
 471 322 l 1
 432 322 l 1
 407 409 394 444 302 444 c 10
 252 444 l 25
 189 490 l 1
29 0 m 1
 29 38 l 1
 86 41 94 45 94 87 c 2
 94 403 l 2
 94 445 86 449 29 452 c 1
 29 490 l 1
 298 490 l 1
 298 444 l 1
 277 443 l 2
 256 441 245 439 245 405 c 2
 245 87 l 2
 245 45 253 41 324 38 c 1
 324 0 l 1
 29 0 l 1
EndSplineSet
Fore
SplineSet
29 0 m 1
 29 38 l 1
 86 41 94 45 94 87 c 2
 94 403 l 2
 94 445 86 449 29 452 c 1
 29 490 l 1
 255 490 l 2
 365 490 399 516 422 623 c 1
 460 623 l 1
 460 399 l 1
 422 399 l 1
 407 433 396 444 327 444 c 2
 298 444 l 1
 277 443 l 2
 256 441 245 439 245 405 c 2
 245 87 l 2
 245 45 253 41 324 38 c 1
 324 0 l 1
 29 0 l 1
EndSplineSet
EndChar

StartChar: ring.cap
Encoding: 61427 61427 341
Width: 430
VWidth: 0
Flags: W
HStem: 705 41<176.593 253.232> 886 41<176.593 253.232>
VStem: 96 67<757.643 874.139> 267 67<758.084 873.698>
LayerCount: 2
Fore
SplineSet
96 816 m 0
 96 898 156 927 215 927 c 0
 274 927 334 898 334 816 c 0
 334 733 274 705 215 705 c 0
 156 705 96 733 96 816 c 0
163 816 m 0
 163 770 186 746 215 746 c 0
 243 746 267 770 267 816 c 0
 267 862 243 886 215 886 c 0
 186 886 163 862 163 816 c 0
EndSplineSet
EndChar

StartChar: macron.cap
Encoding: 63184 63184 344
Width: 430
Flags: W
HStem: 765 87<40 390>
LayerCount: 2
Fore
SplineSet
40 765 m 1
 40 852 l 1
 390 852 l 1
 390 765 l 1
 40 765 l 1
EndSplineSet
EndChar

StartChar: breve.cap
Encoding: 61422 61422 345
Width: 430
Flags: W
HStem: 746 81<122.358 307.641>
VStem: 50 41<858.063 896> 339 41<858.063 896>
LayerCount: 2
Back
SplineSet
56 906 m 5
 94 906 l 5
 96 882 113 831 215 831 c 0
 317 831 334 882 336 906 c 5
 375 906 l 5
 375 836 358 746 216 746 c 0
 73 746 56 830 56 906 c 5
EndSplineSet
Fore
SplineSet
50 896 m 1
 91 896 l 1
 93 872 116 827 215 827 c 0
 314 827 337 872 339 896 c 1
 380 896 l 1
 380 822 354 746 215 746 c 0
 76 746 50 822 50 896 c 1
EndSplineSet
EndChar

StartChar: hungarumlaut.cap
Encoding: 63183 63183 346
Width: 430
Flags: W
HStem: 719 188
LayerCount: 2
Back
SplineSet
110 751 m 1
 282 874 l 2
 313 897 328 904 346 904 c 0
 378 904 400 860 400 840 c 0
 400 811 380 800 327 783 c 2
 124 719 l 1
 110 751 l 1
EndSplineSet
Fore
SplineSet
30 758 m 1
 135 873 l 2
 151 890 167 907 185 907 c 0
 213 907 244 862 244 839 c 0
 244 821 230 809 196 791 c 2
 59 719 l 1
 30 758 l 1
238 758 m 1
 343 873 l 2
 359 890 375 907 393 907 c 0
 421 907 452 862 452 839 c 0
 452 821 438 809 404 791 c 2
 267 719 l 1
 238 758 l 1
EndSplineSet
EndChar

StartChar: tcaron
Encoding: 357 357 349
Width: 392
VWidth: 0
Flags: W
HStem: -12 75<186 309.002> 440 50<32 90 241 345> 532 279
VStem: 90 151<81.7119 440> 322 93<616.031 736>
LayerCount: 2
Back
SplineSet
277.347 512.325 m 1
 305.016 552.567 322.364 594.39 316.102 638.951 c 0
 309.978 682.523 270.693 696.188 264.709 738.771 c 0
 259.838 773.43 278.16 808.319 322.723 814.582 c 0
 370.256 821.263 412.462 786.801 421.647 721.443 c 0
 433.478 637.271 363.271 547.627 308.832 489.485 c 1
 277.347 512.325 l 1
EndSplineSet
Refer: 84 116 N 1 0 0 1 0 0 2
Fore
Refer: 350 57480 S 1 0 0 1 227 0 2
Refer: 84 116 N 1 0 0 1 0 0 2
EndChar

StartChar: caron.alt
Encoding: 57480 57480 350
Width: 232
VWidth: 0
Flags: W
HStem: 532 279
VStem: 95 93<616.031 736>
LayerCount: 2
Fore
SplineSet
44 749 m 0
 44 788 68 811 108 811 c 0
 161 811 188 764 188 708 c 0
 188 644 152 577 111 532 c 1
 79 555 l 1
 94 587 95 621 95 647 c 0
 95 689 44 706 44 749 c 0
EndSplineSet
EndChar

StartChar: uni026A
Encoding: 618 618 354
Width: 339
VWidth: 0
Flags: W
HStem: 0 38<29 89.9676 249.032 310> 452 38<29 89.9676 249.032 310>
VStem: 94 151<42.9511 447.049>
LayerCount: 2
Fore
SplineSet
29 0 m 1
 29 38 l 1
 86 41 94 45 94 87 c 2
 94 403 l 2
 94 445 86 449 29 452 c 1
 29 490 l 1
 310 490 l 1
 310 452 l 1
 253 449 245 445 245 403 c 2
 245 87 l 2
 245 45 253 41 310 38 c 1
 310 0 l 1
 29 0 l 1
EndSplineSet
EndChar

StartChar: uni0268
Encoding: 616 616 355
Width: 340
Flags: HW
HStem: 0 38<31 91.9676 251.032 312> 231 46<21 96 247 322> 437 36<37 72> 482 20G<100 247> 545 175<104.113 227.091>
VStem: 75 183<575.655 691.081> 96 151<42.9511 231 277 431.67>
LayerCount: 2
Fore
SplineSet
21 231 m 1
 21 277 l 1
 96 277 l 1
 96 381 l 2
 96 421 88 430 72 432 c 2
 37 437 l 1
 37 473 l 1
 240 502 l 1
 247 496 l 1
 247 277 l 1
 322 277 l 1
 322 231 l 1
 247 231 l 1
 247 87 l 2
 247 45 255 41 312 38 c 1
 312 0 l 1
 31 0 l 1
 31 38 l 1
 88 41 96 45 96 87 c 2
 96 231 l 1xfa
 21 231 l 1
EndSplineSet
Refer: 517 -1 S 1 0 0 1 5 0 2
EndChar

StartChar: longs
Encoding: 383 383 356
Width: 342
Flags: W
HStem: 0 38<27 87.9676 247.527 322> 696 46<222.546 326>
VStem: 92 151<44.1788 646.617>
LayerCount: 2
Fore
SplineSet
27 0 m 1
 27 38 l 1
 84 41 92 45 92 87 c 2
 92 533 l 2
 92 670 161 742 271 742 c 0
 381 742 417 686 417 649 c 0
 417 615 376 591 344 591 c 0
 320 591 308 602 299 621 c 0
 273 676 259 696 243 696 c 0
 231 696 221 685 221 659 c 0
 221 622 243 538 243 490 c 2
 243 87 l 2
 243 45 251 41 322 38 c 1
 322 0 l 1
 27 0 l 1
EndSplineSet
EndChar

StartChar: uni0283
Encoding: 643 643 357
Width: 390
Flags: W
HStem: -242 46<57.3 159.128> 696 46<270.546 374>
VStem: 140 151<-146.617 646.617>
LayerCount: 2
Back
SplineSet
243 -33 m 2
 243 -170 174 -242 64 -242 c 0
 -46 -242 -82 -186 -82 -149 c 0
 -82 -115 -41 -91 -9 -91 c 0
 15 -91 27 -102 36 -121 c 0
 62 -176 76 -196 92 -196 c 0
 104 -196 114 -185 114 -159 c 0
 114 -122 92 -38 92 10 c 2
92 87 m 2
 92 533 l 2
 92 670 161 742 271 742 c 0
 381 742 417 686 417 649 c 0
 417 615 376 591 344 591 c 0
 320 591 308 602 299 621 c 0
 273 676 259 696 243 696 c 0
 231 696 221 685 221 659 c 0
 221 622 243 538 243 490 c 2
 243 87 l 2
27 0 m 5
 27 38 l 5
 84 41 92 45 92 87 c 6
 92 533 l 6
 92 670 161 742 271 742 c 4
 381 742 417 686 417 649 c 4
 417 615 376 591 344 591 c 4
 320 591 308 602 299 621 c 4
 273 676 259 696 243 696 c 4
 231 696 221 685 221 659 c 4
 221 622 243 538 243 490 c 6
 243 87 l 6
 243 45 251 41 322 38 c 5
 322 0 l 5
 27 0 l 5
EndSplineSet
Fore
SplineSet
-33 -160 m 0
 -33 -130 2 -98 39 -98 c 0
 88 -98 108 -196 140 -196 c 0
 152 -196 162 -185 162 -159 c 0
 162 -122 140 -38 140 10 c 2
 140 533 l 2
 140 670 209 742 319 742 c 0
 429 742 465 686 465 649 c 0
 465 615 424 591 392 591 c 0
 368 591 356 602 347 621 c 0
 321 676 307 696 291 696 c 0
 279 696 269 685 269 659 c 0
 269 622 291 538 291 490 c 2
 291 -33 l 2
 291 -170 222 -242 115 -242 c 0
 1 -242 -33 -193 -33 -160 c 0
EndSplineSet
EndChar

StartChar: uni04A4
Encoding: 1188 1188 358
Width: 997
Flags: MW
HStem: 0 38<33 105.725 278.275 351 456 528.725 702.172 791> 341 48<272 535> 497 21G<932 982> 646 46<695.984 875.938>
VStem: 112 160<45.0538 341 389 646.946> 535 160<46.1685 341 389 645.156> 945 37<497 555.325>
LayerCount: 2
Back
SplineSet
33 0 m 1
 33 38 l 1
 104 41 112 46 112 97 c 2
 112 595 l 2
 112 646 104 651 33 654 c 1
 33 692 l 1
 351 692 l 1
 351 654 l 1
 280 651 272 646 272 595 c 2
 272 389 l 1
 535 389 l 1
 535 595 l 2
 535 646 527 651 456 654 c 1
 456 692 l 1
 774 692 l 1
 774 654 l 1
 703 651 695 646 695 595 c 2
 695 97 l 2
 695 46 703 41 774 38 c 1
 774 0 l 1
 456 0 l 1
 456 38 l 1
 527 41 535 46 535 97 c 2
 535 341 l 1
 272 341 l 1
 272 97 l 2
 272 46 280 41 351 38 c 1
 351 0 l 1
 33 0 l 1
EndSplineSet
Fore
SplineSet
33 0 m 1
 33 38 l 1
 104 41 112 46 112 97 c 2
 112 595 l 2
 112 646 104 651 33 654 c 1
 33 692 l 1
 351 692 l 1
 351 654 l 1
 280 651 272 646 272 595 c 2
 272 389 l 1
 535 389 l 1
 535 595 l 2
 535 646 527 651 456 654 c 1
 456 692 l 1
 982 692 l 1
 982 497 l 1
 945 497 l 1
 919 597 889 646 791 646 c 2
 730 646 l 2
 702 646 695 639 695 609 c 2
 695 97 l 2
 695 46 703 41 791 38 c 1
 791 0 l 1
 456 0 l 1
 456 38 l 1
 527 41 535 46 535 97 c 2
 535 341 l 1
 272 341 l 1
 272 97 l 2
 272 46 280 41 351 38 c 1
 351 0 l 1
 33 0 l 1
EndSplineSet
EndChar

StartChar: uni04A5
Encoding: 1189 1189 359
Width: 811
Flags: HW
HStem: 0 38<29 89.9676 277 298 360 381 568.032 629> 231 46<245 413> 444 46<565.353 704.007> 452 38<29 89.9676 277 298 360 381>
VStem: 94 151<42.9556 231 277 447.044> 413 151<42.9556 231 277 441.625> 751 39<322 380.64>
LayerCount: 2
Fore
SplineSet
29 0 m 1xee
 29 38 l 1
 86 41 94 45 94 87 c 2
 94 403 l 2
 94 445 86 449 29 452 c 1
 29 490 l 1
 298 490 l 1
 298 452 l 1
 277 450 l 2
 256 448 245 443 245 410 c 2
 245 277 l 1
 413 277 l 1
 413 410 l 2
 413 443 402 448 381 450 c 2
 360 452 l 1
 360 490 l 1
 790 490 l 1xde
 790 322 l 1
 751 322 l 1
 726 409 713 444 621 444 c 2
 617 444 l 1
 596 443 l 2
 575 441 564 439 564 405 c 2
 564 87 l 2
 564 45 572 41 629 38 c 1
 629 0 l 1
 360 0 l 1
 360 38 l 1
 381 40 l 2
 402 42 413 47 413 80 c 2
 413 231 l 1
 245 231 l 1
 245 80 l 2
 245 47 256 42 277 40 c 2
 298 38 l 1
 298 0 l 1
 29 0 l 1xee
EndSplineSet
EndChar

StartChar: uni04A2
Encoding: 1186 1186 360
Width: 807
Flags: HW
HStem: -190 21G<737.5 797> 0 38<33 105.725 278.275 351 456 528.725 543 774> 341 48<272 535> 654 38<33 105.725 278.275 351 456 528.725 701.275 774>
VStem: 112 160<45.0538 341 389 646.946> 535 160<45.0538 341 389 646.946> 759 38<-190 -124.474>
LayerCount: 2
Back
SplineSet
543 0 m 9
 542 46 l 1
 784 46 l 1
 797 -190 l 1
 759 -190 l 1
 716 -31 703 0 543 0 c 9
33 0 m 1
 33 38 l 1
 104 41 112 46 112 97 c 2
 112 595 l 2
 112 646 104 651 33 654 c 1
 33 692 l 1
 351 692 l 1
 351 654 l 1
 280 651 272 646 272 595 c 2
 272 389 l 1
 535 389 l 1
 535 595 l 2
 535 646 527 651 456 654 c 1
 456 692 l 1
 774 692 l 1
 774 654 l 1
 703 651 695 646 695 595 c 2
 695 97 l 2
 695 46 703 41 774 38 c 1
 774 0 l 1
 456 0 l 1
 456 38 l 1
 527 41 535 46 535 97 c 2
 535 341 l 1
 272 341 l 1
 272 97 l 2
 272 46 280 41 351 38 c 1
 351 0 l 1
 33 0 l 1
EndSplineSet
Fore
SplineSet
542 38 m 5
 784 38 l 5
 797 -190 l 5
 759 -190 l 5
 716 -31 703 0 543 0 c 13
 542 38 l 5
33 0 m 1
 33 38 l 1
 104 41 112 46 112 97 c 2
 112 595 l 2
 112 646 104 651 33 654 c 1
 33 692 l 1
 351 692 l 1
 351 654 l 1
 280 651 272 646 272 595 c 2
 272 389 l 1
 535 389 l 1
 535 595 l 2
 535 646 527 651 456 654 c 1
 456 692 l 1
 774 692 l 1
 774 654 l 1
 703 651 695 646 695 595 c 2
 695 97 l 2
 695 46 703 41 774 38 c 1
 774 0 l 1
 456 0 l 1
 456 38 l 1
 527 41 535 46 535 97 c 2
 535 341 l 1
 272 341 l 1
 272 97 l 2
 272 46 280 41 351 38 c 1
 351 0 l 1
 33 0 l 1
EndSplineSet
EndChar

StartChar: uni04A3
Encoding: 1187 1187 361
Width: 658
Flags: HW
HStem: -168 21G<598.5 650> 0 38<29 89.9676 277 298 360 381 455 629> 231 46<245 413> 452 38<29 89.9676 277 298 360 381 568.032 629>
VStem: 94 151<42.9556 231 277 447.044> 413 151<42.9556 447.044> 612 38<-168 -99.0234>
LayerCount: 2
Back
SplineSet
455 46 m 29
 634 46 l 21
 650 -168 l 5
 612 -168 l 5
 585 -24 534 0 437 0 c 13
 455 46 l 29
EndSplineSet
Fore
SplineSet
437 0 m 13
 455 38 l 29
 635 38 l 21
 650 -168 l 5
 612 -168 l 5
 585 -24 534 0 437 0 c 13
245 231 m 1
 245 277 l 1
 413 277 l 1
 413 231 l 1
 245 231 l 1
360 0 m 1
 360 38 l 1
 381 40 l 2
 402 42 413 47 413 80 c 2
 413 410 l 2
 413 443 402 448 381 450 c 2
 360 452 l 1
 360 490 l 1
 629 490 l 1
 629 452 l 1
 572 449 564 445 564 403 c 2
 564 87 l 2
 564 45 572 41 629 38 c 1
 629 0 l 1
 360 0 l 1
29 0 m 1
 29 38 l 1
 86 41 94 45 94 87 c 2
 94 403 l 2
 94 445 86 449 29 452 c 1
 29 490 l 1
 298 490 l 1
 298 452 l 1
 277 450 l 2
 256 448 245 443 245 410 c 2
 245 80 l 2
 245 47 256 42 277 40 c 2
 298 38 l 1
 298 0 l 1
 29 0 l 1
EndSplineSet
EndChar

StartChar: uni04B2
Encoding: 1202 1202 362
Width: 664
Flags: HW
HStem: -190 21G<634.5 694> 0 38<-19 56.334 184 242 335 386 440 671> 654 38<-6 58.926 257 299 398 441 558.194 631>
VStem: 656 38<-190 -124.474>
DStem2: 246 614 83 603 0.516171 -0.856486<-26.1199 192.937 244.56 254.701 310.303 562.98>
LayerCount: 2
Fore
SplineSet
439 38 m 1
 681 38 l 1
 694 -190 l 1
 656 -190 l 1
 613 -31 600 0 440 0 c 9
 439 38 l 1
-19 0 m 1
 -19 38 l 1
 46 42 53 47 85 89 c 0
 129 148 195 249 249 330 c 1
 83 603 l 2
 57 645 49 649 -6 654 c 1
 -6 692 l 1
 299 692 l 1
 299 654 l 1
 257 649 l 2
 238 646 234 634 246 614 c 2
 346 449 l 1
 348 449 l 1
 387 511 424 565 451 618 c 0
 461 637 454 645 441 647 c 2
 398 654 l 1
 398 692 l 1
 631 692 l 1
 631 654 l 1
 580 651 561 646 530 608 c 0
 490 558 432 479 381 401 c 1
 568 98 l 2
 598 49 608 41 671 38 c 1
 671 0 l 1
 335 0 l 1
 335 38 l 1
 386 44 l 2
 409 47 409 61 400 77 c 2
 283 274 l 1
 279 274 l 1
 237 205 190 125 168 77 c 0
 159 57 164 44 184 42 c 2
 242 38 l 1
 242 0 l 1
 -19 0 l 1
EndSplineSet
EndChar

StartChar: uni04B3
Encoding: 1203 1203 363
Width: 542
Flags: HW
HStem: -168 21G<519.5 571> 0 38<-15 52.3074 171 206 272 294 376 550> 452 38<-6 52.2134 231 254 318 344 448.921 516>
VStem: 533 38<-168 -99.0234>
DStem2: 287 332 201 227 0.571842 -0.820364<-127.421 0 93.5673 246.189>
LayerCount: 2
Fore
SplineSet
358 0 m 9
 376 38 l 25
 556 38 l 17
 571 -168 l 1
 533 -168 l 1
 506 -24 455 0 358 0 c 9
-15 0 m 1
 -15 38 l 1
 64.8468 47.2131 63.9916 54.8612 201 227 c 1
 46.4825 434.053 74.4115 442.862 -6 452 c 1
 -6 490 l 1
 254 490 l 1
 254 452 l 1
 231 448 l 2
 219 446 218 437 225 427 c 2
 287 332 l 1
 289 332 l 1
 349 421 l 2
 361 438 358 447 344 449 c 2
 318 452 l 1
 318 490 l 1
 516 490 l 1
 516 452 l 1
 475 451 454 441 430 417 c 0
 395 381 358 340 320 289 c 1
 462 87 l 1
 491 50 507 41 550 38 c 1
 550 0 l 1
 272 0 l 1
 272 38 l 1
 294 41 l 2
 311 43 318 52 307 69 c 2
 234 181 l 1
 232 181 l 1
 163 73 l 2
 151 55 155 45 171 43 c 2
 206 38 l 1
 206 0 l 1
 -15 0 l 1
EndSplineSet
EndChar

StartChar: uni04AF
Encoding: 1199 1199 366
Width: 524
Flags: W
HStem: -230 38<105 182.898 344.102 422> 452 38<-12 38.5377 216 253 349 392 502.278 556>
VStem: 188 151<-185.368 41>
DStem2: 304 120 125 215 0.345231 -0.938518<-338.526 0> 308 120 339 41 0.322018 0.946733<0 306.172>
LayerCount: 2
Fore
SplineSet
-12 452 m 1
 -12 490 l 1
 253 490 l 1
 253 452 l 1
 216 447 l 2
 198 445 196 437 202 418 c 2
 304 120 l 1
 308 120 l 1
 346 220 384 324 408 414 c 0
 413 433 410 444 392 446 c 2
 349 452 l 1
 349 490 l 1
 556 490 l 1
 556 452 l 1
 515 449 504 444 487 409 c 0
 469 373 441 311 413 236 c 2
 339 41 l 1
 339 -143 l 2
 339 -185 349 -189 422 -192 c 1
 422 -230 l 1
 105 -230 l 1
 105 -192 l 1
 178 -189 188 -185 188 -143 c 2
 188 41 l 1
 125 215 l 2
 104 275 79 344 53 408 c 0
 40 440 27 449 -12 452 c 1
EndSplineSet
EndChar

StartChar: uni04B1
Encoding: 1201 1201 367
Width: 524
Flags: HMW
HStem: -238 38<105 182.898 344.102 422> -66 46<88 439> 452 38<-12 38.5377 216 253 349 392 502.278 556>
VStem: 188 151<-185.368 41>
DStem2: 304 120 125 215 0.345231 -0.938518<-338.526 0> 308 120 339 41 0.322018 0.946733<0 306.172>
LayerCount: 2
Fore
SplineSet
88 -20 m 1
 439 -20 l 1
 439 -66 l 1
 88 -66 l 1
 88 -20 l 1
-12 452 m 1
 -12 490 l 1
 253 490 l 1
 253 452 l 1
 216 447 l 2
 198 445 196 437 202 418 c 2
 304 120 l 1
 308 120 l 1
 346 220 384 324 408 414 c 0
 413 433 410 444 392 446 c 2
 349 452 l 1
 349 490 l 1
 556 490 l 1
 556 452 l 1
 515 449 504 444 487 409 c 0
 469 373 441 311 413 236 c 2
 339 41 l 1
 339 -151 l 2
 339 -193 349 -197 422 -200 c 1
 422 -238 l 1
 105 -238 l 1
 105 -200 l 1
 178 -197 188 -193 188 -151 c 2
 188 41 l 1
 125 215 l 2
 104 275 79 344 53 408 c 0
 40 440 27 449 -12 452 c 1
EndSplineSet
EndChar

StartChar: uni04B0
Encoding: 1200 1200 368
Width: 617
Flags: W
HStem: 0 38<142 230.828 405.172 494> 174 48<130 238 398 506> 654 38<-12 48.0581 250 304 414 466 590.134 655>
VStem: 238 160<46.1685 174 222 308.994>
DStem2: 359 342 217 309 0.449693 -0.893183<-322.188 0>
LayerCount: 2
Fore
SplineSet
-12 654 m 1
 -12 692 l 1
 304 692 l 1
 304 654 l 1
 250 648 l 2
 228 645 229 631 236 615 c 2
 359 342 l 1
 362 342 l 1
 362 342 455 540 481 608 c 0
 491 634 485 646 466 648 c 2
 414 654 l 1
 414 692 l 1
 655 692 l 1
 655 654 l 1
 601 648 584 640 561 600 c 0
 514 518 463 416 416 321 c 0
 405 298 398 278 398 250 c 2
 398 222 l 1
 506 222 l 1
 506 174 l 1
 398 174 l 1
 398 97 l 2
 398 46 406 41 494 38 c 1
 494 0 l 1
 142 0 l 1
 142 38 l 1
 230 41 238 46 238 97 c 2
 238 174 l 1
 130 174 l 1
 130 222 l 1
 238 222 l 1
 238 240 l 2
 238 265 227 289 217 309 c 2
 72 597 l 2
 49 643 40 650 -12 654 c 1
EndSplineSet
EndChar

StartChar: uni04BA
Encoding: 1210 1210 369
Width: 768
Flags: HW
HStem: 0 38<33 105.725 278.117 343 433 497.883 670.275 743> 363 82<369.15 559.5> 654 38<33 105.725 278.275 351>
VStem: 112 160<45.0538 328.838 379 646.946> 504 160<45.0538 342.129>
LayerCount: 2
Fore
SplineSet
33 0 m 1
 33 38 l 1
 104 41 112 46 112 97 c 2
 112 595 l 2
 112 646 104 651 33 654 c 1
 33 692 l 1
 351 692 l 1
 351 654 l 1
 280 651 272 646 272 595 c 2
 272 379 l 1
 336 413 401 445 502 445 c 0
 617 445 664 374 664 239 c 2
 664 97 l 2
 664 46 672 41 743 38 c 1
 743 0 l 1
 433 0 l 1
 433 38 l 1
 495 42 504 46 504 97 c 2
 504 259 l 2
 504 326 493 363 420 363 c 0
 392 363 350 360 328 349 c 0
 280 325 272 312 272 281 c 2
 272 97 l 2
 272 46 281 42 343 38 c 1
 343 0 l 1
 33 0 l 1
EndSplineSet
EndChar

StartChar: uni0493
Encoding: 1171 1171 370
Width: 496
Flags: W
HStem: 0 38<33 93.9676 253.527 328> 231 46<34 382> 444 46<256 393.599>
VStem: 98 151<44.1788 441.489> 436 39<322 387.074>
LayerCount: 2
Fore
SplineSet
34 231 m 1
 34 277 l 1
 382 277 l 1
 382 231 l 1
 34 231 l 1
EndSplineSet
Refer: 303 1075 N 1 0 0 1 4 0 2
EndChar

StartChar: uni0492
Encoding: 1170 1170 371
Width: 578
Flags: W
HStem: 0 38<37 109.725 283.172 372> 382 48<37 116 276 464> 497 21G<513 563> 646 46<276.831 456.938> 654 38<37 109.725>
VStem: 116 160<46.1685 382 430 645.163> 526 37<497 555.325>
LayerCount: 2
Fore
SplineSet
37 0 m 1xf6
 37 38 l 1
 108 41 116 46 116 97 c 2
 116 382 l 1
 37 382 l 1
 37 430 l 1
 116 430 l 1
 116 595 l 2
 116 646 108 651 37 654 c 1
 37 692 l 1
 563 692 l 1xee
 563 497 l 1
 526 497 l 1
 500 597 470 646 372 646 c 2
 311 646 l 2
 283 646 276 639 276 610 c 2
 276 430 l 1
 464 430 l 1
 464 382 l 1
 276 382 l 1
 276 97 l 2
 276 46 284 41 372 38 c 1
 372 0 l 1
 37 0 l 1xf6
EndSplineSet
EndChar

StartChar: uni0496
Encoding: 1174 1174 372
Width: 1170
VWidth: 0
Flags: HMW
HStem: -190 20 -15 46<33 93.0921 1076.91 1137> 0 38<426 498.725 671.275 744> 341 48<406.364 505 665 763.636> 654 38<426 498.725 671.275 744> 661 46<181.535 233.262 936.737 988.465>
VStem: 67 126<535.149 634.931> 505 160<45.0538 646.946> 977 126<535.149 634.931> 1121 38<-190 -124.422>
CounterMasks: 1 0380
LayerCount: 2
Back
SplineSet
975.258 -5.73926 m 5
 915 31 l 5
 1147 31 l 5
 1159 -190 l 5
 1121 -190 l 5
 1078 -31 1066.5 -25.25 975.258 -5.73926 c 5
905 0 m 9
 904 46 l 1
 1146 46 l 1
 1159 -190 l 1
 1121 -190 l 1
 1078 -31 1065 0 905 0 c 9
426 0 m 1
 426 38 l 1
 497 41 505 46 505 97 c 2
 505 341 l 1
 488 341 l 2
 373 341 327.273 257.957 306 125 c 0
 286 0 201 -15 96 -15 c 2
 33 -15 l 1
 33 31 l 1
 38 31 l 2
 90 31 125 72 145 177 c 0
 174.506 331.905 268 358 360 375 c 1
 360 376 l 1
 314 399 297 445 273 541 c 0
 254 617 229 661 204 661 c 0
 189 661 185 654 185 636 c 0
 185 613 193 603 193 573 c 0
 193 524 160 521 133 521 c 0
 88 521 67 552 67 582 c 0
 67 675 129 707 203 707 c 0
 278 707 314.633 625.898 340 535 c 0
 364 449 381 389 491 389 c 2
 505 389 l 1
 505 595 l 2
 505 646 497 651 426 654 c 1
 426 692 l 1
 744 692 l 1
 744 654 l 1
 673 651 665 646 665 595 c 2
 665 389 l 1
 679 389 l 2
 789 389 806 449 830 535 c 0
 855.367 625.898 892 707 967 707 c 0
 1041 707 1103 675 1103 582 c 0
 1103 552 1082 521 1037 521 c 0
 1010 521 977 524 977 573 c 0
 977 603 985 613 985 636 c 0
 985 654 981 661 966 661 c 0
 941 661 916 617 897 541 c 0
 873 445 856 399 810 376 c 1
 810 375 l 1
 902 358 995.494 331.905 1025 177 c 0
 1045 72 1080 31 1132 31 c 2
 1137 31 l 1
 1137 -15 l 1
 1074 -15 l 2
 969 -15 884 0 864 125 c 0
 842.727 257.957 797 341 682 341 c 2
 665 341 l 1
 665 97 l 2
 665 46 673 41 744 38 c 1
 744 0 l 1
 426 0 l 1
EndSplineSet
Fore
SplineSet
33 -15 m 1
 33 31 l 1
 38 31 l 2
 90 31 125 72 145 177 c 0
 175 332 268 358 360 375 c 1
 360 376 l 1
 314 399 297 445 273 541 c 0
 254 617 229 661 204 661 c 0
 189 661 185 654 185 636 c 0
 185 613 193 603 193 573 c 0
 193 524 160 521 133 521 c 0
 88 521 67 552 67 582 c 0
 67 675 129 707 203 707 c 0
 278 707 315 626 340 535 c 0
 364 449 381 389 491 389 c 2
 505 389 l 1
 505 595 l 2
 505 646 497 651 426 654 c 1
 426 692 l 1
 744 692 l 1
 744 654 l 1
 673 651 665 646 665 595 c 2
 665 389 l 1
 679 389 l 2
 789 389 806 449 830 535 c 0
 855 626 892 707 967 707 c 0
 1041 707 1103 675 1103 582 c 0
 1103 552 1082 521 1037 521 c 0
 1010 521 977 524 977 573 c 0
 977 603 985 613 985 636 c 0
 985 654 981 661 966 661 c 0
 941 661 916 617 897 541 c 0
 873 445 856 399 810 376 c 1
 810 375 l 1
 902 358 995 332 1025 177 c 0
 1045 72 1080 31 1132 31 c 2
 1147 31 l 1
 1159 -190 l 1
 1121 -190 l 1
 1081 -42 1064 -22 993 -10 c 0
 927 1 879 34 864 125 c 0
 843 258 797 341 682 341 c 2
 665 341 l 1
 665 97 l 2
 665 46 673 41 744 38 c 1
 744 0 l 1
 426 0 l 1
 426 38 l 1
 497 41 505 46 505 97 c 2
 505 341 l 1
 488 341 l 2
 373 341 327 258 306 125 c 0
 286 0 201 -15 96 -15 c 2
 33 -15 l 1
EndSplineSet
EndChar

StartChar: uni0497
Encoding: 1175 1175 373
Width: 868
VWidth: 0
Flags: MW
HStem: -168 20 -12 46<25 77.2566 787.743 840> 0 38<304 325 540 561> 231 46<302.288 357 508 562.712> 452 38<304 325 540 561> 456 46<146.169 190.812 674.188 718.831>
VStem: 39 113<360.999 454.15> 357 151<41.6062 448.394> 713 113<360.999 454.15> 823 38<-168 -97.3912>
CounterMasks: 1 0380
LayerCount: 2
Back
SplineSet
667 34 m 29
 846 34 l 21
 861 -168 l 5
 823 -168 l 5
 796 -24 750 -18 680 10 c 13
 667 34 l 29
666 46 m 25
 845 46 l 17
 861 -168 l 1
 823 -168 l 1
 796 -24 745 0 648 0 c 9
 666 46 l 25
EndSplineSet
Fore
SplineSet
25 -12 m 1
 25 34 l 1
 30 34 l 2
 56 34 91 47 106 125 c 0
 126 228 235 253 274 254 c 1
 274 257 l 1
 254 264 223 300 210 385 c 0
 201 441 170 456 162 456 c 0
 155 456 146 453 146 444 c 0
 146 428 152 409 152 389 c 0
 152 356 123 348 100 348 c 0
 50 348 39 387 39 406 c 0
 39 445 71 502 150 502 c 0
 216 502 260 448 271 381 c 0
 281 322 301 277 349 277 c 2
 357 277 l 1
 357 410 l 2
 357 443 346 448 325 450 c 2
 304 452 l 1
 304 490 l 1
 561 490 l 1
 561 452 l 1
 540 450 l 2
 519 448 508 443 508 410 c 2
 508 277 l 1
 516 277 l 2
 564 277 584 322 594 381 c 0
 605 448 649 502 715 502 c 0
 794 502 826 445 826 406 c 0
 826 387 815 348 765 348 c 0
 742 348 713 356 713 389 c 0
 713 409 719 428 719 444 c 0
 719 453 710 456 703 456 c 0
 695 456 664 441 655 385 c 0
 642 300 611 264 591 257 c 1
 591 254 l 1
 630 253 739 228 759 125 c 0
 774 47 809 34 835 34 c 2
 846 34 l 1
 861 -168 l 1
 823 -168 l 1
 799 -39 755 -15 701 2 c 0
 657 15 623 41 615 88 c 0
 601 173 584 231 517 231 c 2
 508 231 l 1
 508 80 l 2
 508 47 519 42 540 40 c 2
 561 38 l 1
 561 0 l 1
 304 0 l 1
 304 38 l 1
 325 40 l 2
 346 42 357 47 357 80 c 2
 357 231 l 1
 348 231 l 2
 281 231 264 173 250 88 c 0
 236 2 132 -12 50 -12 c 2
 25 -12 l 1
EndSplineSet
EndChar

